<?xml version="1.0" encoding="utf-8"?>
<!-- Generator: Adobe Illustrator 22.1.0, SVG Export Plug-In . SVG Version: 6.00 Build 0)  -->
<svg version="1.1" id="Calque_1" xmlns="http://www.w3.org/2000/svg" xmlns:xlink="http://www.w3.org/1999/xlink" x="0px" y="0px"
	 viewBox="0 0 1231.7 262" style="enable-background:new 0 0 1231.7 262;" xml:space="preserve">
<style type="text/css">
	.st0{fill:#453A33;}
	.st1{fill:#F3971B;}
	.st2{fill:#645C58;}
	.st3{fill:none;}
	.st4{enable-background:new    ;}
	.st5{fill:#231916;}
	.st6{fill:#F2911D;}
</style>
<title>logo+slogan2018</title>
<g id="_Groupe_">
	<g id="_Groupe_2">
		<path id="_Tracé_transparent_" class="st0" d="M202.1,146.4V69.7h13.5v64.9h33.8v11.8H202.1z"/>
		<path id="_Tracé_transparent_2" class="st0" d="M255.8,118.5c0-16,10.8-29.1,28.5-29.1s28.5,13.1,28.5,29.1s-10.8,29.2-28.5,29.2
			S255.8,134.4,255.8,118.5z M300.4,118.5c0-9.8-5.6-18.4-16-18.4s-16,8.6-16,18.4s5.7,18.5,16,18.5S300.4,128.4,300.4,118.5z"/>
		<path id="_Tracé_transparent_3" class="st0" d="M323.8,76.6c0-4.1,3.3-7.5,7.4-7.5c4.1,0,7.5,3.3,7.5,7.4s-3.3,7.5-7.4,7.5
			c0,0,0,0,0,0C327.2,84,323.8,80.7,323.8,76.6C323.8,76.6,323.8,76.6,323.8,76.6z M325.2,146.4V90.8h12.1v55.6H325.2z"/>
		<path id="_Tracé_transparent_4" class="st0" d="M348.2,139l5.5-8.6c3.9,4,11.6,7.7,18.8,7.7s11-3,11-7.4
			c0-10.9-33.6-3.1-33.6-24.5c0-9.1,7.8-16.8,21.9-16.8c9.4,0,16.6,3.3,21.5,7.7l-5.1,8.5c-3.3-3.7-9.4-6.7-16.4-6.7
			c-6.3,0-10.2,3-10.2,6.9c0,9.8,33.6,2.4,33.6,24.5c0,9.9-8.2,17.4-23.1,17.4C362.4,147.7,353.9,144.6,348.2,139z"/>
		<path id="_Tracé_transparent_5" class="st0" d="M405.8,76.6c0-4.1,3.3-7.5,7.4-7.5c4.1,0,7.5,3.3,7.5,7.4c0,4.1-3.3,7.5-7.4,7.5
			c0,0,0,0,0,0C409.2,84,405.8,80.7,405.8,76.6C405.8,76.6,405.8,76.6,405.8,76.6z M407.2,146.4V90.8h12.1v55.6H407.2z"/>
		<path id="_Tracé_transparent_6" class="st0" d="M434.9,146.4V90.8H447v8.1c4.2-5.3,10.9-9.4,18-9.4v12c-1.2-0.3-2.4-0.4-3.7-0.3
			c-5.2,0-12,3.4-14.4,7.5v37.8L434.9,146.4z"/>
		<path id="_Tracé_transparent_7" class="st0" d="M470.1,139l5.5-8.6c3.9,4,11.6,7.7,18.7,7.7s11-3,11-7.4
			c0-10.9-33.6-3.1-33.6-24.5c0-9.1,7.8-16.8,21.9-16.8c9.4,0,16.6,3.3,21.5,7.7l-5.1,8.5c-3.3-3.7-9.4-6.7-16.4-6.7
			c-6.3,0-10.2,3-10.2,6.9c0,9.8,33.6,2.4,33.6,24.5c0,9.9-8.2,17.4-23.1,17.4C484.3,147.7,475.8,144.6,470.1,139z"/>
	</g>
	<g id="_Groupe_3">
		<path id="_Tracé_transparent_8" class="st0" d="M202.8,196.2v-31.4h20.5v3.5h-16.6v10.1H223v3.5h-16.4v10.8h16.6v3.5L202.8,196.2
			z"/>
		<path id="_Tracé_transparent_9" class="st0" d="M263.4,196.2l-18.3-25v25h-3.9v-31.4h4l18,24.5v-24.5h3.9v31.4H263.4z"/>
		<path id="_Tracé_transparent_10" class="st0" d="M285,180.6c0-9.6,7.1-16.2,16.1-16.2c4.8-0.1,9.3,2.2,11.9,6.2l-3.2,1.8
			c-2-2.8-5.2-4.5-8.6-4.6c-6.9,0-12.1,5.2-12.1,12.7s5.2,12.7,12.1,12.7c3.5,0,6.7-1.7,8.6-4.6l3.3,1.8c-2.7,4-7.2,6.3-11.9,6.2
			C292.1,196.8,285,190.2,285,180.6z"/>
		<path id="_Tracé_transparent_11" class="st0" d="M352,196.2v-14.4h-18.3v14.4h-3.9v-31.4h3.9v13.5H352v-13.5h3.9v31.4H352z"/>
		<path id="_Tracé_transparent_12" class="st0" d="M375,196.2v-31.4h20.5v3.5h-16.6v10.1h16.3v3.5h-16.3v10.8h16.6v3.5L375,196.2z"
			/>
		<path id="_Tracé_transparent_13" class="st0" d="M431.6,196.2l-8-12.4h-6.3v12.4h-3.9v-31.4h12.6c5.7,0,9.9,3.7,9.9,9.4
			c0.2,4.8-3.4,8.8-8.2,9.1l8.5,12.8L431.6,196.2z M431.9,174.4c0-3.6-2.6-6-6.3-6h-8.2v12h8.2C429.3,180.4,431.9,177.9,431.9,174.4
			z"/>
		<path id="_Tracé_transparent_14" class="st0" d="M453.9,196.2v-31.4h20.5v3.5h-16.6v10.1h16.3v3.5h-16.3v10.8h16.6v3.5
			L453.9,196.2z"/>
		<path id="_Tracé_transparent_15" class="st0" d="M490.5,191.8l2.4-3c2.5,2.9,6,4.5,9.8,4.5c5.6,0,7.4-3,7.4-5.5
			c0-8.1-18.6-3.6-18.6-14.8c0-5.2,4.6-8.7,10.8-8.7c4.2-0.2,8.2,1.4,11.1,4.4l-2.4,2.9c-2.3-2.5-5.6-3.9-9.1-3.8
			c-3.7,0-6.4,2-6.4,5c0,7.1,18.6,3,18.6,14.7c0,4.5-3.1,9.2-11.6,9.2C497.1,196.8,493.1,194.8,490.5,191.8z"/>
	</g>
</g>
<path id="_Tracé_" class="st1" d="M122.1,138.9l-5.5,5.6c-4.4,4.5-11.7,4.5-16.2,0.1l-11.3-11.1c-4.5-4.4-4.5-11.7-0.1-16.2
	l27.8-28.3c4.4-4.5,11.7-4.5,16.2-0.1l11.3,11.1c4.5,4.4,4.5,11.7,0.1,16.2l-5.5,5.6c-1,1-1,2.6,0,3.5l24.7,24.3c1,1,2.6,1,3.6,0
	c0.1-0.1,0.2-0.2,0.3-0.3c6.1-8.7,9.4-19,9.6-29.6c0.1-31.9-25.8-57.8-57.7-57.9l0,0C87.5,62.2,61.9,88,61.8,119.7
	c0,21.6,15,39.2,30,49.6c11.2,7.8,19,17.3,23.8,30.6c2.1,5.7,5.8,5.7,7.8,0c4.8-13.3,12.6-22.7,23.8-30.5c1-0.7,2-1.4,3-2.2
	c1.1-0.8,1.3-2.4,0.5-3.5c-0.1-0.1-0.1-0.2-0.2-0.3l-24.9-24.4C124.6,137.9,123,137.9,122.1,138.9
	C122.1,138.9,122.1,138.9,122.1,138.9z"/>
<rect id="_Tracé_2" x="556" y="92.1" class="st2" width="2.1" height="101.9"/>
<rect id="_Rectangle_" x="60.2" y="59" class="st3" width="1108.2" height="144"/>
<g class="st4">
	<path class="st5" d="M619,122.2l-9.8-25.3h6.1l7,19.5l7-19.5h6.1l-9.8,25.3H619z"/>
</g>
<g class="st4">
	<path class="st5" d="M633.9,113c0-5.2,3.6-9.6,9.7-9.6c6.1,0,9.7,4.4,9.7,9.6s-3.6,9.7-9.7,9.7C637.5,122.7,633.9,118.2,633.9,113z
		 M648.3,113c0-2.8-1.7-5.3-4.7-5.3c-3,0-4.7,2.5-4.7,5.3c0,2.9,1.7,5.4,4.7,5.4C646.6,118.4,648.3,115.9,648.3,113z"/>
	<path class="st5" d="M655.3,119.8l2.1-3.5c1.4,1.3,4.1,2.5,6.3,2.5c2.1,0,3.1-0.8,3.1-1.9c0-3-10.9-0.5-10.9-7.8
		c0-3.1,2.7-5.8,7.5-5.8c3.1,0,5.5,1.1,7.4,2.5l-1.9,3.4c-1.1-1.1-3.2-2.1-5.4-2.1c-1.7,0-2.9,0.8-2.9,1.8c0,2.7,10.9,0.4,10.9,7.8
		c0,3.4-2.9,5.9-8,5.9C660.3,122.7,657.2,121.6,655.3,119.8z"/>
	<path class="st5" d="M683.6,113c0-5.3,4-9.6,9.5-9.6c5.5,0,9.2,4.1,9.2,10.1v1.1h-13.6c0.3,2.2,2.2,4.1,5.3,4.1
		c1.6,0,3.7-0.6,4.9-1.8l2.2,3.2c-1.8,1.7-4.7,2.5-7.6,2.5C687.8,122.7,683.6,118.9,683.6,113z M693.1,107.3c-3,0-4.3,2.1-4.5,3.9h9
		C697.5,109.5,696.3,107.3,693.1,107.3z"/>
	<path class="st5" d="M717.1,122.2L713,116l-4.2,6.2h-5.4l6.5-9.4l-6.2-8.9h5.4l3.8,5.6l3.8-5.6h5.4l-6.1,8.9l6.5,9.4H717.1z"/>
	<path class="st5" d="M729.8,119.8v9.3h-4.8v-25.3h4.8v2.3c1.4-1.8,3.4-2.8,5.7-2.8c4.7,0,8.1,3.5,8.1,9.6s-3.4,9.7-8.1,9.7
		C733.3,122.7,731.3,121.7,729.8,119.8z M738.6,113c0-3.2-1.9-5.3-4.7-5.3c-1.6,0-3.3,0.9-4.1,2.1v6.5c0.8,1.2,2.6,2.1,4.1,2.1
		C736.7,118.4,738.6,116.2,738.6,113z"/>
	<path class="st5" d="M745.9,113c0-5.3,4-9.6,9.5-9.6c5.5,0,9.2,4.1,9.2,10.1v1.1H751c0.3,2.2,2.2,4.1,5.3,4.1
		c1.6,0,3.7-0.6,4.9-1.8l2.2,3.2c-1.8,1.7-4.7,2.5-7.6,2.5C750.1,122.7,745.9,118.9,745.9,113z M755.4,107.3c-3,0-4.3,2.1-4.5,3.9h9
		C759.8,109.5,758.6,107.3,755.4,107.3z M755.8,101.1h-3.4l5.1-5.5h4.4L755.8,101.1z"/>
	<path class="st5" d="M768.1,122.2v-18.4h4.8v2.5c1.3-1.6,3.6-2.9,5.9-2.9v4.7c-0.3-0.1-0.8-0.1-1.3-0.1c-1.6,0-3.7,0.9-4.5,2.1
		v12.1H768.1z"/>
	<path class="st5" d="M781.3,99c0-1.6,1.3-2.8,2.8-2.8c1.6,0,2.9,1.3,2.9,2.8s-1.3,2.9-2.9,2.9C782.6,101.9,781.3,100.6,781.3,99z
		 M781.8,122.2v-18.4h4.8v18.4H781.8z"/>
	<path class="st5" d="M790.2,113c0-5.3,4-9.6,9.5-9.6c5.5,0,9.2,4.1,9.2,10.1v1.1h-13.6c0.3,2.2,2.2,4.1,5.3,4.1
		c1.6,0,3.7-0.6,4.9-1.8l2.2,3.2c-1.8,1.7-4.7,2.5-7.6,2.5C794.4,122.7,790.2,118.9,790.2,113z M799.7,107.3c-3,0-4.3,2.1-4.5,3.9h9
		C804.1,109.5,802.9,107.3,799.7,107.3z"/>
	<path class="st5" d="M824.8,122.2v-11.1c0-2.5-1.3-3.4-3.4-3.4c-1.9,0-3.3,1.1-4.2,2.1v12.4h-4.8v-18.4h4.8v2.4
		c1.2-1.4,3.5-2.8,6.4-2.8c4.1,0,6,2.3,6,5.9v13H824.8z"/>
	<path class="st5" d="M833.2,113c0-5.6,4.1-9.6,9.7-9.6c3.8,0,6,1.6,7.3,3.3l-3.2,3c-0.9-1.3-2.2-2-3.9-2c-2.9,0-5,2.1-5,5.3
		s2.1,5.4,5,5.4c1.7,0,3-0.8,3.9-2l3.2,3c-1.2,1.7-3.5,3.3-7.3,3.3C837.3,122.7,833.2,118.7,833.2,113z"/>
	<path class="st5" d="M852.2,113c0-5.3,4-9.6,9.5-9.6c5.5,0,9.2,4.1,9.2,10.1v1.1h-13.6c0.3,2.2,2.2,4.1,5.3,4.1
		c1.6,0,3.7-0.6,4.9-1.8l2.2,3.2c-1.8,1.7-4.7,2.5-7.6,2.5C856.4,122.7,852.2,118.9,852.2,113z M861.7,107.3c-3,0-4.3,2.1-4.5,3.9h9
		C866.1,109.5,864.9,107.3,861.7,107.3z"/>
	<path class="st5" d="M872.8,119.8l2.1-3.5c1.4,1.3,4.1,2.5,6.3,2.5c2.1,0,3.1-0.8,3.1-1.9c0-3-10.9-0.5-10.9-7.8
		c0-3.1,2.7-5.8,7.5-5.8c3.1,0,5.5,1.1,7.4,2.5l-1.9,3.4c-1.1-1.1-3.2-2.1-5.4-2.1c-1.7,0-2.9,0.8-2.9,1.8c0,2.7,10.9,0.4,10.9,7.8
		c0,3.4-2.9,5.9-8,5.9C877.8,122.7,874.7,121.6,872.8,119.8z"/>
	<path class="st5" d="M913.3,122.2v-1.9c-1.3,1.5-3.4,2.4-5.8,2.4c-2.9,0-6.3-2-6.3-6.1c0-4.3,3.4-5.9,6.3-5.9
		c2.5,0,4.6,0.8,5.8,2.2v-2.3c0-1.9-1.6-3.1-4-3.1c-1.9,0-3.8,0.8-5.3,2.2l-1.9-3.4c2.2-2,5.1-2.9,8-2.9c4.2,0,8.1,1.7,8.1,7v11.9
		H913.3z M913.3,117.8v-2.3c-0.8-1.1-2.3-1.6-3.9-1.6c-1.9,0-3.5,1-3.5,2.8c0,1.7,1.6,2.7,3.5,2.7
		C911,119.4,912.5,118.9,913.3,117.8z"/>
	<path class="st5" d="M935.3,122.2v-2.3c-1.3,1.4-3.5,2.8-6.5,2.8c-4,0-5.9-2.2-5.9-5.8v-13h4.8V115c0,2.5,1.3,3.4,3.4,3.4
		c1.9,0,3.3-1,4.2-2.1v-12.4h4.8v18.4H935.3z"/>
	<path class="st5" d="M977.4,122.2v-11.6c0-1.7-0.8-2.9-2.7-2.9c-1.7,0-3.1,1.1-3.8,2.1v12.4H966v-11.6c0-1.7-0.8-2.9-2.7-2.9
		c-1.7,0-3.1,1.1-3.8,2.1v12.4h-4.8v-18.4h4.8v2.4c0.8-1.1,3.2-2.8,6-2.8c2.7,0,4.4,1.3,5.1,3.3c1.1-1.6,3.5-3.3,6.3-3.3
		c3.4,0,5.4,1.8,5.4,5.5v13.3H977.4z"/>
	<path class="st5" d="M985.9,113c0-5.3,4-9.6,9.5-9.6c5.5,0,9.2,4.1,9.2,10.1v1.1H991c0.3,2.2,2.2,4.1,5.3,4.1
		c1.6,0,3.7-0.6,4.9-1.8l2.2,3.2c-1.8,1.7-4.7,2.5-7.6,2.5C990.1,122.7,985.9,118.9,985.9,113z M995.4,107.3c-3,0-4.3,2.1-4.5,3.9h9
		C999.8,109.5,998.6,107.3,995.4,107.3z"/>
	<path class="st5" d="M1007.7,99c0-1.6,1.3-2.8,2.8-2.8c1.6,0,2.9,1.3,2.9,2.8s-1.3,2.9-2.9,2.9
		C1008.9,101.9,1007.7,100.6,1007.7,99z M1008.1,122.2v-18.4h4.8v18.4H1008.1z"/>
	<path class="st5" d="M1017.7,122.2V96.9h4.8v25.3H1017.7z"/>
	<path class="st5" d="M1027.3,122.2V96.9h4.8v25.3H1027.3z"/>
	<path class="st5" d="M1035.8,113c0-5.3,4-9.6,9.5-9.6c5.5,0,9.2,4.1,9.2,10.1v1.1h-13.6c0.3,2.2,2.2,4.1,5.3,4.1
		c1.6,0,3.7-0.6,4.9-1.8l2.2,3.2c-1.8,1.7-4.7,2.5-7.6,2.5C1040,122.7,1035.8,118.9,1035.8,113z M1045.3,107.3c-3,0-4.3,2.1-4.5,3.9
		h9C1049.7,109.5,1048.5,107.3,1045.3,107.3z"/>
	<path class="st5" d="M1070.4,122.2v-2.3c-1.3,1.4-3.5,2.8-6.5,2.8c-4,0-5.9-2.2-5.9-5.8v-13h4.8V115c0,2.5,1.3,3.4,3.4,3.4
		c1.9,0,3.3-1,4.2-2.1v-12.4h4.8v18.4H1070.4z"/>
	<path class="st5" d="M1080,122.2v-18.4h4.8v2.5c1.3-1.6,3.6-2.9,5.9-2.9v4.7c-0.3-0.1-0.8-0.1-1.3-0.1c-1.6,0-3.7,0.9-4.5,2.1v12.1
		H1080z"/>
	<path class="st5" d="M1108.2,119.8v9.3h-4.8v-25.3h4.8v2.3c1.4-1.8,3.4-2.8,5.7-2.8c4.7,0,8.1,3.5,8.1,9.6s-3.4,9.7-8.1,9.7
		C1111.7,122.7,1109.8,121.7,1108.2,119.8z M1117.1,113c0-3.2-1.9-5.3-4.7-5.3c-1.6,0-3.3,0.9-4.1,2.1v6.5c0.8,1.2,2.6,2.1,4.1,2.1
		C1115.2,118.4,1117.1,116.2,1117.1,113z"/>
	<path class="st5" d="M1125.6,122.2v-18.4h4.8v2.5c1.3-1.6,3.6-2.9,5.9-2.9v4.7c-0.3-0.1-0.8-0.1-1.3-0.1c-1.6,0-3.7,0.9-4.5,2.1
		v12.1H1125.6z"/>
	<path class="st5" d="M1138.8,99c0-1.6,1.3-2.8,2.8-2.8c1.6,0,2.9,1.3,2.9,2.8s-1.3,2.9-2.9,2.9
		C1140.1,101.9,1138.8,100.6,1138.8,99z M1139.2,122.2v-18.4h4.8v18.4H1139.2z"/>
	<path class="st5" d="M1160.2,122.2l-4.2-6.2l-4.2,6.2h-5.4l6.5-9.4l-6.2-8.9h5.4l3.8,5.6l3.8-5.6h5.4l-6.1,8.9l6.5,9.4H1160.2z"/>
	<path class="st5" d="M1169.9,127.4l-2.1-1.7c1.2-0.6,2.6-2.2,2.9-3.6c-0.1,0-0.4,0.1-0.7,0.1c-1.4,0-2.6-1.1-2.6-2.7
		c0-1.7,1.4-3,3-3c1.8,0,3.4,1.4,3.4,3.9C1173.8,123.2,1172.2,125.7,1169.9,127.4z"/>
</g>
<g class="st4">
	<path class="st6" d="M611.7,167.8v-25.3h4.8v25.3H611.7z"/>
	<path class="st6" d="M620.2,158.6c0-5.3,4-9.6,9.5-9.6c5.5,0,9.2,4.1,9.2,10.1v1.1h-13.6c0.3,2.2,2.2,4.1,5.3,4.1
		c1.6,0,3.7-0.6,4.9-1.8l2.2,3.2c-1.8,1.7-4.7,2.5-7.6,2.5C624.4,168.3,620.2,164.5,620.2,158.6z M629.7,152.9c-3,0-4.3,2.1-4.5,3.9
		h9C634.1,155.1,632.9,152.9,629.7,152.9z"/>
	<path class="st6" d="M656.9,167.8l-7.4-18.4h5.2l4.8,12.8l4.8-12.8h5.2l-7.4,18.4H656.9z"/>
	<path class="st6" d="M670.5,158.6c0-5.2,3.6-9.6,9.7-9.6c6.1,0,9.7,4.4,9.7,9.6s-3.6,9.7-9.7,9.7
		C674.1,168.3,670.5,163.8,670.5,158.6z M682.9,146.7l-2.8-3.4l-2.7,3.4h-3l3.5-5.5h4.3l3.6,5.5H682.9z M684.9,158.6
		c0-2.8-1.7-5.3-4.7-5.3c-3,0-4.7,2.5-4.7,5.3c0,2.9,1.7,5.4,4.7,5.4C683.2,164,684.9,161.5,684.9,158.6z"/>
	<path class="st6" d="M694.5,163.2v-9.5h-3v-4.2h3v-5h4.8v5h3.7v4.2h-3.7v8.2c0,1.2,0.6,2.1,1.7,2.1c0.7,0,1.4-0.3,1.7-0.6l1,3.7
		c-0.7,0.6-2,1.2-4,1.2C696.3,168.3,694.5,166.5,694.5,163.2z"/>
	<path class="st6" d="M706.3,167.8v-18.4h4.8v2.5c1.3-1.6,3.6-2.9,5.9-2.9v4.7c-0.3-0.1-0.8-0.1-1.3-0.1c-1.6,0-3.7,0.9-4.5,2.1
		v12.1H706.3z"/>
</g>
<g class="st4">
	<path class="st6" d="M716.9,158.6c0-5.3,4-9.6,9.5-9.6c5.5,0,9.2,4.1,9.2,10.1v1.1H722c0.3,2.2,2.2,4.1,5.3,4.1
		c1.6,0,3.7-0.6,4.9-1.8l2.2,3.2c-1.8,1.7-4.7,2.5-7.6,2.5C721.1,168.3,716.9,164.5,716.9,158.6z M726.4,152.9c-3,0-4.3,2.1-4.5,3.9
		h9C730.8,155.1,729.6,152.9,726.4,152.9z"/>
</g>
<g class="st4">
	<path class="st6" d="M738.5,165.1c0-1.7,1.4-3.1,3.1-3.1s3.1,1.4,3.1,3.1c0,1.7-1.4,3.1-3.1,3.1S738.5,166.8,738.5,165.1z"/>
</g>
</svg>