<?xml version="1.0" encoding="utf-8"?>
<!-- Generator: Adobe Illustrator 22.1.0, SVG Export Plug-In . SVG Version: 6.00 Build 0)  -->
<svg version="1.1" id="Calque_1" xmlns="http://www.w3.org/2000/svg" xmlns:xlink="http://www.w3.org/1999/xlink" x="0px" y="0px"
	 viewBox="0 0 456.4 142.4" style="enable-background:new 0 0 456.4 142.4;" xml:space="preserve">
<style type="text/css">
	.st0{fill:#443932;}
	.st1{fill:#F18F1D;}
</style>
<title>logo</title>
<g id="_Groupe_">
	<g id="_Groupe_2">
		<path id="_Tracé_transparent_" class="st0" d="M140.7,84.4V7.7h13.5v64.9h33.9v11.9L140.7,84.4z"/>
		<path id="_Tracé_transparent_2" class="st0" d="M194.6,56.6c0-16,10.8-29.1,28.6-29.1s28.6,13.1,28.6,29.1s-10.9,29.2-28.6,29.2
			S194.6,72.5,194.6,56.6z M239.2,56.6c0-9.8-5.6-18.4-16-18.4s-16,8.6-16,18.4s5.8,18.5,16,18.5S239.2,66.5,239.2,56.6z"/>
		<path id="_Tracé_transparent_3" class="st0" d="M262.7,14.6c0-4.1,3.3-7.5,7.5-7.5c4.1,0,7.5,3.3,7.5,7.5c0,4.1-3.3,7.5-7.5,7.5
			l0,0C266.1,22.1,262.7,18.8,262.7,14.6C262.7,14.7,262.7,14.6,262.7,14.6z M264.1,84.4V28.9h12.1v55.5H264.1z"/>
		<path id="_Tracé_transparent_4" class="st0" d="M287.2,77.1l5.5-8.6c3.9,4,11.6,7.7,18.8,7.7s11.1-3,11.1-7.4
			c0-10.9-33.7-3.1-33.7-24.5c0-9.1,7.8-16.8,21.9-16.8c9.5,0,16.6,3.3,21.6,7.7l-5.1,8.5c-3.4-3.7-9.5-6.7-16.5-6.7
			c-6.3,0-10.3,3-10.3,6.9c0,9.8,33.7,2.4,33.7,24.5c0,9.9-8.2,17.4-23.2,17.4C301.5,85.8,292.9,82.7,287.2,77.1z"/>
		<path id="_Tracé_transparent_5" class="st0" d="M344.9,14.6c0-4.1,3.3-7.5,7.5-7.5c4.1,0,7.5,3.3,7.5,7.5s-3.3,7.5-7.5,7.5l0,0
			C348.3,22.1,344.9,18.8,344.9,14.6L344.9,14.6z M346.3,84.4V28.9h12.1v55.5H346.3z"/>
		<path id="_Tracé_transparent_6" class="st0" d="M374.1,84.4V28.9h12.1V37c4.3-5.3,11-9.4,18.1-9.4v12c-1.2-0.3-2.5-0.4-3.7-0.3
			c-5.2,0-12,3.4-14.4,7.5v37.8L374.1,84.4z"/>
		<path id="_Tracé_transparent_7" class="st0" d="M409.4,77.1l5.5-8.6c3.9,4,11.6,7.7,18.8,7.7s11.1-3,11.1-7.4
			c0-10.9-33.7-3.1-33.7-24.5c0-9.1,7.8-16.8,21.9-16.8c9.5,0,16.6,3.3,21.6,7.7l-5.1,8.5C446.2,40,440,37,433,37
			c-6.4,0-10.3,3-10.3,6.9c0,9.8,33.7,2.4,33.7,24.5c0,9.9-8.2,17.4-23.2,17.4C423.7,85.8,415.1,82.7,409.4,77.1z"/>
	</g>
	<g id="_Groupe_3">
		<path id="_Tracé_transparent_8" class="st0" d="M141.4,134.3V103H162v3.5h-16.7v10.1h16.4v3.5h-16.4v10.8H162v3.5h-20.6V134.3z"
			/>
		<path id="_Tracé_transparent_9" class="st0" d="M202.2,134.3l-18.3-25v25H180V103h4l18.1,24.5V103h3.9v31.3H202.2z"/>
		<path id="_Tracé_transparent_10" class="st0" d="M223.8,118.7c0-9.6,7.1-16.2,16.2-16.2c4.8-0.1,9.3,2.2,11.9,6.2l-3.2,1.8
			c-2-2.8-5.2-4.6-8.7-4.6c-6.9,0-12.1,5.2-12.1,12.7s5.2,12.7,12.1,12.7c3.5,0,6.7-1.7,8.7-4.6l3.3,1.8c-2.7,4-7.2,6.3-12,6.2
			C230.9,134.9,223.8,128.3,223.8,118.7z"/>
		<path id="_Tracé_transparent_11" class="st0" d="M291,134.3v-14.4h-18.4v14.4h-3.9V103h3.9v13.5H291V103h3.9v31.3H291z"/>
		<path id="_Tracé_transparent_12" class="st0" d="M314.1,134.3V103h20.6v3.5H318v10.1h16.4v3.5H318v10.8h16.7v3.5h-20.6V134.3z"/>
		<path id="_Tracé_transparent_13" class="st0" d="M370.8,134.3l-8-12.4h-6.3v12.4h-3.9V103h12.6c5.8,0,9.9,3.7,9.9,9.4
			c0.2,4.8-3.4,8.8-8.2,9.1l8.5,12.8H370.8z M371.1,112.4c0-3.6-2.6-6-6.3-6h-8.2v12h8.2C368.5,118.4,371.1,116,371.1,112.4
			L371.1,112.4z"/>
		<path id="_Tracé_transparent_14" class="st0" d="M393.1,134.3V103h20.6v3.5h-16.6v10.1h16.4v3.5h-16.4v10.8h16.7v3.5h-20.7V134.3
			z"/>
		<path id="_Tracé_transparent_15" class="st0" d="M429.8,129.9l2.4-3c2.5,2.9,6.1,4.5,9.9,4.5c5.6,0,7.4-3,7.4-5.4
			c0-8.1-18.6-3.6-18.6-14.8c0-5.2,4.6-8.7,10.8-8.7c4.2-0.2,8.2,1.4,11.1,4.4l-2.4,2.9c-2.3-2.5-5.7-3.9-9.1-3.8
			c-3.7,0-6.5,2-6.5,5c0,7,18.6,3,18.6,14.7c0,4.5-3.1,9.2-11.6,9.2C437.3,135.1,432.9,133.3,429.8,129.9z"/>
	</g>
</g>
<path id="_Tracé_" class="st1" d="M60.5,77l-5.6,5.6c-4.5,4.5-11.7,4.5-16.2,0.1L27.4,71.6c-4.5-4.4-4.6-11.7-0.1-16.2l27.8-28.2
	c4.5-4.5,11.7-4.5,16.2-0.1l11.3,11.1c4.5,4.4,4.6,11.7,0.1,16.2L77.1,60c-1,1-1,2.6,0,3.5l0,0l24.8,24.3c1,1,2.6,1,3.6,0
	c0.1-0.1,0.2-0.2,0.3-0.3c6.1-8.7,9.5-19,9.6-29.6c0-32-25.9-57.9-57.8-57.9l0,0C26.2,0.2,0,26,0,57.9c0,21.6,15.1,39.2,30,49.6
	c11.2,7.8,19.1,17.3,23.9,30.6c2.1,5.7,5.8,5.7,7.8,0c4.8-13.3,12.7-22.7,23.9-30.5c1-0.7,2-1.4,3-2.2c1.1-0.8,1.3-2.4,0.5-3.5
	c-0.1-0.1-0.2-0.2-0.2-0.3L64,77.2C63,76,61.5,76,60.5,77z"/>
</svg>
