<?xml version="1.0" encoding="utf-8"?>
<!-- Generator: Adobe Illustrator 22.1.0, SVG Export Plug-In . SVG Version: 6.00 Build 0)  -->
<svg version="1.1" id="Calque_1" xmlns="http://www.w3.org/2000/svg" xmlns:xlink="http://www.w3.org/1999/xlink" x="0px" y="0px"
	 viewBox="0 0 457.5 144.6" style="enable-background:new 0 0 457.5 144.6;" xml:space="preserve">
<style type="text/css">
	.st0{fill:#FFFFFF;}
</style>
<title>logo</title>
<g id="_Groupe_">
	<g id="_Groupe_2">
		<path id="_Tracé_transparent_" class="st0" d="M140.6,85.6V8.9h13.5v64.9H188v11.9L140.6,85.6z"/>
		<path id="_Tracé_transparent_2" class="st0" d="M194.5,57.8c0-16,10.8-29.1,28.6-29.1s28.6,13.1,28.6,29.1S240.8,87,223.1,87
			S194.5,73.7,194.5,57.8z M239.1,57.8c0-9.8-5.6-18.4-16-18.4s-16,8.6-16,18.4s5.8,18.5,16,18.5S239.1,67.7,239.1,57.8z"/>
		<path id="_Tracé_transparent_3" class="st0" d="M262.6,15.8c0-4.1,3.3-7.5,7.5-7.5c4.1,0,7.5,3.3,7.5,7.5c0,4.1-3.3,7.5-7.5,7.5
			l0,0C266,23.3,262.6,20,262.6,15.8C262.6,15.9,262.6,15.8,262.6,15.8z M264,85.6V30.1h12.1v55.5H264z"/>
		<path id="_Tracé_transparent_4" class="st0" d="M287.1,78.3l5.5-8.6c3.9,4,11.6,7.7,18.8,7.7s11.1-3,11.1-7.4
			c0-10.9-33.7-3.1-33.7-24.5c0-9.1,7.8-16.8,21.9-16.8c9.5,0,16.6,3.3,21.6,7.7l-5.1,8.5c-3.4-3.7-9.5-6.7-16.5-6.7
			c-6.3,0-10.3,3-10.3,6.9c0,9.8,33.7,2.4,33.7,24.5c0,9.9-8.2,17.4-23.2,17.4C301.4,87,292.8,83.9,287.1,78.3z"/>
		<path id="_Tracé_transparent_5" class="st0" d="M344.8,15.8c0-4.1,3.3-7.5,7.5-7.5c4.1,0,7.5,3.3,7.5,7.5s-3.3,7.5-7.5,7.5l0,0
			C348.2,23.3,344.8,20,344.8,15.8L344.8,15.8z M346.2,85.6V30.1h12.1v55.5H346.2z"/>
		<path id="_Tracé_transparent_6" class="st0" d="M374,85.6V30.1h12.1v8.1c4.3-5.3,11-9.4,18.1-9.4v12c-1.2-0.3-2.5-0.4-3.7-0.3
			c-5.2,0-12,3.4-14.4,7.5v37.8L374,85.6z"/>
		<path id="_Tracé_transparent_7" class="st0" d="M409.3,78.3l5.5-8.6c3.9,4,11.6,7.7,18.8,7.7s11.1-3,11.1-7.4
			c0-10.9-33.7-3.1-33.7-24.5c0-9.1,7.8-16.8,21.9-16.8c9.5,0,16.6,3.3,21.6,7.7l-5.1,8.5c-3.3-3.7-9.5-6.7-16.5-6.7
			c-6.4,0-10.3,3-10.3,6.9c0,9.8,33.7,2.4,33.7,24.5c0,9.9-8.2,17.4-23.2,17.4C423.6,87,415,83.9,409.3,78.3z"/>
	</g>
	<g id="_Groupe_3">
		<path id="_Tracé_transparent_8" class="st0" d="M141.3,135.5v-31.3h20.6v3.5h-16.7v10.1h16.4v3.5h-16.4v10.8h16.7v3.5h-20.6
			V135.5z"/>
		<path id="_Tracé_transparent_9" class="st0" d="M202.1,135.5l-18.3-25v25h-3.9v-31.3h4l18.1,24.5v-24.5h3.9v31.3H202.1z"/>
		<path id="_Tracé_transparent_10" class="st0" d="M223.7,119.9c0-9.6,7.1-16.2,16.2-16.2c4.8-0.1,9.3,2.2,11.9,6.2l-3.2,1.8
			c-2-2.8-5.2-4.6-8.7-4.6c-6.9,0-12.1,5.2-12.1,12.7s5.2,12.7,12.1,12.7c3.5,0,6.7-1.7,8.7-4.6l3.3,1.8c-2.7,4-7.2,6.3-12,6.2
			C230.8,136.1,223.7,129.5,223.7,119.9z"/>
		<path id="_Tracé_transparent_11" class="st0" d="M290.9,135.5v-14.4h-18.4v14.4h-3.9v-31.3h3.9v13.5h18.4v-13.5h3.9v31.3H290.9z"
			/>
		<path id="_Tracé_transparent_12" class="st0" d="M314,135.5v-31.3h20.6v3.5h-16.7v10.1h16.4v3.5h-16.4v10.8h16.7v3.5H314V135.5z"
			/>
		<path id="_Tracé_transparent_13" class="st0" d="M370.7,135.5l-8-12.4h-6.3v12.4h-3.9v-31.3h12.6c5.8,0,9.9,3.7,9.9,9.4
			c0.2,4.8-3.4,8.8-8.2,9.1l8.5,12.8H370.7z M371,113.6c0-3.6-2.6-6-6.3-6h-8.2v12h8.2C368.4,119.6,371,117.2,371,113.6L371,113.6z"
			/>
		<path id="_Tracé_transparent_14" class="st0" d="M393,135.5v-31.3h20.6v3.5H397v10.1h16.4v3.5H397v10.8h16.7v3.5H393V135.5z"/>
		<path id="_Tracé_transparent_15" class="st0" d="M429.7,131.1l2.4-3c2.5,2.9,6.1,4.5,9.9,4.5c5.6,0,7.4-3,7.4-5.4
			c0-8.1-18.6-3.6-18.6-14.8c0-5.2,4.6-8.7,10.8-8.7c4.2-0.2,8.2,1.4,11.1,4.4l-2.4,2.9c-2.3-2.5-5.7-3.9-9.1-3.8
			c-3.7,0-6.5,2-6.5,5c0,7,18.6,3,18.6,14.7c0,4.5-3.1,9.2-11.6,9.2C437.2,136.3,432.8,134.5,429.7,131.1z"/>
	</g>
</g>
<path id="_Tracé_" class="st0" d="M60.4,78.2l-5.6,5.6c-4.5,4.5-11.7,4.5-16.2,0.1L27.3,72.8c-4.5-4.4-4.6-11.7-0.1-16.2L55,28.4
	c4.5-4.5,11.7-4.5,16.2-0.1l11.3,11.1c4.5,4.4,4.6,11.7,0.1,16.2L77,61.2c-1,1-1,2.6,0,3.5l0,0L101.8,89c1,1,2.6,1,3.6,0
	c0.1-0.1,0.2-0.2,0.3-0.3c6.1-8.7,9.5-19,9.6-29.6c0-32-25.9-57.9-57.8-57.9l0,0C26.1,1.4-0.1,27.2-0.1,59.1
	c0,21.6,15.1,39.2,30,49.6c11.2,7.8,19.1,17.3,23.9,30.6c2.1,5.7,5.8,5.7,7.8,0c4.8-13.3,12.7-22.7,23.9-30.5c1-0.7,2-1.4,3-2.2
	c1.1-0.8,1.3-2.4,0.5-3.5c-0.1-0.1-0.2-0.2-0.2-0.3L63.9,78.4C62.9,77.2,61.4,77.2,60.4,78.2z"/>
</svg>
