<?xml version="1.0" encoding="UTF-8"?><svg enable-background="new 0 0 155 60" version="1.1" viewBox="0 0 155 60" xml:space="preserve" xmlns="http://www.w3.org/2000/svg"><style type="text/css">.st0{fill:#FFFFFF;}.st1{fill:url(#d);}.st2{fill:url(#c);}.st3{fill:url(#b);}.st4{fill:url(#a);}.st5{opacity:0.2;enable-background:new;}.st6{opacity:0.12;enable-background:new;}.st7{opacity:0.25;fill:#FFFFFF;enable-background:new;}.st8{enable-background:new;}.st9{fill:#666666;}</style><title>googlePlay</title><rect class="st0" width="155" height="60"/><path d="m78.1 31.7c-2.3 0-4.2 1.9-4.2 4.3 0 2.3 1.9 4.2 4.3 4.2 2.3 0 4.2-1.9 4.2-4.2s-1.8-4.2-4.1-4.3h-0.2zm0 6.9c-1.4 0.1-2.7-1-2.8-2.4s1-2.7 2.4-2.8 2.7 1 2.8 2.4v0.2c0.1 1.4-0.9 2.5-2.4 2.6 0.1 0 0.1 0 0 0zm-9.3-6.9c-2.3 0-4.2 1.9-4.2 4.3 0 2.3 1.9 4.2 4.3 4.2 2.3 0 4.2-1.9 4.2-4.2s-1.8-4.2-4.1-4.3h-0.2zm0 6.9c-1.4 0.1-2.7-1-2.8-2.4s1-2.7 2.4-2.8 2.7 1 2.8 2.4v0.2c0.1 1.4-1 2.5-2.4 2.6 0.1 0 0 0 0 0zm-11.1-5.5v1.8h4.3c-0.1 0.8-0.4 1.6-1 2.3-0.9 0.9-2.1 1.4-3.3 1.3-2.7 0-4.8-2.1-4.8-4.8s2.1-4.8 4.8-4.8c1.2 0 2.4 0.4 3.3 1.3l1.3-1.3c-1.2-1.2-2.8-1.9-4.5-1.9-3.6-0.1-6.7 2.7-6.9 6.3-0.1 3.6 2.7 6.7 6.3 6.9h0.5c1.7 0.1 3.4-0.6 4.6-1.8 1-1.2 1.6-2.7 1.6-4.2 0-0.4 0-0.8-0.1-1.1h-6.1zm45.4 1.4c-0.5-1.6-2-2.6-3.6-2.7-2.2 0-4 1.8-4 4v0.3c0 2.3 1.8 4.2 4.1 4.2h0.2c1.4 0 2.8-0.7 3.5-1.9l-1.4-1c-0.4 0.7-1.2 1.2-2.1 1.2s-1.7-0.5-2.1-1.3l5.7-2.3-0.3-0.5zm-5.8 1.4c-0.1-1.3 0.9-2.4 2.2-2.5 0.7 0 1.3 0.3 1.6 0.9l-3.8 1.6zm-4.7 4.1h1.9v-12.5h-1.9v12.5zm-3-7.3c-0.6-0.6-1.5-1-2.3-1-2.3 0.1-4.2 2.1-4 4.5 0.1 2.2 1.9 3.9 4 4 0.9 0 1.7-0.4 2.2-1h0.1v0.6c0 1.6-0.9 2.5-2.3 2.5-1 0-1.8-0.6-2.1-1.5l-1.6 0.7c0.6 1.5 2.1 2.5 3.8 2.5 2.2 0 4-1.3 4-4.4v-7.6h-1.7v0.7zm-2.2 5.9c-1.4-0.1-2.5-1.4-2.4-2.8 0.1-1.3 1.1-2.2 2.4-2.4 1.3 0.1 2.3 1.2 2.3 2.5v0.1c0.1 1.3-0.9 2.5-2.2 2.6h-0.1zm24.4-11.1h-4.5v12.5h1.9v-4.7h2.6c2.1 0.2 4-1.5 4.2-3.6s-1.5-4-3.6-4.2h-0.6zm0 6h-2.6v-4.3h2.7c1.2 0 2.1 1 2.1 2.1s-1 2.2-2.2 2.2zm11.5-1.8c-1.4-0.1-2.7 0.7-3.3 1.9l1.7 0.7c0.3-0.6 1-1 1.7-0.9 1-0.1 1.9 0.6 2 1.6v0.1c-0.6-0.3-1.3-0.5-1.9-0.5-1.8 0-3.6 1-3.6 2.8 0.1 1.6 1.4 2.8 3 2.8h0.1c1 0.1 1.9-0.4 2.4-1.2h0.1v1h1.8v-4.8c-0.1-2.2-1.8-3.5-4-3.5zm-0.2 6.8c-0.6 0-1.5-0.3-1.5-1.1 0-1 1.1-1.3 2-1.3 0.6 0 1.2 0.1 1.7 0.4-0.1 1.2-1 2.1-2.2 2zm10.6-6.5l-2.1 5.4h-0.1l-2.2-5.4h-2l3.3 7.6-1.9 4.2h1.9l5.1-11.8h-2zm-16.8 8h1.9v-12.5h-1.9v12.5z"/><linearGradient id="d" x1="31.802" x2="15.022" y1="241.91" y2="258.69" gradientTransform="translate(0 -223.2)" gradientUnits="userSpaceOnUse"><stop stop-color="#00A0FF" offset="0"/><stop stop-color="#00A1FF" offset=".01"/><stop stop-color="#00BEFF" offset=".26"/><stop stop-color="#00D2FF" offset=".51"/><stop stop-color="#00DFFF" offset=".76"/><stop stop-color="#00E3FF" offset="1"/></linearGradient><path class="st1" d="m20.4 17.5c-0.3 0.4-0.5 0.9-0.5 1.4v22.1c0 0.5 0.1 1 0.5 1.4l0.1 0.1 12.4-12.4v-0.3l-12.5-12.3z"/><linearGradient id="c" x1="43.83" x2="19.64" y1="253.2" y2="253.2" gradientTransform="translate(0 -223.2)" gradientUnits="userSpaceOnUse"><stop stop-color="#FFE000" offset="0"/><stop stop-color="#FFBD00" offset=".41"/><stop stop-color="#FFA500" offset=".78"/><stop stop-color="#FF9C00" offset="1"/></linearGradient><path class="st2" d="m37 34.3l-4.1-4.1v-0.3l4.1-4.1h0.1l4.9 2.8c1.4 0.8 1.4 2.1 0 2.9l-4.9 2.8h-0.1z"/><linearGradient id="b" x1="34.828" x2="12.068" y1="255.5" y2="278.25" gradientTransform="translate(0 -223.2)" gradientUnits="userSpaceOnUse"><stop stop-color="#FF3A44" offset="0"/><stop stop-color="#C31162" offset="1"/></linearGradient><path class="st3" d="m37.1 34.2l-4.2-4.2-12.5 12.5c0.6 0.5 1.5 0.5 2.1 0.1l14.6-8.4"/><linearGradient id="a" x1="17.298" x2="27.458" y1="233.38" y2="243.54" gradientTransform="translate(0 -223.2)" gradientUnits="userSpaceOnUse"><stop stop-color="#32A071" offset="0"/><stop stop-color="#2DA771" offset=".07"/><stop stop-color="#15CF74" offset=".48"/><stop stop-color="#06E775" offset=".8"/><stop stop-color="#00F076" offset="1"/></linearGradient><path class="st4" d="m37.1 25.8l-14.6-8.3c-0.6-0.5-1.5-0.5-2.1 0l12.5 12.5 4.2-4.2z"/><path class="st5" d="m37 34.1l-14.5 8.3c-0.6 0.4-1.4 0.4-2 0l-0.1 0.1 0.1 0.1c0.6 0.4 1.4 0.4 2 0l14.6-8.3-0.1-0.2z"/><path class="st6" d="m20.4 42.3c-0.3-0.4-0.5-0.9-0.5-1.4v0.2c0 0.5 0.1 1 0.5 1.4v-0.2z"/><path class="st6" d="m42 31.3l-5 2.8 0.1 0.1 4.9-2.8c0.6-0.3 0.9-0.8 1-1.4-0.1 0.6-0.5 1-1 1.3z"/><path class="st7" d="m22.5 17.6l19.5 11.1c0.5 0.3 0.9 0.7 1 1.3-0.1-0.6-0.4-1.2-1-1.4l-19.5-11.1c-1.4-0.8-2.5-0.1-2.5 1.5v0.1c0-1.6 1.1-2.3 2.5-1.5z"/><g class="st8"><path class="st9" d="m52.1 17.1h1.6c0.4 0 0.8 0.1 1.2 0.2 0.3 0.1 0.6 0.3 0.9 0.5 0.2 0.2 0.4 0.5 0.6 0.9 0.1 0.4 0.2 0.8 0.2 1.3s-0.1 0.9-0.2 1.3-0.3 0.7-0.6 0.9c-0.2 0.2-0.5 0.4-0.9 0.5-0.3 0.1-0.7 0.2-1.1 0.2h-1.7v-5.8zm1.5 4.8c0.2 0 0.4 0 0.6-0.1s0.4-0.2 0.5-0.3 0.2-0.3 0.3-0.6c0.1-0.2 0.1-0.5 0.1-0.9 0-0.3 0-0.6-0.1-0.9l-0.3-0.6c-0.1-0.1-0.3-0.2-0.5-0.3s-0.4-0.1-0.6-0.1h-0.2v3.7h0.2z"/><path class="st9" d="M57.6,21.9H59v-3.6h-1.4v-1.1h4.1v1.1h-1.4v3.6h1.4V23h-4.1V21.9z"/><path class="st9" d="m63.5 21.4c0.2 0.2 0.5 0.3 0.7 0.4 0.3 0.1 0.5 0.2 0.8 0.2s0.5-0.1 0.7-0.2c0.1-0.1 0.2-0.2 0.2-0.4 0-0.1 0-0.2-0.1-0.2s0-0.2-0.1-0.2-0.2-0.1-0.3-0.1-0.2-0.1-0.4-0.1l-0.8-0.3c-0.2-0.1-0.3-0.1-0.5-0.2s-0.3-0.2-0.4-0.3-0.2-0.3-0.3-0.5v-0.7c0-0.2 0.1-0.5 0.2-0.7s0.3-0.4 0.4-0.6c0.2-0.2 0.4-0.3 0.7-0.4s0.6-0.1 0.9-0.1c0.4 0 0.7 0.1 1 0.2s0.6 0.3 0.9 0.6l-0.7 0.8c-0.2-0.1-0.4-0.3-0.6-0.3-0.2-0.1-0.4-0.1-0.7-0.1s-0.5 0-0.6 0.1-0.2 0.2-0.2 0.4 0.1 0.3 0.3 0.4 0.4 0.2 0.7 0.3l0.7 0.3c0.4 0.1 0.7 0.3 0.9 0.6s0.3 0.6 0.3 1c0 0.2-0.1 0.5-0.2 0.7s-0.2 0.4-0.4 0.6-0.4 0.3-0.7 0.4-0.6 0.1-1 0.1-0.8-0.1-1.2-0.2-0.7-0.4-1.1-0.6l0.9-0.9z"/><path class="st9" d="m68.4 17.1h2.1c0.3 0 0.6 0 0.9 0.1s0.5 0.2 0.7 0.3 0.4 0.3 0.5 0.6c0.1 0.2 0.2 0.5 0.2 0.9 0 0.3-0.1 0.6-0.2 0.9s-0.3 0.5-0.5 0.6-0.5 0.3-0.7 0.4c-0.3 0.1-0.6 0.1-0.9 0.1h-0.8v2h-1.3v-5.9zm2.1 2.9c0.7 0 1.1-0.3 1.1-0.9 0-0.3-0.1-0.5-0.3-0.6s-0.4-0.2-0.8-0.2h-0.7v1.7h0.7z"/><path class="st9" d="m75.8 23.1c-0.3 0-0.7-0.1-1-0.2s-0.5-0.3-0.7-0.6-0.4-0.6-0.5-1-0.2-0.8-0.2-1.3 0.1-0.9 0.2-1.3 0.3-0.7 0.5-0.9 0.5-0.5 0.7-0.6c0.3-0.1 0.6-0.2 1-0.2 0.3 0 0.7 0.1 1 0.2s0.5 0.3 0.7 0.6 0.4 0.6 0.5 0.9 0.2 0.8 0.2 1.3-0.1 0.9-0.2 1.3-0.3 0.7-0.5 1-0.5 0.5-0.7 0.6c-0.3 0.1-0.6 0.2-1 0.2zm0-1.1c0.3 0 0.5-0.2 0.7-0.5s0.3-0.8 0.3-1.4-0.1-1-0.3-1.4c-0.2-0.3-0.4-0.5-0.7-0.5s-0.5 0.2-0.7 0.5-0.3 0.8-0.3 1.4 0.1 1.1 0.3 1.4 0.4 0.5 0.7 0.5z"/><path class="st9" d="m79.1 17.1h1.3l1.2 2.9 0.5 1.3c0-0.3-0.1-0.7-0.1-1s-0.1-0.7-0.1-1.1v-2.1h1.3v5.9h-1.2l-1.2-2.9-0.5-1.3c0 0.3 0.1 0.7 0.1 1s0.1 0.7 0.1 1.1v2.1h-1.3v-5.9z"/><path class="st9" d="M84.6,21.9H86v-3.6h-1.4v-1.1h4.1v1.1h-1.4v3.6h1.4V23h-4.1V21.9z"/><path class="st9" d="m90.1 17.1h1.8c0.3 0 0.6 0 0.9 0.1 0.3 0 0.5 0.1 0.7 0.2s0.3 0.3 0.5 0.4c0.1 0.2 0.2 0.4 0.2 0.7 0 0.1 0 0.3-0.1 0.4s-0.1 0.3-0.2 0.4l-0.3 0.3s-0.3 0.2-0.5 0.2c0.4 0.1 0.7 0.2 1 0.5 0.2 0.2 0.3 0.5 0.3 0.9 0 0.3-0.1 0.6-0.2 0.8s-0.3 0.4-0.5 0.5-0.4 0.2-0.7 0.3c-0.3 0.2-0.6 0.2-0.9 0.2h-2v-5.9zm1.8 2.4c0.3 0 0.6-0.1 0.7-0.2s0.2-0.3 0.2-0.5-0.1-0.4-0.2-0.5-0.4-0.1-0.7-0.1h-0.5v1.3h0.5zm0.1 2.5c0.7 0 1.1-0.3 1.1-0.8 0-0.3-0.1-0.4-0.3-0.6s-0.4-0.2-0.8-0.2h-0.6v1.6h0.6z"/><path class="st9" d="M95.7,17.1H97v4.8h2.6V23h-3.9V17.1z"/><path class="st9" d="M101,17.1h3.9v1.1h-2.5v1.2h2.2v1.1h-2.2v1.3h2.6V23h-4V17.1z"/><path class="st9" d="m112.1 21.4c0.2 0.2 0.5 0.3 0.7 0.4 0.3 0.1 0.5 0.2 0.8 0.2s0.5-0.1 0.7-0.2c0.1-0.1 0.2-0.2 0.2-0.4 0-0.1 0-0.2-0.1-0.2s-0.1-0.1-0.2-0.2-0.2-0.1-0.3-0.1-0.2-0.1-0.4-0.1l-0.8-0.3c-0.2-0.1-0.3-0.1-0.5-0.2s-0.3-0.2-0.4-0.3-0.2-0.3-0.3-0.5-0.1-0.4-0.1-0.6 0.1-0.5 0.2-0.7 0.3-0.4 0.4-0.6c0.2-0.2 0.4-0.3 0.7-0.4s0.6-0.1 0.9-0.1c0.4 0 0.7 0.1 1 0.2s0.6 0.3 0.9 0.6l-0.7 0.8c-0.2-0.1-0.4-0.3-0.6-0.3-0.2-0.1-0.4-0.1-0.7-0.1s-0.5 0-0.6 0.1-0.2 0.2-0.2 0.4 0.1 0.3 0.3 0.4 0.4 0.2 0.7 0.3l0.7 0.3c0.4 0.1 0.7 0.3 0.9 0.6s0.3 0.6 0.3 1c0 0.2-0.1 0.5-0.2 0.7s-0.2 0.4-0.4 0.6-0.4 0.3-0.7 0.4-0.6 0.1-1 0.1-0.8-0.1-1.2-0.2-0.7-0.4-1.1-0.6l1.1-1z"/><path class="st9" d="m116.9 17.1h1.3v3.7c0 0.4 0.1 0.6 0.2 0.8s0.3 0.3 0.6 0.3 0.5-0.1 0.6-0.3 0.2-0.5 0.2-0.8v-3.7h1.3v3.6c0 0.8-0.2 1.4-0.5 1.8s-0.9 0.6-1.6 0.6-1.3-0.2-1.6-0.6c-0.4-0.4-0.5-1-0.5-1.8v-3.6z"/><path class="st9" d="m125.5 23l-1.1-2.1h-0.7v2.1h-1.3v-5.9h2.1c0.3 0 0.6 0 0.9 0.1s0.5 0.2 0.7 0.3 0.4 0.3 0.5 0.6 0.2 0.5 0.2 0.9-0.1 0.8-0.3 1.1-0.4 0.5-0.8 0.6l1.3 2.3h-1.5zm-1.8-3.2h0.6c0.7 0 1.1-0.3 1.1-0.9 0-0.3-0.1-0.5-0.3-0.6s-0.4-0.2-0.8-0.2h-0.6v1.7z"/></g></svg>
