<?xml version="1.0" encoding="UTF-8"?><svg enable-background="new 0 0 155 60" version="1.1" viewBox="0 0 155 60" xml:space="preserve" xmlns="http://www.w3.org/2000/svg" xmlns:xlink="http://www.w3.org/1999/xlink"><style type="text/css">.st0{fill:#FFFFFF;}.st1{clip-path:url(#a);}.st2{fill:#666666;}</style><title>AppSotre</title><rect class="st0" x="-.1" y="-.4" width="155" height="60"/><defs><rect id="b" x="23.2" y="17.1" width="15.2" height="25.7"/></defs><clipPath id="a"><use xlink:href="#b"/></clipPath><g class="st1"><path d="m35.9 17h-10.9c-1 0-1.9 0.8-1.9 1.9v22c0 1 0.8 1.9 1.8 1.9h0.1 10.9c1 0 1.9-0.8 1.9-1.9v-22c0-1-0.8-1.9-1.9-1.9zm-8.1 1.1h5.4c0.1 0 0.3 0.2 0.3 0.5s-0.2 0.4-0.3 0.4h-5.4c-0.1 0-0.2-0.2-0.2-0.5s0.1-0.4 0.2-0.4zm2.7 22.9c-0.7 0-1.2-0.5-1.2-1.2s0.5-1.2 1.2-1.2 1.2 0.5 1.2 1.2-0.6 1.2-1.2 1.2zm5.9-4.1h-11.8v-16.7h11.8v16.7z"/></g><path d="M54.1,40.3h-1.9V27.5h1.9V40.3z"/><path d="m59.2 27.8c-0.4 1.6-1 3.1-1.8 4.5l-1.2 0.1c0.5-1.4 0.9-2.9 1.1-4.4l1.9-0.2z"/><path d="m68.7 40.3h-2.1l-1.1-3.6h-3.9l-1.1 3.6h-2l3.9-12.1h2.4l3.9 12.1zm-3.6-5.1l-1-3.2c-0.1-0.3-0.3-1.1-0.6-2.3-0.1 0.5-0.3 1.3-0.6 2.3l-1 3.2h3.2z"/><path d="m78.7 35.8c0.1 1.3-0.4 2.6-1.2 3.5-0.7 0.8-1.7 1.2-2.7 1.2-1 0.1-1.9-0.4-2.5-1.2v4.6h-2v-9.4c0-0.9 0-1.9-0.1-2.9h1.8l0.1 1.4c1-1.6 3.2-2 4.8-1 0.3 0.2 0.5 0.4 0.8 0.7 0.7 0.8 1.1 2 1 3.1zm-2 0.1c0-0.7-0.2-1.5-0.6-2.1s-1-0.9-1.7-0.9c-0.5 0-0.9 0.2-1.3 0.5s-0.7 0.8-0.8 1.3c-0.1 0.2-0.1 0.4-0.1 0.6v1.5c0 0.6 0.2 1.2 0.6 1.6s0.9 0.7 1.5 0.7c0.7 0 1.3-0.3 1.7-0.8 0.6-0.8 0.8-1.6 0.7-2.4z"/><path d="m88.8 35.8c0.1 1.3-0.4 2.6-1.2 3.5-0.7 0.8-1.7 1.2-2.7 1.2-1 0.1-1.9-0.4-2.5-1.2v4.6h-2v-9.4c0-0.9 0-1.9-0.1-2.9h1.7l0.1 1.4c1-1.6 3.2-2 4.8-1 0.3 0.2 0.5 0.4 0.8 0.7 0.8 0.8 1.1 2 1.1 3.1zm-2 0.1c0-0.7-0.2-1.5-0.6-2.1-0.7-0.9-1.9-1.1-2.9-0.5l-0.1 0.1c-0.4 0.3-0.7 0.8-0.8 1.3-0.1 0.2-0.1 0.4-0.1 0.6v1.5c0 0.6 0.2 1.2 0.6 1.6s0.9 0.7 1.5 0.7c0.7 0 1.3-0.3 1.7-0.8 0.5-0.8 0.8-1.6 0.7-2.4z"/><path d="m100 36.9c0.1 0.9-0.3 1.9-1 2.5-0.9 0.8-2.1 1.1-3.3 1.1-1.1 0.1-2.2-0.2-3.1-0.8l0.4-1.6c0.8 0.5 1.8 0.8 2.8 0.8 0.6 0 1.2-0.1 1.7-0.5 0.4-0.3 0.6-0.8 0.6-1.3s-0.2-0.9-0.5-1.2c-0.5-0.4-1.1-0.7-1.7-0.9-2.1-0.8-3.2-2-3.2-3.5 0-0.9 0.4-1.8 1.1-2.5 0.8-0.7 1.9-1 3-1 1 0 1.9 0.2 2.8 0.6l-0.5 1.6c-0.7-0.4-1.5-0.6-2.3-0.6-0.6 0-1.1 0.1-1.6 0.5-0.3 0.3-0.5 0.7-0.5 1.1 0 0.5 0.2 0.9 0.6 1.2 0.5 0.4 1.1 0.7 1.8 0.9 0.9 0.3 1.7 0.8 2.3 1.5 0.4 0.6 0.7 1.3 0.6 2.1z"/><path d="M106.5,33h-2.1v4.3c0,1.1,0.4,1.6,1.1,1.6c0.3,0,0.6,0,0.9-0.1l0.1,1.5c-0.5,0.2-1,0.2-1.5,0.2c-0.7,0-1.3-0.2-1.8-0.7  c-0.5-0.7-0.7-1.5-0.7-2.4V33h-1.3v-1.5h1.3V30l1.9-0.6v2.2h2.1V33z"/><path d="m116.1 35.9c0.1 1.2-0.4 2.4-1.1 3.3-0.8 0.9-2 1.4-3.2 1.3-1.2 0.1-2.3-0.4-3.1-1.3s-1.2-2-1.2-3.2 0.4-2.4 1.2-3.3 2-1.4 3.2-1.3c1.2 0 2.3 0.4 3.1 1.3 0.8 0.8 1.2 2 1.1 3.2zm-2 0c0-0.7-0.2-1.4-0.5-2.1-0.3-0.6-1-1-1.8-1-0.7 0-1.4 0.4-1.8 1s-0.5 1.4-0.5 2.1 0.2 1.4 0.5 2.1c0.5 1 1.7 1.3 2.7 0.8 0.3-0.2 0.6-0.5 0.8-0.8 0.5-0.6 0.6-1.3 0.6-2.1z"/><path d="m122.5 33.3c-0.2 0-0.4-0.1-0.6 0-0.6 0-1.2 0.3-1.6 0.8-0.3 0.5-0.5 1.1-0.5 1.7v4.6h-1.9v-6c0-1 0-1.9-0.1-2.8h1.7l0.1 1.7h0.1c0.2-0.6 0.5-1 1-1.4 0.4-0.3 0.9-0.5 1.4-0.5h0.5l-0.1 1.9z"/><path d="m131.1 35.5c0 0.3 0 0.6-0.1 0.9h-5.8c0 0.8 0.3 1.5 0.8 2 0.5 0.4 1.2 0.6 1.9 0.6 0.8 0 1.6-0.1 2.4-0.4l0.3 1.3c-0.9 0.4-1.9 0.6-2.9 0.5-1.2 0.1-2.3-0.4-3.2-1.2-0.8-0.9-1.2-2-1.2-3.2s0.3-2.4 1.1-3.3c0.7-0.9 1.9-1.4 3.1-1.4 1.1-0.1 2.2 0.5 2.9 1.4 0.5 0.9 0.8 1.8 0.7 2.8zm-1.8-0.5c0-0.5-0.1-1-0.4-1.5s-0.9-0.8-1.6-0.8c-0.6 0-1.2 0.3-1.6 0.8-0.3 0.4-0.5 1-0.6 1.5h4.2z"/><path class="st2" d="m53.3 17.8h-1.7v-0.9h4.4v0.9h-1.7v5h-1v-5z"/><path class="st2" d="m56 20.6c0-1.4 1-2.3 2-2.3 1.2 0 1.8 0.9 1.8 2.1v0.5h-2.8c0.1 0.8 0.6 1.2 1.3 1.2 0.4 0 0.7-0.1 1-0.3l0.4 0.6c-0.4 0.3-1 0.5-1.5 0.5-1.2 0-2.2-0.8-2.2-2.3zm3-0.4c0-0.7-0.3-1.1-0.9-1.1-0.5 0-1 0.4-1.1 1.1h2zm-1.5-3.1l1.3-1.6 0.7 0.7-1.5 1.4-0.5-0.5z"/><path class="st2" d="m60.9 21.7v-5.2h1v5.3c0 0.3 0.1 0.3 0.2 0.3h0.2l0.1 0.8c-0.1 0.1-0.3 0.1-0.5 0.1-0.8-0.1-1-0.6-1-1.3z"/><path class="st2" d="m63 20.6c0-1.4 1-2.3 2-2.3 1.2 0 1.8 0.9 1.8 2.1v0.5h-2.8c0.1 0.8 0.6 1.2 1.3 1.2 0.4 0 0.7-0.1 1-0.3l0.4 0.6c-0.4 0.3-1 0.5-1.5 0.5-1.2 0-2.2-0.8-2.2-2.3zm3-0.4c0-0.7-0.3-1.1-0.9-1.1-0.5 0-1 0.4-1.1 1.1h2zm-1.5-3.1l1.3-1.6 0.7 0.7-1.5 1.4-0.5-0.5z"/><path class="st2" d="m67.6 20.6c0-1.5 1-2.3 2.2-2.3 0.6 0 1 0.2 1.3 0.5l-0.5 0.7c-0.2-0.2-0.5-0.3-0.7-0.3-0.7 0-1.2 0.6-1.2 1.5s0.5 1.5 1.2 1.5c0.3 0 0.7-0.2 0.9-0.4l0.4 0.7c-0.4 0.4-0.9 0.5-1.4 0.5-1.3-0.1-2.2-0.9-2.2-2.4z"/><path class="st2" d="m72 16.4h1v1.6 0.9c0.4-0.4 0.8-0.7 1.4-0.7 0.9 0 1.4 0.6 1.4 1.8v2.8h-1v-2.6c0-0.7-0.2-1-0.7-1-0.4 0-0.6 0.2-1 0.5v3.1h-1v-6.4z"/><path class="st2" d="m76.8 21.6c0-0.9 0.8-1.4 2.6-1.6 0-0.5-0.2-0.9-0.8-0.9-0.4 0-0.8 0.2-1.2 0.4l-0.4-0.6c0.5-0.3 1.1-0.6 1.8-0.6 1.1 0 1.6 0.7 1.6 1.9v2.6h-0.9l-0.1-0.5c-0.4 0.3-0.8 0.6-1.4 0.6-0.7 0-1.2-0.5-1.2-1.3zm2.6 0v-1c-1.2 0.2-1.6 0.5-1.6 0.9s0.3 0.6 0.6 0.6c0.4 0 0.7-0.2 1-0.5z"/><path class="st2" d="m81.7 18.4h0.9l0.1 0.8c0.3-0.6 0.8-0.9 1.3-0.9 0.2 0 0.4 0 0.5 0.1l-0.2 0.9c-0.2 0-0.3-0.1-0.5-0.1-0.4 0-0.8 0.2-1 0.9v2.7h-1v-4.4z"/><path class="st2" d="m84.7 23.6c0-0.4 0.2-0.7 0.6-0.9-0.2-0.1-0.4-0.4-0.4-0.7s0.2-0.6 0.5-0.8c-0.3-0.2-0.6-0.6-0.6-1.2 0-1 0.8-1.6 1.7-1.6 0.2 0 0.5 0 0.6 0.1h1.6v0.8h-0.7c0.1 0.2 0.3 0.4 0.3 0.7 0 1-0.7 1.5-1.7 1.5-0.2 0-0.4 0-0.6-0.1-0.1 0.1-0.2 0.2-0.2 0.4 0 0.3 0.2 0.4 0.7 0.4h0.8c1.1 0 1.6 0.3 1.6 1.1 0 0.9-0.9 1.6-2.4 1.6-1.1-0.1-1.8-0.5-1.8-1.3zm3.2-0.2c0-0.3-0.3-0.4-0.8-0.4h-0.6c-0.2 0-0.4 0-0.6-0.1-0.2 0.2-0.3 0.4-0.3 0.6 0 0.4 0.4 0.6 1.1 0.6s1.2-0.4 1.2-0.7zm-0.6-3.5c0-0.5-0.3-0.9-0.8-0.9-0.4 0-0.8 0.3-0.8 0.9s0.3 0.9 0.8 0.9 0.8-0.4 0.8-0.9z"/><path class="st2" d="m89.2 20.6c0-1.4 1-2.3 2-2.3 1.2 0 1.8 0.9 1.8 2.1v0.5h-2.8c0.1 0.8 0.6 1.2 1.3 1.2 0.4 0 0.7-0.1 1-0.3l0.4 0.6c-0.4 0.3-1 0.5-1.5 0.5-1.2 0-2.2-0.8-2.2-2.3zm3-0.4c0-0.7-0.3-1.1-0.9-1.1-0.5 0-1 0.4-1.1 1.1h2z"/><path class="st2" d="m94.1 18.4h0.9l0.1 0.8c0.3-0.6 0.8-0.9 1.3-0.9 0.2 0 0.4 0 0.5 0.1l-0.2 0.9c-0.2 0-0.3-0.1-0.5-0.1-0.4 0-0.8 0.2-1 0.9v2.7h-1v-4.4z"/><path class="st2" d="m98.9 20.6c0-1.4 0.9-2.3 1.9-2.3 0.5 0 0.8 0.2 1.2 0.5v-0.7-1.6h1v6.4h-0.9l-0.1-0.5c-0.3 0.3-0.8 0.6-1.3 0.6-1-0.1-1.8-0.9-1.8-2.4zm3 1v-2.1c-0.3-0.3-0.6-0.4-0.9-0.4-0.6 0-1 0.5-1 1.5s0.4 1.5 1 1.5c0.4 0 0.6-0.2 0.9-0.5z"/><path class="st2" d="m104.1 21.6c0-0.9 0.8-1.4 2.6-1.6 0-0.5-0.2-0.9-0.8-0.9-0.4 0-0.8 0.2-1.2 0.4l-0.4-0.7c0.5-0.3 1.1-0.6 1.8-0.6 1.1 0 1.6 0.7 1.6 1.9v2.6h-0.9l-0.1-0.5c-0.4 0.3-0.8 0.6-1.4 0.6-0.7 0.1-1.2-0.4-1.2-1.2zm2.6 0v-1c-1.2 0.2-1.6 0.5-1.6 0.9s0.3 0.6 0.6 0.6c0.4 0 0.6-0.2 1-0.5z"/><path class="st2" d="m108.9 18.4h0.9l0.1 0.6c0.4-0.4 0.8-0.7 1.5-0.7 0.9 0 1.4 0.6 1.4 1.8v2.8h-1v-2.6c0-0.7-0.2-1-0.7-1-0.4 0-0.6 0.2-1 0.5v3.1h-1v-4.5z"/><path class="st2" d="m113.5 22.3l0.5-0.7c0.4 0.3 0.8 0.5 1.2 0.5 0.5 0 0.7-0.2 0.7-0.5 0-0.4-0.5-0.5-0.9-0.7-0.6-0.2-1.2-0.5-1.2-1.3s0.6-1.3 1.6-1.3c0.6 0 1.1 0.3 1.5 0.5l-0.5 0.6c-0.3-0.2-0.6-0.4-1-0.4s-0.6 0.2-0.6 0.5c0 0.4 0.4 0.5 0.9 0.7 0.6 0.2 1.3 0.5 1.3 1.3s-0.6 1.4-1.7 1.4c-0.7 0-1.3-0.2-1.8-0.6z"/></svg>
