<svg id="Calque_1" data-name="Calque 1" xmlns="http://www.w3.org/2000/svg" viewBox="0 0 117 25"><defs><style>.cls-1{fill:#fff;}</style></defs><title>moodboard noel 2108</title><path class="cls-1" d="M101,8.34a1.45,1.45,0,1,1-1.45-1.45A1.45,1.45,0,0,1,101,8.34Z"/><path class="cls-1" d="M106,19.23l-.9,0-.09,0-.06,0-.31.2h0l-.22,0,.89-.63a.13.13,0,1,0-.15-.2l-1.09.77-.35-.06.89-.63a.13.13,0,1,0-.15-.2l-1.09.77-.4-.07a.78.78,0,0,0,0-.21.67.67,0,0,0-.12-.2l.27-.32,1.33-.12h0a.12.12,0,0,0,.08-.12.12.12,0,0,0-.13-.12l-1.09.1.23-.27,1.34-.12h0a.13.13,0,0,0,.08-.13.12.12,0,0,0-.14-.11l-1.08.1.14-.18h0l.37-.05,0,0a.16.16,0,0,0,.09-.05l.71-.55h0a.19.19,0,0,0,.06-.2l-.07-.6v0a.24.24,0,0,0-.14-.12h0l-.61,0h-.09a.18.18,0,0,0-.1.09l-.41.79a.29.29,0,0,0,0,.16l0,.36-.15.18-.09-1.07a.12.12,0,0,0-.14-.11.12.12,0,0,0-.11.13l.12,1.32-.23.27L103,17a.12.12,0,0,0-.13-.11.12.12,0,0,0-.11.14l.11,1.31-.27.33a.67.67,0,0,0-.42-.07l-.14-.39.56-1.22a.12.12,0,0,0-.06-.16.12.12,0,0,0-.1,0l-.07.07-.46,1-.12-.34.56-1.21a.13.13,0,0,0-.06-.17.14.14,0,0,0-.09,0,.11.11,0,0,0-.07.06l-.46,1-.08-.2h0l.13-.34a.3.3,0,0,0,0-.16l-.12-.89h0v0a.22.22,0,0,0-.13-.12l-.56-.24h0l-.1,0h0l-.08,0h0l-.27.55a.19.19,0,0,0,0,.18s0,0,0,0l.48.75a.41.41,0,0,0,.12.11l.33.17.07.19-1-.44a.12.12,0,0,0-.1,0,.13.13,0,0,0,0,.23l1.2.56.13.33-1-.45a.14.14,0,0,0-.09,0,.11.11,0,0,0-.07.06.13.13,0,0,0,.06.17l1.2.55.15.4a.64.64,0,0,0-.29.34l-.4-.07-.77-1.09a.12.12,0,0,0-.17,0,.12.12,0,0,0,0,.17l.63.89-.36-.06-.77-1.09a.12.12,0,0,0-.17,0,.12.12,0,0,0,0,.17l.63.89-.22,0h0l-.23-.29a.32.32,0,0,0-.13-.1L98.82,18l0,.11,0-.11a.15.15,0,0,0-.13,0,.15.15,0,0,0-.07.05l-.49.35v0a.23.23,0,0,0,0,.18v0l.34.51a.18.18,0,0,0,.18.11l.89,0a.29.29,0,0,0,.1,0l.05,0L100,19l.21,0-.87.62a.12.12,0,0,0,0,.17.11.11,0,0,0,.14,0l0,0,1.08-.76.35.06-.87.62a.13.13,0,0,0,0,.18.12.12,0,0,0,.14,0l0,0,1.08-.76.41.07a.62.62,0,0,0,0,.23.52.52,0,0,0,.1.18l-.26.32-1.31.11a.14.14,0,0,0-.12.14.12.12,0,0,0,.14.11l1.07-.09-.23.27-1.32.12a.12.12,0,0,0-.11.13.12.12,0,0,0,.13.12l1.07-.1-.14.16-.36,0-.06,0-.09,0-.7.55a.18.18,0,0,0-.06.21l.06.6,0,0a.2.2,0,0,0,.14.11h0l.6,0h.09a.22.22,0,0,0,.1-.09l-.11-.06.11.06.42-.79a.41.41,0,0,0,0-.16V21.1h0l.14-.17.1,1.09a.12.12,0,0,0,.13.11h0a.12.12,0,0,0,.08-.13l-.12-1.33.23-.27.1,1.08a.12.12,0,0,0,.14.11h0a.13.13,0,0,0,.08-.13l-.12-1.33.25-.31a.63.63,0,0,0,.45.08l.14.38-.56,1.2a.13.13,0,0,0,.06.17h.1a.13.13,0,0,0,.07-.06l.45-1,.12.34-.55,1.2a.12.12,0,0,0,.06.16.1.1,0,0,0,.09,0h0a.12.12,0,0,0,.07-.07l.45-1,.08.21-.14.34a.3.3,0,0,0,0,.16l.12.89h0a0,0,0,0,1,0,0,.21.21,0,0,0,.14.12l.56.24h.12l.08-.05,0,0,.26-.55a.17.17,0,0,0,0-.17l0,0h0l-.48-.76a.32.32,0,0,0-.12-.11l-.32-.17h0l-.08-.22,1,.46a.17.17,0,0,0,.1,0h0a.13.13,0,0,0,.07-.06.13.13,0,0,0-.06-.17L103,20.84l-.12-.33,1,.45a.1.1,0,0,0,.09,0h0a.13.13,0,0,0,0-.23l-1.21-.56-.14-.38a.69.69,0,0,0,.28-.33l.41.07.76,1.08a.14.14,0,0,0,.15,0h0a.14.14,0,0,0,0-.18l-.62-.87.35.06.76,1.08a.14.14,0,0,0,.15,0h0a.14.14,0,0,0,0-.18l-.62-.87.22,0,.22.29a.38.38,0,0,0,.13.09l.83.34a.19.19,0,0,0,.13,0l.08-.05.49-.37v0a.28.28,0,0,0,0-.18v0l-.34-.5A.16.16,0,0,0,106,19.23Zm-1-2.54,0,0,0,0Z"/><polygon class="cls-1" points="9.95 5.69 10.08 4.09 8.8 3.08 10.41 2.71 11.01 1.22 11.87 2.59 13.52 2.68 12.44 3.89 12.86 5.44 11.34 4.82 9.95 5.69"/><polygon class="cls-1" points="110.93 0.71 110.45 5.76 114.96 3.43 111.05 6.66 115.88 8.2 110.83 7.72 113.16 12.23 109.93 8.32 108.39 13.15 108.87 8.1 104.37 10.43 108.28 7.2 103.44 5.66 108.49 6.14 106.16 1.64 109.39 5.55 110.93 0.71"/><path class="cls-1" d="M40.27,14.85V1.58H42.6V12.8h5.84v2Z"/><path class="cls-1" d="M49.56,10a4.93,4.93,0,1,1,9.86,0,4.93,4.93,0,1,1-9.86,0Zm7.7,0c0-1.69-1-3.18-2.77-3.18S51.73,8.35,51.73,10s1,3.2,2.76,3.2S57.25,11.75,57.26,10Z"/><path class="cls-1" d="M61.31,2.79a1.3,1.3,0,1,1,1.3,1.29A1.3,1.3,0,0,1,61.31,2.79Zm.24,12.07V5.25h2.09v9.61Z"/><path class="cls-1" d="M65.53,13.59l1-1.49a5,5,0,0,0,3.24,1.33c1.25,0,1.91-.52,1.91-1.27,0-1.89-5.81-.54-5.8-4.24,0-1.57,1.35-2.9,3.78-2.9a5.48,5.48,0,0,1,3.71,1.33l-.87,1.47a3.94,3.94,0,0,0-2.84-1.15c-1.1,0-1.77.51-1.78,1.19,0,1.69,5.81.42,5.81,4.24,0,1.71-1.41,3-4,3A5.82,5.82,0,0,1,65.53,13.59Z"/><path class="cls-1" d="M75.49,2.79a1.3,1.3,0,1,1,1.3,1.3A1.3,1.3,0,0,1,75.49,2.79Zm.24,12.07V5.26h2.09v9.6Z"/><path class="cls-1" d="M80.52,14.87V5.26h2.09V6.65A4.19,4.19,0,0,1,85.73,5V7.09A2.86,2.86,0,0,0,85.1,7a3.3,3.3,0,0,0-2.49,1.29v6.55Z"/><path class="cls-1" d="M86.6,13.6l1-1.49a5,5,0,0,0,3.24,1.33c1.25,0,1.91-.52,1.91-1.27,0-1.89-5.81-.54-5.81-4.24,0-1.57,1.36-2.9,3.78-2.9A5.49,5.49,0,0,1,94.4,6.36l-.87,1.47a4,4,0,0,0-2.85-1.15c-1.09,0-1.77.51-1.77,1.19,0,1.69,5.81.42,5.81,4.24,0,1.71-1.42,3-4,3A5.86,5.86,0,0,1,86.6,13.6Z"/><path class="cls-1" d="M40.37,23.47V18.05h3.55v.61H41.05V20.4h2.82V21H41.05v1.87h2.87v.61Z"/><path class="cls-1" d="M50.86,23.48l-3.15-4.33v4.33H47V18.06h.69l3.12,4.23V18.06h.68v5.42Z"/><path class="cls-1" d="M54.6,20.77A2.71,2.71,0,0,1,57.39,18a2.4,2.4,0,0,1,2,1.08l-.56.31a1.84,1.84,0,0,0-1.5-.79,2.07,2.07,0,0,0-2.08,2.2A2.08,2.08,0,0,0,57.38,23a1.84,1.84,0,0,0,1.5-.79l.57.31a2.47,2.47,0,0,1-2.07,1.08A2.71,2.71,0,0,1,54.6,20.77Z"/><path class="cls-1" d="M66.18,23.49V21H63v2.48h-.67V18.06H63V20.4h3.17V18.07h.67v5.42Z"/><path class="cls-1" d="M70.16,23.49V18.07h3.55v.6H70.84v1.75h2.82V21H70.83v1.87h2.88v.6Z"/><path class="cls-1" d="M80,23.49l-1.37-2.15H77.49v2.15h-.68V18.07H79a1.59,1.59,0,0,1,1.7,1.64,1.49,1.49,0,0,1-1.41,1.57l1.46,2.21Zm0-3.78a1,1,0,0,0-1.09-1H77.49v2.07h1.42A1,1,0,0,0,80,19.71Z"/><path class="cls-1" d="M83.8,23.49V18.07h3.55v.6H84.47v1.74h2.82V21H84.47v1.87h2.88v.61Z"/><path class="cls-1" d="M90.13,22.73l.4-.52a2.23,2.23,0,0,0,1.7.78c1,0,1.28-.52,1.28-.94,0-1.4-3.21-.62-3.21-2.55,0-.89.8-1.51,1.87-1.51a2.56,2.56,0,0,1,1.92.76l-.41.5a2,2,0,0,0-1.57-.65c-.64,0-1.11.35-1.11.86,0,1.22,3.21.52,3.21,2.54,0,.78-.54,1.6-2,1.6A2.66,2.66,0,0,1,90.13,22.73Z"/><path class="cls-1" d="M26.42,13.55l-1,1a2,2,0,0,1-2.8,0l-2-1.92a2,2,0,0,1,0-2.79l4.81-4.89a2,2,0,0,1,2.79,0l1.95,1.92a2,2,0,0,1,0,2.79l-1,1a.44.44,0,0,0,0,.62l4.27,4.19a.43.43,0,0,0,.66-.06,9,9,0,0,0,1.66-5.12,10,10,0,0,0-10-10h0s0,0,0,0,0,0,0,0h0a10,10,0,0,0-9.93,10C16,14,18.6,17,21.17,18.8a10.52,10.52,0,0,1,4.12,5.28c.36,1,1,1,1.36,0a10.52,10.52,0,0,1,4.12-5.28l.52-.38a.43.43,0,0,0,0-.65L27,13.54A.43.43,0,0,0,26.42,13.55Z"/><polygon class="cls-1" points="16.54 18.02 16.34 20.07 18.16 19.12 16.58 20.43 18.54 21.05 16.5 20.86 17.44 22.68 16.13 21.1 15.51 23.05 15.7 21.01 13.88 21.95 15.46 20.65 13.51 20.03 15.55 20.22 14.61 18.4 15.91 19.98 16.54 18.02"/><path class="cls-1" d="M13.48,13.29a.52.52,0,0,0-.44.24H11.63l.58-.33.1,0a.36.36,0,1,0-.25-.44.81.81,0,0,0,0,.15l-1,.58H9.58l.82-.68a.23.23,0,0,0,.11,0,.36.36,0,1,0-.32-.39.38.38,0,0,0,0,.15l-1.08.89H7.27l.8-.94,1.14-.25.08.07a.35.35,0,0,0,.49-.11.36.36,0,0,0-.11-.5.37.37,0,0,0-.49.11.3.3,0,0,0,0,.15l-.74.16L9.5,10.91l1-.22.08.07a.36.36,0,1,0,.38-.6.35.35,0,0,0-.49.11.34.34,0,0,0-.05.14l-.62.14L10.9,9.26H11a.52.52,0,0,0,0-1,.52.52,0,0,0-.53.52.58.58,0,0,0,0,.19l-1,1.14L9.63,9l.1,0a.36.36,0,0,0,0-.51.35.35,0,0,0-.5,0,.34.34,0,0,0,0,.5L9.34,9l-.12,1.4h0l-.86,1L8.31,10.3l.09-.07a.37.37,0,0,0,0-.51.36.36,0,0,0-.51,0,.35.35,0,0,0,0,.5.46.46,0,0,0,.13.08l.11,1.39h0l-1.27,1.5-.19-.89.58-1.11h.1a.36.36,0,0,0,.24-.45.37.37,0,0,0-.46-.24A.38.38,0,0,0,6.9,11a.57.57,0,0,0,.08.13l-.4.78-.35-1.6.58-1.12.11,0a.37.37,0,1,0-.37-.1l-.41.8L5.66,7.63a.53.53,0,1,0-.49.14L5.5,9.31,5,8.78a.22.22,0,0,0,0-.11A.36.36,0,1,0,4.62,9a.33.33,0,0,0,.15,0l.84.84.29,1.35-.79-.57v-.11a.37.37,0,0,0-.42-.3.36.36,0,0,0,.12.71A.35.35,0,0,0,5,10.86l1,.75.38,1.75L5.49,13v0l-.74-1.2,0-.1a.36.36,0,0,0-.27-.43.35.35,0,1,0-.16.69.26.26,0,0,0,.15,0l.52.83-1.73-.81L2.77,11a.3.3,0,0,0,0-.1.36.36,0,0,0-.26-.43.36.36,0,0,0-.43.27.35.35,0,0,0,.26.43h.15l.3.48L1.34,11a.51.51,0,0,0-.52-.45.52.52,0,1,0,0,1,.5.5,0,0,0,.34-.12l1.44.68-1.12.29s-.05-.06-.08-.07A.36.36,0,1,0,1,13a.36.36,0,0,0,.49-.12.44.44,0,0,0,.05-.15l1.36-.34,0-.07,1.16.55-.94.41L3,13.19a.36.36,0,0,0-.46.2.37.37,0,0,0,.2.47.37.37,0,0,0,.47-.2.39.39,0,0,0,0-.15L4.42,13l1.75.83-1,.46L4,14a.29.29,0,0,0,0-.1.36.36,0,0,0-.62.36.36.36,0,0,0,.49.13A.57.57,0,0,0,4,14.26l.81.22-1.46.68-1.21-.32a.42.42,0,0,0,0-.1.36.36,0,1,0,0,.39l.86.22-1.83.87a.48.48,0,0,0-.35-.14.53.53,0,0,0,0,1.05.54.54,0,0,0,.52-.43l1.27-.6-.4.63H2a.35.35,0,0,0-.27.43.35.35,0,0,0,.42.27A.36.36,0,0,0,2.46,17a.61.61,0,0,0-.07-.14l.64-1,1.27-.59-.4.92-.11,0a.36.36,0,1,0,.39.08l.51-1.21,1.69-.79-.21.91-1,.94-.1,0a.36.36,0,1,0,0,.71.37.37,0,0,0,.38-.34.32.32,0,0,0,0-.14l.73-.66-.39,1.74-.88.78-.1,0a.36.36,0,1,0,0,.72A.37.37,0,0,0,5,18.58a.37.37,0,0,0,0-.15l.56-.5-.35,1.54a.53.53,0,0,0-.39.51.52.52,0,0,0,.52.52A.52.52,0,0,0,5.87,20a.57.57,0,0,0-.16-.38L6,18.37l.4.89-.06.09a.36.36,0,1,0,.67.26.35.35,0,0,0-.2-.46.44.44,0,0,0-.15,0L6.09,17.9l.27-1.22.54.81a.42.42,0,0,0,0,.1.36.36,0,1,0,.43-.28.42.42,0,0,0-.16,0l-.68-1,.43-1.91.65.78.07,1.29a.27.27,0,0,0-.08.07.36.36,0,0,0,0,.51.35.35,0,0,0,.5,0,.36.36,0,0,0,0-.51.33.33,0,0,0-.13-.07l0-.88L9,16.88,9,18l-.09.07a.36.36,0,1,0,.51,0A.42.42,0,0,0,9.31,18l0-.71,1.15,1.4a.54.54,0,0,0,0,.19.52.52,0,0,0,.52.52.52.52,0,0,0,.53-.52.53.53,0,0,0-.53-.53h-.1l-1-1.17,1,.25a.42.42,0,0,0,0,.1.36.36,0,1,0,0-.39l-1.34-.34-.81-1,1,.09a.24.24,0,0,0,.06.09.36.36,0,0,0,.5,0,.37.37,0,0,0,0-.51.36.36,0,0,0-.51,0,.27.27,0,0,0-.09.12l-1.31-.12L7.26,14h1.2l.79.72a.2.2,0,0,0,0,.11.34.34,0,0,0,.37.34.36.36,0,0,0,0-.72l-.15,0L8.89,14h1.54l.92.84a.36.36,0,0,0,0,.11.36.36,0,1,0,.34-.38.33.33,0,0,0-.14,0L10.86,14H13a.53.53,0,0,0,.48.3.52.52,0,0,0,.52-.52A.52.52,0,0,0,13.48,13.29Z"/></svg>