<svg id="Calque_1" data-name="Calque 1" xmlns="http://www.w3.org/2000/svg" viewBox="0 0 479 87"><defs><style>.cls-1{fill:#fff;}</style></defs><title>logo_noel_2108_blanc</title><path class="cls-1" d="M474.45,34.84a.8.8,0,0,0-.69.1c-.87-.08-2.24-.34-2.75-1.11a6.65,6.65,0,0,0-2.07-2.28l-.16-.44a8.73,8.73,0,0,0,.74-3.53c1.47-2.31.63-5.74.49-4.17a9.6,9.6,0,0,1-.66,2.43,15.9,15.9,0,0,0-1.48-4.75c-.25-.48-1.29-1.78-.5.05.71,1.67,1.32,4.94,1,5.7s-1.47.27-2.08-.79a9.6,9.6,0,0,0-1.14-3.19A14.27,14.27,0,0,0,464,20.23c-.38-.5-.57-.59,0,1.23a9.15,9.15,0,0,0-2.48-1.29c-1.27-.57-1.45.4-.47.48s2,1,3.11,2.48a7.43,7.43,0,0,1,1,2.18c0,.15,0,.25-.09.29a4.74,4.74,0,0,1-3-.05c-.08,0-.23-.1-.31-.09a20.68,20.68,0,0,0-2.83-4c-1.35-1.51-1.15-.25-.16.62a15.41,15.41,0,0,1,2.41,3.58,2.67,2.67,0,0,1-2,.39c-.95-.36-1.68-1.05-1.78-.67s1.35,1.79,3.22,1.37a8.27,8.27,0,0,1,1-.12,1.29,1.29,0,0,1,.12.67c-.18.69-1.85.6-3.44-.1s-3.52-3.39-3.92-4.26-1.75-2.14-.21,1a8.52,8.52,0,0,0,6.36,4.87,10.53,10.53,0,0,1,4.2,1,3.34,3.34,0,0,1,1,1.63l-.13,0c-.39.2-.66.27-1,.47a3.41,3.41,0,0,0-1.68,0c-.86.26-.85.56-1.35.86,0,0,.83,1.41,3,.57,0,0,.67,1.39-.1,4.36a8,8,0,0,1-2.63,3.94c-1.77,1.57-4.06,2.83-7,1.73a6.68,6.68,0,0,0-6,.34,1.72,1.72,0,0,0-1.16-.59c-.32,0-.65.28-1,.33a2.49,2.49,0,0,1-1.08-.12,2.4,2.4,0,0,0,.93,1.77,1.32,1.32,0,0,0,1.16.14l.47,0a4.64,4.64,0,0,0-.43,1c-5,.24-10.51.55-17,.86.66-1.44,1.38-3,.53-8-.35-2,3.23-.44,4.14-.67a3.16,3.16,0,0,0,1.27-1.08l.13.06a.79.79,0,0,0,1-.49.78.78,0,0,0-.48-1h0a.77.77,0,0,0-.69.1c-.87-.09-2.24-.34-2.76-1.11a6.32,6.32,0,0,0-2.07-2.29h0a8.82,8.82,0,0,0,1.06-3.55c1.65-2.19,1.08-5.67.82-4.12a9.86,9.86,0,0,1-.85,2.37,15.9,15.9,0,0,0-1.1-4.85c-.21-.5-1.14-1.88-.51,0,.57,1.67.91,4.83.61,5.68l-.06-.28-.54-1.49c-.15-.39-.17-.67-.4-.59s-.28.46-.12.9l.36,1a2.44,2.44,0,0,0,.49.84c-.5.31-1.33-.31-1.76-1.23a9.64,9.64,0,0,0-.89-3.28,14.7,14.7,0,0,0-1-2.71c-.34-.54-.52-.64-.09,1.23a9.17,9.17,0,0,0-2.38-1.49c-1.22-.67-1.48.28-.5.44s1.91,1.14,2.9,2.71a7.64,7.64,0,0,1,.79,2.25c0,.16,0,.25-.12.28a4.69,4.69,0,0,1-3-.28c-.08,0-.22-.12-.3-.11a21.74,21.74,0,0,0-2.51-4.23c-1.23-1.61-1.12-.33-.21.61a15.3,15.3,0,0,1,2.19,3.72,2.63,2.63,0,0,1-2,.23c-.92-.43-1.6-1.18-1.73-.81s1.21,1.89,3.11,1.63a6.7,6.7,0,0,1,1,0,1.22,1.22,0,0,1,.07.68c-.23.68-1.9.45-3.42-.38s-3.24-3.65-3.57-4.55-1.57-2.27-.29,1a9.34,9.34,0,0,0,1.06,2l-1.5-.21c-.4-.06-.67-.17-.7.07s.27.47.74.53l1,.15a2.32,2.32,0,0,0,.83,0,7.85,7.85,0,0,0,4.49,2.86,10.84,10.84,0,0,1,4.11,1.32,3.39,3.39,0,0,1,.91,1.6l-.26.1c-.39.19-.66.27-1,.46a3.37,3.37,0,0,0-1.91-.2c-.86.26-.91.65-1.12,1.08,0,0,.83,1.41,3,.58,0,0,.67,1.39-.1,4.36a8,8,0,0,1-2.63,3.93c-1.77,1.58-4.06,2.83-7,1.74a6.62,6.62,0,0,0-6,.34,1.72,1.72,0,0,0-1.16-.59c-.32,0-.65.28-1,.32a2.37,2.37,0,0,1-1-.19,2.34,2.34,0,0,0,.93,1.77,1.32,1.32,0,0,0,1.16.14h.47a5.57,5.57,0,0,0-.61,1.57c-6.48.19-12.33.29-17.85.39.58-1.33,1-3.06.29-7.45-.35-2,3.23-.44,4.14-.68.45-.11.88-.63,1.27-1.07l.12,0a.77.77,0,0,0,1-.48.79.79,0,0,0-.49-1h0a.75.75,0,0,0-.68.09c-.88-.08-2.25-.33-2.76-1.1a5.83,5.83,0,0,0-2.38-2.44h0a8.6,8.6,0,0,0,1-3.51c1.65-2.18,1.08-5.67.82-4.11a9.86,9.86,0,0,1-.85,2.37,16,16,0,0,0-1.1-4.86c-.21-.49-1.14-1.87-.51,0a15.11,15.11,0,0,1,.56,2.57v-.05l-1-1.23c-.26-.32-.38-.58-.57-.43s-.12.53.18.89l.66.82a2.35,2.35,0,0,0,.84.69,6.57,6.57,0,0,1-.05,2.5c-.4.84-1.5.17-2-.94a9.59,9.59,0,0,0-.89-3.27,13.86,13.86,0,0,0-1-2.72c-.33-.53-.52-.63-.09,1.23a9.17,9.17,0,0,0-2.38-1.49c-1.22-.67-1.48.28-.5.44s1.91,1.15,2.9,2.72a7.64,7.64,0,0,1,.79,2.25c0,.15,0,.25-.12.28a4.63,4.63,0,0,1-3-.29c-.08,0-.22-.11-.3-.1a21.25,21.25,0,0,0-2.51-4.23c-1.23-1.61-1.12-.34-.21.6A14.93,14.93,0,0,1,386,28.09a2.68,2.68,0,0,1-2,.22c-.92-.43-1.6-1.18-1.73-.8s1.21,1.89,3.11,1.62a6.7,6.7,0,0,1,1-.05,1.25,1.25,0,0,1,.07.69c-.23.67-1.9.45-3.43-.38s-3.23-3.66-3.56-4.56-1.57-2.26-.29,1a10.38,10.38,0,0,0,1,1.82h0l-1.64-.21c-.41-.06-.67-.17-.71.07s.28.47.74.54l1,.14a2.6,2.6,0,0,0,.88,0,8,8,0,0,0,4.62,3,10.43,10.43,0,0,1,4.15,1.25,3.48,3.48,0,0,1,1,1.8c-.39.2-.65.27-1,.46a3.37,3.37,0,0,0-1.91-.2c-.85.26-.9.65-1.11,1.08,0,0,.82,1.41,3,.58,0,0,.67,1.38-.11,4.36a8,8,0,0,1-2.62,3.93c-1.77,1.58-4.06,2.83-7,1.74a6.65,6.65,0,0,0-6,.34,1.66,1.66,0,0,0-1.15-.59c-.33,0-.65.28-1,.32a2.64,2.64,0,0,1-1.08-.11,2.42,2.42,0,0,0,.93,1.77,1.36,1.36,0,0,0,1.16.14h.48a4,4,0,0,0-.42.91l-2,.12c-1.23.08-2.55.12-3.94.13-7.68.06-17.7-.81-29-.74-2.19,0-4.43.07-6.71.18-.38-1.28-.32-2.19.46-2.76,1.64-1.2,2.13,1.3,2.13,1.3s.72.24,1.26-.86-1.12-4.57-4.6-3.55-4.82,5.35-5,6.05V49c-1.45.12-2.92.27-4.39.44h-.14a9.14,9.14,0,0,1-2.57-.64,3.93,3.93,0,0,0-.66-2.07,2.53,2.53,0,0,0-1.34-.4,1.92,1.92,0,0,0-.09-.32,4.2,4.2,0,0,0,1.72-2.73h.54a.88.88,0,0,0,.8-1v0c0-.45-.78-.9-.78-.9a2.62,2.62,0,0,0-.93-.53,4,4,0,0,0-.61-.92s.16-.66,0-.86l-1-1.59a1.13,1.13,0,0,0-.1-.13h0a4.31,4.31,0,0,0-3.32-.73,11.44,11.44,0,0,0-6.51.6c-1.85.6-4.86,3.3-6.14.38a1.39,1.39,0,1,0-.14,0c.53,7.15,4.83,3.65,8,4.9l1,1.58a1,1,0,0,0,1,.33v.06a9,9,0,0,0-2.34,2.3l-2.73.28c-1.14,0-1.89-2.27-6.45-1.86-6.77.62-7.9,3.14-6.11,3,12.3-1.12-.79,15.24,11.06,16.17l-2.4,4.89-6.13.59a1.44,1.44,0,0,1-1.14-.34A1.06,1.06,0,0,1,293,68h0a.7.7,0,0,1,.35-.23,1.41,1.41,0,0,0,2.82-.16,1.42,1.42,0,0,0-1.43-1.33,1.31,1.31,0,0,0-.52.11A2.26,2.26,0,0,0,291.26,69l0,.18a1.79,1.79,0,0,0,.23.72,3,3,0,0,0,2.65,1.44h.22l48.06-4.6a7.34,7.34,0,0,0,5.46-3.17c2.39-3.49,1.82-7.86-1.41-10.14a5.44,5.44,0,0,0-3.78-.89c-5.3.73-6.22,6-3.45,8.5a2.54,2.54,0,0,0,0,.39,1.46,1.46,0,1,0,2.91-.24,1.45,1.45,0,0,0-1.58-1.33,1.91,1.91,0,0,0-.33.06c-2-2-1.06-6,3.5-5.9a3.76,3.76,0,0,1,2,.64c2.51,1.81,2.92,5.28,1,8.09a5.92,5.92,0,0,1-4.4,2.53l-10.58,1-2.39-4.09,2.13-.19c4.68-.43,3.47-4.44,1.87-7.66-.92-1.87-1.73-3.43-2.24-4.71,2.16-.09,4.29-.14,6.37-.15,11.24-.08,21.24.79,29,.74,1.4,0,2.74-.05,4-.14l1.65-.1v.17c-.39,1.7.16,2.47-.91,3.11s-3.35,1.68-3.35,1.68l-1,3.76L366.27,61l-.08.3s-1.82-.28-2.2.48a16.11,16.11,0,0,0-.78,2.71s3.5-.89,4.15-1.94a14.31,14.31,0,0,0,1.08-3c.18-.63.37-1.21.48-1.53.25-.76.13-1.37,2.2-1.63.27,0,.57-.06.92-.09a6,6,0,0,0,2.27-.54,5.75,5.75,0,0,0,.65-.34c-.13.66-.24,1.15-.24,1.15L377,59.7l1.51,1.93.19.24s-1.32,1.29-.94,2.06a15.56,15.56,0,0,0,1.69,2.25s1.39-3.34.95-4.49a14.77,14.77,0,0,0-1.72-2.64l-.94-1.3c-.45-.66-1-.92,0-2.74.14-.24.3-.5.49-.79a6.44,6.44,0,0,0,.42-.72,19.17,19.17,0,0,0,7-.36l2.43-.89.22-.06,1-.09a6,6,0,0,1,2.16.11,2.19,2.19,0,0,1,.59.3,1.41,1.41,0,0,1,.35.46,5.68,5.68,0,0,1,.3,2,6.73,6.73,0,0,1-.37,1.94l-.11.45.65.39v.1l-.35.8a.68.68,0,0,0-.25.69,4.25,4.25,0,0,0,1.62,2,10.88,10.88,0,0,0,.45-3.41h0c0-.12.11-2,.1-3,0-.71-.21-2.26-.21-2.26V52c-.09-.68-.28-.68-.64-1,0,0-.76-.31-1.28-.5a5.13,5.13,0,0,1,1.39-.28,2,2,0,0,1,.64.11,1.18,1.18,0,0,1,.46.33,5.7,5.7,0,0,1,.8,1.8,6.41,6.41,0,0,1,.14,2v.47l.73.17v.11l-.12.88a.65.65,0,0,0-.07.73,4,4,0,0,0,2.08,1.44,11.21,11.21,0,0,0-.46-3.4h0c0-.13-.42-2-.68-2.88a20.59,20.59,0,0,0-.78-2.11l-.19-.63v0c4.43-.09,9.1-.18,14.16-.32-.21,1.37.14,2.06-.83,2.63s-3.35,1.68-3.35,1.68l-1,3.76-.64,2.36-.08.3s-1.82-.28-2.21.48a16.11,16.11,0,0,0-.78,2.71s3.5-.89,4.15-1.94a14.31,14.31,0,0,0,1.08-3c.19-.63.37-1.21.48-1.53.25-.76.13-1.36,2.2-1.63.27,0,.57-.06.93-.08a6.29,6.29,0,0,0,2.26-.54h0c-.22.91-.43,1.72-.43,1.72L414.42,59l1.41,2,.18.25s-1.38,1.21-1,2a14.91,14.91,0,0,0,1.58,2.33s1.55-3.26,1.16-4.43a15.27,15.27,0,0,0-1.67-2.69c-.37-.55-.69-1.06-.87-1.35-.42-.68-1-1,.16-2.73.14-.23.31-.48.52-.77a5.86,5.86,0,0,0,.95-1.82,19.18,19.18,0,0,0,7.16-.33,4.3,4.3,0,0,0,1.14.85,39.86,39.86,0,0,1,3.17,3.33,2.28,2.28,0,0,0-.36,1h-.1l-.8.19a.63.63,0,0,0-.66.2,4.08,4.08,0,0,0-.39,2.43,11.3,11.3,0,0,0,2.58-1.88s.46.19,1.08-.34a21.83,21.83,0,0,1,2.32,4.1l.44-.18.05.63a.59.59,0,0,0,.09.68,4,4,0,0,0,2.33.81,9.42,9.42,0,0,0-1.21-3h0a2.21,2.21,0,0,0-.47-1,26.14,26.14,0,0,0-2.1-3.42c.59-.59,1.21-1.23,1.59-1.68A6.85,6.85,0,0,0,434.13,51a1.46,1.46,0,0,0-.11-.74c-.46-1-3.33-.92-5.87-.4A9,9,0,0,0,430.3,48c6.6-.32,12.21-.63,17.28-.87v.12c-.38,1.71.16,2.48-.91,3.11s-3.35,1.69-3.35,1.69l-1,3.75-.64,2.37-.08.3s-1.82-.29-2.21.48a16,16,0,0,0-.78,2.7s3.5-.89,4.15-1.94a14.31,14.31,0,0,0,1.08-3c.19-.63.37-1.21.48-1.53.25-.75.13-1.36,2.2-1.63l.75-.07L447,55.78l-.31,2.43v.31s-1.84,0-2.12.78a15.53,15.53,0,0,0-.4,2.78s3.34-1.36,3.85-2.49a14.7,14.7,0,0,0,.66-3.08c.09-.65.2-1.25.26-1.58.15-.78-.06-1.37,2-1.92l.9-.21a6.11,6.11,0,0,0,3.58-2.06,18.57,18.57,0,0,0,5.85-.46,4.38,4.38,0,0,0,2.2,1.22,3,3,0,0,1,0,.73,1.66,1.66,0,0,1-.19.62,1,1,0,0,1-.37.41,4.78,4.78,0,0,1-1.76.56,5.58,5.58,0,0,1-1.82-.12h-.43l-.26.7h-.1l-.79-.24a.63.63,0,0,0-.66-.17,4.12,4.12,0,0,0-1.61,1.87,9.43,9.43,0,0,0,3.18,0h0a25.2,25.2,0,0,0,2.74-.29,17.2,17.2,0,0,0,2-.5L464,55c.6-.18.58-.37.79-.76,0,0,.27-1.19.34-1.65a6,6,0,0,0,0-1.2,18.46,18.46,0,0,1,3.35-1c.46,0,.68.15.6.47-.24.88-2.57,3.1-3.39,3.53-.34.17-.44.69-.52,1.15h-.1l-.8.2a.61.61,0,0,0-.65.2,3.91,3.91,0,0,0-.61,2.53,11.87,11.87,0,0,0,2.57-1.88s.5.21,1.17-.42,2.22-2.16,2.94-3A6.85,6.85,0,0,0,471.11,50a1.41,1.41,0,0,0-.11-.73c-.46-1-3.33-.93-5.87-.4a7.5,7.5,0,0,0,2.57-2.5c.16-.35.33-.7.49-1.09l.36-1.15a15.38,15.38,0,0,0-.17-6.08c-.35-2,3.23-.45,4.14-.68a3.16,3.16,0,0,0,1.27-1.08.31.31,0,0,0,.13.06.77.77,0,1,0,.49-1.47Zm-9.12-6.18c-.54.27-1.88-.42-2.44-.84-.2-.43-.39-.83-.59-1.22a9.21,9.21,0,0,1,3.19.64c.08.75,0,1.32-.16,1.42ZM317.8,49.84a8.85,8.85,0,0,0,2.59.58h.23c1.33-.16,2.65-.29,4-.4h0c-1.18,2.72-3.87,4.15-5.94,3.19C317.43,52.65,317.71,51.32,317.8,49.84ZM330,66.44l-27.68,2.65,2.29-4.68a6.35,6.35,0,0,0,1.14-.07l21.86-2Zm60-35c-.56.24-1.84-.55-2.37-1q-.24-.66-.48-1.26a9.16,9.16,0,0,1,3.12.89C390.26,30.77,390.17,31.33,390,31.44Zm1.56,2a1.36,1.36,0,0,0-.08.63h-.21l-.45-1.29a13.32,13.32,0,0,0,.38-2,4.11,4.11,0,0,1,.45.38,3.6,3.6,0,0,1-.13,2.2Zm.5.66.23-1.12.28-.63s.2-.36.36-.36.16.08.16.36a7,7,0,0,1-.27,1.29,2.36,2.36,0,0,1-.28.52Zm39.2,17.34c.46,0,.68.15.6.47a8,8,0,0,1-2,2.42c-.57-.69-1.17-1.35-1.78-2A17.45,17.45,0,0,1,431.26,51.44Zm-2.61-21.69c-.56.23-1.84-.56-2.37-1q-.24-.66-.48-1.26a9.16,9.16,0,0,1,3.12.89c0,.75-.06,1.31-.27,1.39Zm1.55,2a1.69,1.69,0,0,0-.08.5h-.24l-.41-1.15a13.32,13.32,0,0,0,.38-2,4.19,4.19,0,0,1,.45.39,3.54,3.54,0,0,1-.1,2.23ZM467,30.44a1.19,1.19,0,0,0,0,.7h-.21l-.56-1.29a14.23,14.23,0,0,0,.21-2.07,4.29,4.29,0,0,1,.48.36A3.56,3.56,0,0,1,467,30.44Zm1.33,0c-.19.63-.08.92-.82.78h-.09a10.72,10.72,0,0,0,.42-1.78c.05-.54.67-1.42,1-.4.16.4-.37,1.14-.47,1.4Z"/><path class="cls-1" d="M85.61,51.82l0-46.38h8.14V44.66h20.44v7.16Z"/><path class="cls-1" d="M118.09,35c0-9.66,6.54-17.58,17.25-17.58s17.24,7.94,17.24,17.6S146,52.68,135.33,52.67,118.09,44.6,118.09,35ZM145,35c0-5.91-3.4-11.13-9.66-11.13s-9.67,5.21-9.67,11.12,3.47,11.19,9.66,11.2S145,41,145,35Z"/><path class="cls-1" d="M159.19,9.64a4.52,4.52,0,1,1,4.52,4.53,4.53,4.53,0,0,1-4.52-4.53ZM160,51.85V18.27h7.31V51.86Z"/><path class="cls-1" d="M173.92,47.44l3.34-5.21a17.21,17.21,0,0,0,11.33,4.66c4.38,0,6.68-1.81,6.68-4.45,0-6.6-20.31-1.89-20.3-14.82,0-5.52,4.73-10.18,13.22-10.18a19.23,19.23,0,0,1,13,4.66l-3.07,5.15a13.69,13.69,0,0,0-9.94-4c-3.82,0-6.19,1.8-6.19,4.17,0,5.91,20.31,1.47,20.3,14.82,0,6-4.94,10.49-14,10.49C182.54,52.7,177.39,50.82,173.92,47.44Z"/><path class="cls-1" d="M208.77,9.67a4.52,4.52,0,1,1,4.52,4.52,4.52,4.52,0,0,1-4.52-4.52Zm.81,42.21V18.29h7.3V51.88Z"/><path class="cls-1" d="M226.34,51.88V18.3h7.3v4.87c2.57-3.2,6.6-5.7,10.92-5.7V24.7a11.76,11.76,0,0,0-2.22-.21c-3.13,0-7.24,2.09-8.7,4.52V51.89Z"/><path class="cls-1" d="M247.62,47.44,251,42.23a17.21,17.21,0,0,0,11.33,4.66c4.38,0,6.68-1.8,6.68-4.44,0-6.61-20.31-1.89-20.3-14.82,0-5.5,4.73-10.15,13.22-10.15a19.18,19.18,0,0,1,13,4.67l-3.06,5.14a13.71,13.71,0,0,0-9.95-4c-3.82,0-6.19,1.81-6.19,4.17,0,5.91,20.31,1.47,20.3,14.82,0,6-4.94,10.5-14,10.5C256.24,52.73,251.09,50.85,247.62,47.44Z"/><path class="cls-1" d="M86,82V63H98.4v2.1h-10v6.16h9.86v2.11H88.33v6.54H98.39V82Z"/><path class="cls-1" d="M122.65,82l-11-15.13V82h-2.36V63h2.42l10.9,14.81V63H125V82Z"/><path class="cls-1" d="M135.7,72.54a9.5,9.5,0,0,1,9.17-9.8h.58a8.42,8.42,0,0,1,7.19,3.76l-2,1.1a6.39,6.39,0,0,0-5.23-2.75c-4.15,0-7.3,3.15-7.3,7.69s3.15,7.7,7.3,7.71a6.46,6.46,0,0,0,5.23-2.76l2,1.08a8.5,8.5,0,0,1-7.22,3.78,9.47,9.47,0,0,1-9.72-9.23A5.61,5.61,0,0,1,135.7,72.54Z"/><path class="cls-1" d="M176.22,82V73.33H165.14V82h-2.36V63h2.36v8.16h11.09V63.07h2.36V82Z"/><path class="cls-1" d="M190.12,82V63h12.41v2.1H192.48v6.11h9.86v2.2h-9.86V80h10.06V82Z"/><path class="cls-1" d="M224.36,82.05l-4.8-7.54h-3.81V82h-2.36v-19H221c3.47,0,6,2.22,6,5.72a5.26,5.26,0,0,1-5,5.51h0l5.11,7.73Zm.18-13.25a3.55,3.55,0,0,0-3.46-3.62h-5.35v7.25h5a3.57,3.57,0,0,0,3.8-3.34C224.54,69,224.54,68.9,224.54,68.8Z"/><path class="cls-1" d="M237.8,82.05v-19h12.42v2.1H240.17v6.11H250v2.18h-9.86V80H250.2v2.1Z"/><path class="cls-1" d="M259.94,79.44l1.42-1.82a7.76,7.76,0,0,0,5.94,2.73c3.38,0,4.46-1.81,4.46-3.29,0-4.89-11.22-2.16-11.22-8.93,0-3.12,2.79-5.28,6.54-5.28a9,9,0,0,1,6.7,2.67l-1.42,1.74A7.18,7.18,0,0,0,266.88,65c-2.25,0-3.89,1.22-3.9,3,0,4.26,11.23,1.83,11.22,8.9,0,2.73-1.87,5.57-7,5.57A9.38,9.38,0,0,1,259.94,79.44Z"/><path class="cls-1" d="M37.2,47.26l-3.35,3.41a6.92,6.92,0,0,1-9.77.08L17.25,44a6.92,6.92,0,0,1-.07-9.77L34,17.17a6.94,6.94,0,0,1,9.77-.08l6.82,6.72a6.92,6.92,0,0,1,.08,9.77L47.32,37a1.51,1.51,0,0,0,0,2.14L62.25,53.8a1.51,1.51,0,0,0,2.14,0,1.84,1.84,0,0,0,.17-.22,31.62,31.62,0,0,0,5.79-17.9A35,35,0,0,0,35.48.66h0a35.17,35.17,0,0,0-34.73,35c0,13,9.09,23.69,18.09,30A37.08,37.08,0,0,1,33.25,84.1c1.25,3.47,3.47,3.47,4.73,0A37,37,0,0,1,52.39,65.64c.61-.42,1.22-.86,1.82-1.32a1.52,1.52,0,0,0,.29-2.13L54.36,62l-15-14.78a1.51,1.51,0,0,0-2.14,0Z"/></svg>