<svg xmlns="http://www.w3.org/2000/svg" width="24.143" height="15.466" viewBox="0 0 24.143 15.466"><defs><style>.a{fill:#b9bbc1;}.b{fill:#8b8996;}.c{fill:#53dcff;}.d{fill:#5c546a;}.e{fill:#fff;}</style></defs><g transform="translate(0 -92)"><g transform="translate(7.609 92)"><path class="a" d="M162.81,92a1.512,1.512,0,0,0-1.423,1.006.377.377,0,0,0,.23.481.37.37,0,0,0,.363-.071l1.584,1.9v.453a.377.377,0,1,0,.754,0V93.509A1.511,1.511,0,0,0,162.81,92Z" transform="translate(-161.366 -92)"/></g><g transform="translate(1.231 92.754)"><path class="b" d="M32.793,108a2.632,2.632,0,0,0-1.854.763l-4.837,5.28.556.509.131-.143,7.89,2.163v.1a.377.377,0,1,0,.754,0v-6.036A2.644,2.644,0,0,0,32.793,108Z" transform="translate(-26.102 -108)"/></g><g transform="translate(13.58 92)"><path class="a" d="M289.509,92a1.512,1.512,0,0,1,1.423,1.006.377.377,0,0,1-.23.481.37.37,0,0,1-.363-.071l-1.584,1.9v.453a.377.377,0,1,1-.754,0V93.509A1.51,1.51,0,0,1,289.509,92Z" transform="translate(-288 -92)"/></g><g transform="translate(13.58 92.754)"><path class="b" d="M290.641,108a2.632,2.632,0,0,1,1.854.763l4.837,5.28-.556.51-.131-.143-7.89,2.163v.1a.377.377,0,1,1-.754,0v-6.036A2.644,2.644,0,0,1,290.641,108Z" transform="translate(-288 -108)"/></g><g transform="translate(1.242 98.211)"><ellipse class="c" cx="4.5" cy="5" rx="4.5" ry="5" transform="translate(-0.242 -1.211)"/></g><g transform="translate(0 96.904)"><path class="d" d="M5.281,196a5.281,5.281,0,1,0,5.281,5.281A5.287,5.287,0,0,0,5.281,196Zm0,9.053a3.772,3.772,0,1,1,3.772-3.772A3.777,3.777,0,0,1,5.281,205.053Z" transform="translate(0 -196)"/></g><g transform="translate(8.995 97.28)"><path class="d" d="M190.828,203.984h6.094a3.949,3.949,0,0,0-1.19,2.83v1.32H191.96v-1.32a3.949,3.949,0,0,0-1.19-2.83" transform="translate(-190.77 -203.983)"/></g><g transform="translate(4.969 100.695)"><circle class="e" cx="1" cy="1" r="1" transform="translate(0.031 0.305)"/></g><g transform="translate(14.906 98.211)"><ellipse class="c" cx="4" cy="5" rx="4" ry="5" transform="translate(0.094 -1.211)"/></g><g transform="translate(13.58 96.904)"><path class="d" d="M293.281,196a5.281,5.281,0,1,0,5.281,5.281A5.287,5.287,0,0,0,293.281,196Zm0,9.053a3.772,3.772,0,1,1,3.772-3.772A3.777,3.777,0,0,1,293.281,205.053Z" transform="translate(-288 -196)"/></g><g transform="translate(18.632 100.695)"><circle class="e" cx="1" cy="1" r="1" transform="translate(0.368 0.305)"/></g><g transform="translate(8.695 96.969)"><rect class="b" width="6" transform="translate(0.305 0.031)"/></g></g></svg>