<?xml version="1.0" encoding="UTF-8"?>
<svg width="306px" height="255px" viewBox="0 0 306 255" version="1.1" xmlns="http://www.w3.org/2000/svg" xmlns:xlink="http://www.w3.org/1999/xlink">
    <!-- Generator: Sketch 55.2 (78181) - https://sketchapp.com -->
    <title>undraw_order_confirmed_1m3v 3</title>
    <desc>Created with Sketch.</desc>
    <defs>
        <linearGradient x1="50.4587156%" y1="63.0927314%" x2="50.4587156%" y2="37.0927314%" id="linearGradient-1">
            <stop stop-color="#808080" stop-opacity="0.25" offset="0%"></stop>
            <stop stop-color="#808080" stop-opacity="0.12" offset="54%"></stop>
            <stop stop-color="#808080" stop-opacity="0.1" offset="100%"></stop>
        </linearGradient>
        <linearGradient x1="50.0034295%" y1="99.9870012%" x2="50.0034295%" y2="-0.000177370511%" id="linearGradient-2">
            <stop stop-color="#808080" stop-opacity="0.25" offset="0%"></stop>
            <stop stop-color="#808080" stop-opacity="0.12" offset="54%"></stop>
            <stop stop-color="#808080" stop-opacity="0.1" offset="100%"></stop>
        </linearGradient>
    </defs>
    <g id="Product" stroke="none" stroke-width="1" fill="none" fill-rule="evenodd">
        <g id="Product.1.0.6" transform="translate(-35.000000, -113.000000)" fill-rule="nonzero">
            <g id="Group-2" transform="translate(15.000000, 40.000000)">
                <g id="undraw_order_confirmed_1m3v-3" transform="translate(20.000000, 73.000000)">
                    <g id="undraw_order_confirmed_1m3v-2" transform="translate(0.000000, -0.000000)">
                        <g id="undraw_order_confirmed_1m3v">
                            <path d="M177.834125,34.020178 C158.245282,33.3391691 139.588665,27.0163798 121.773472,20.0973294 C103.958279,13.1782789 86.3125816,5.51163205 67.1928783,1.8462908 C54.8953709,-0.511513353 40.8302671,-0.844451039 30.9238576,5.74771513 C21.3867062,12.1037982 18.3055193,23.0453412 16.649911,33.2090208 C15.402908,40.8544807 14.6704451,48.9024926 18.0845697,56.0576261 C20.4575074,61.0274777 24.6646291,65.2043323 27.5763205,69.9653412 C37.7067062,86.5274777 30.5455193,106.951691 19.5706825,123.123383 C14.4252819,130.711335 8.44753709,137.954243 4.47347181,146.023442 C0.499406528,154.092641 -1.33780415,163.351335 2.13988131,171.59003 C5.584273,179.762136 13.795727,185.88819 22.6912166,190.201246 C40.7576261,198.963561 62.0383976,201.469674 82.8046291,202.889199 C128.75911,206.033947 174.955727,204.671929 221.031276,203.309911 C238.083739,202.804451 255.208843,202.292938 271.982849,199.656677 C281.29905,198.191751 290.914896,195.870267 297.679585,190.258754 C306.263323,183.136914 308.391098,171.078516 302.637329,162.146706 C292.98819,147.167537 266.316855,143.447715 259.564273,127.372878 C255.853531,118.522789 259.664154,108.667834 265.060772,100.459407 C276.634896,82.8560831 296.033056,67.4108012 297.053056,47.2892582 C297.755252,33.4693175 288.42997,19.6281899 274.010742,13.0874777 C258.898398,6.23501484 237.938457,7.09459941 226.794125,18.4417211 C215.307774,30.1248071 195.131751,34.6194659 177.834125,34.020178 Z" id="Path" fill="#188CFF" opacity="0.1"></path>
                            <ellipse id="Oval" fill="#188CFF" opacity="0.1" cx="146.64089" cy="236.685401" rx="92.0027893" ry="12.445816"></ellipse>
                            <rect id="Rectangle" fill="#3A3768" x="194.859347" y="88.0226706" width="2.68166172" height="22.1010089" rx="1.34083086"></rect>
                            <rect id="Rectangle" fill="#3A3768" x="105.744036" y="70.7068843" width="1.504273" height="7.27620178" rx="0.752136499"></rect>
                            <rect id="Rectangle" fill="#3A3768" x="105.689555" y="84.0304451" width="1.69495549" height="12.6637389" rx="0.847477745"></rect>
                            <rect id="Rectangle" fill="#3A3768" x="105.716795" y="101.125282" width="1.61323442" height="12.7727003" rx="0.806617211"></rect>
                            <rect id="Rectangle" fill="#3A3768" x="106.59454" y="46.66273" width="89.7115727" height="182.325757" rx="38.99"></rect>
                            <path d="M183.651454,51.3995252 L173.360653,51.3995252 L173.360653,52.6374481 C173.360653,54.193668 172.74224,55.6861051 171.641543,56.7862349 C170.540845,57.8863647 169.048089,58.5040078 167.491869,58.5032047 L134.764095,58.5032047 C133.207875,58.5040078 131.715119,57.8863647 130.614422,56.7862349 C129.513724,55.6861051 128.895311,54.193668 128.895312,52.6374481 L128.895312,51.3995252 L119.261306,51.3995252 C115.326351,51.3995252 112.136439,54.5894366 112.136439,58.5243917 L112.136439,217.114718 C112.136439,219.00435 112.887093,220.816588 114.223264,222.152759 C115.559436,223.488931 117.371674,224.239585 119.261306,224.239585 L183.651454,224.239585 C187.586409,224.239585 190.776331,221.049673 190.776331,217.114718 L190.776331,58.5364985 C190.779535,56.6447697 190.030301,54.8294202 188.693781,53.4906289 C187.35726,52.1518376 185.543186,51.3995252 183.651454,51.3995252 Z" id="Path" fill="#188CFF"></path>
                            <rect id="Rectangle" fill="#E6E8EC" x="142.796973" y="52.1077745" width="12.5275371" height="2.54243323" rx="1.27121662"></rect>
                            <circle id="Oval" fill="#E6E8EC" cx="158.662967" cy="53.3789911" r="1.44373887"></circle>
                            <path d="M227.366172,38.6661721 C227.366172,38.6661721 201.881306,37.1286053 204.883798,54.9861721 C204.883798,54.9861721 204.278457,58.1430267 207.147774,59.5746588 C207.147774,59.5746588 207.193175,58.2519881 209.762849,58.7029674 C210.677705,58.8546159 211.607099,58.8993081 212.532285,58.8361424 C213.78036,58.7540967 214.967963,58.2686455 215.916142,57.4529377 L215.916142,57.4529377 C215.916142,57.4529377 223.080356,54.492819 225.864926,42.7855193 C225.864926,42.7855193 227.926113,40.2309792 227.844392,39.574184 L223.543442,41.4113947 C223.543442,41.4113947 225.014421,44.5137685 223.846113,47.0925223 C223.846113,47.0925223 223.706884,41.5233828 222.880593,41.644451 C222.714125,41.6686647 220.646884,42.7189318 220.646884,42.7189318 C220.646884,42.7189318 223.174184,48.1216024 221.267359,52.0502671 C221.267359,52.0502671 221.990742,45.3915134 219.856914,43.1093769 L216.830208,44.8769733 C216.830208,44.8769733 219.784273,50.4582196 217.780593,55.0134125 C217.780593,55.0134125 218.295134,48.0277745 216.191573,45.3067656 L213.449377,47.4466469 C213.449377,47.4466469 216.224866,52.9461721 214.532938,56.7235015 C214.532938,56.7235015 214.311988,48.5937685 212.856142,47.9793472 C212.856142,47.9793472 210.455964,50.0980415 210.089733,50.9636795 C210.089733,50.9636795 211.990504,54.9589318 210.810089,57.0655193 C210.810089,57.0655193 210.086706,51.6477151 209.493472,51.6174481 C209.493472,51.6174481 207.102374,55.2071217 206.854184,57.6708605 C206.854184,57.6708605 206.957092,54.0115727 208.915371,51.278457 C208.915371,51.278457 206.602967,51.6749555 205.253056,53.1731751 C205.253056,53.1731751 205.625341,50.6367953 209.505579,50.412819 C209.505579,50.412819 211.482018,47.6887834 212.008665,47.5253412 C212.008665,47.5253412 208.152641,47.2014837 205.812997,48.2396439 C205.812997,48.2396439 207.871157,45.8455193 212.716914,46.9351335 L215.425816,44.7226113 C215.425816,44.7226113 210.347003,44.0294955 208.191988,44.7952522 C208.191988,44.7952522 210.670861,42.6765579 216.155252,44.220178 L219.103264,42.458635 C219.103264,42.458635 214.772047,41.5264095 212.193294,41.8532938 C212.193294,41.8532938 214.917329,40.3853412 219.968902,41.9773887 L222.087596,41.0300297 C222.087596,41.0300297 218.915608,40.4065282 217.986409,40.3066469 C217.057211,40.2067656 217.008783,39.9525223 217.008783,39.9525223 C219.018367,39.6174212 221.081529,39.8468943 222.968368,40.6153709 C222.968368,40.6153709 227.44184,38.9476558 227.366172,38.6661721 Z" id="Path" fill="#188CFF"></path>
                            <path d="M201.22451,30.724095 C201.22451,30.724095 189.723027,30.0309792 191.066884,38.100178 C191.066884,38.100178 190.797507,39.5257567 192.089911,40.1734718 C192.089911,40.1734718 192.111098,39.5681306 193.273353,39.7769733 C193.686176,39.8464505 194.105778,39.8667702 194.523383,39.8375074 C195.087953,39.8001838 195.624784,39.579073 196.051869,39.2079525 L196.051869,39.2079525 C196.051869,39.2079525 199.290445,37.8701484 200.549555,32.5794659 C200.549555,32.5794659 201.478754,31.4262908 201.442433,31.1296736 L199.499288,31.9589911 C199.499288,31.9589911 200.162136,33.3603561 199.641543,34.525638 C199.641543,34.525638 199.577982,32.0104451 199.205697,32.0679525 C199.13003,32.0679525 198.194777,32.5552522 198.194777,32.5552522 C198.194777,32.5552522 199.338872,34.9978042 198.476261,36.771454 C198.476261,36.771454 198.803145,33.762908 197.837626,32.7308012 L196.469555,33.5419585 C196.469555,33.5419585 197.804332,36.0632047 196.899347,38.121365 C196.899347,38.121365 197.132404,34.9645104 196.182018,33.7356677 L194.944095,34.7042136 C194.944095,34.7042136 196.197151,37.1891395 195.434421,38.8962018 C195.434421,38.8962018 195.331513,35.2217804 194.674718,34.9433234 C194.674718,34.9433234 193.591157,35.8997626 193.424688,36.2932344 C193.424688,36.2932344 194.284273,38.1092582 193.751573,39.0505638 C193.751573,39.0505638 193.424688,36.6019585 193.146231,36.5898516 C193.146231,36.5898516 192.065697,38.2121662 191.953709,39.3138872 C192.007785,38.2866523 192.329124,37.2913358 192.885935,36.4264095 C192.262396,36.5445196 191.686951,36.842236 191.230326,37.2829674 C191.230326,37.2829674 191.399822,36.1358457 193.152285,36.0359644 C193.152285,36.0359644 194.060297,34.804095 194.284273,34.7284273 C194.284273,34.7284273 192.54089,34.5831454 191.48457,35.0522849 C191.48457,35.0522849 192.413769,33.9717507 194.602077,34.4620772 L195.81276,33.4632641 C195.81276,33.4632641 193.51549,33.1605935 192.543917,33.4965579 C192.543917,33.4965579 193.663798,32.5401187 196.142671,33.2362611 L197.474421,32.4402374 C197.474421,32.4402374 195.516142,32.0195252 194.350861,32.1708605 C194.350861,32.1708605 195.58273,31.5080119 197.864866,32.2253412 L198.818279,31.7985757 C198.818279,31.7985757 197.38362,31.517092 196.962908,31.4716914 C196.542196,31.4262908 196.521009,31.311276 196.521009,31.311276 C197.429618,31.1601257 198.362367,31.264929 199.214777,31.6139466 C199.214777,31.6139466 201.260831,30.8512166 201.22451,30.724095 Z" id="Path" fill="#188CFF"></path>
                            <ellipse id="Oval" fill="#188CFF" opacity="0.1" cx="261.861543" cy="234.36997" rx="8.15091988" ry="1.37715134"></ellipse>
                            <ellipse id="Oval" fill="#188CFF" opacity="0.1" cx="27.8729377" cy="245.671691" rx="8.15091988" ry="1.37715134"></ellipse>
                            <ellipse id="Oval" fill="#188CFF" opacity="0.1" cx="59.4021365" cy="253.059881" rx="8.15091988" ry="1.37715134"></ellipse>
                            <ellipse id="Oval" fill="#188CFF" cx="244.01911" cy="249.12819" rx="12.1703858" ry="2.05816024"></ellipse>
                            <path d="M249.052522,245.762493 C249.607184,245.308938 250.011358,244.697928 250.211751,244.01003 C250.363086,243.316914 250.066469,242.496677 249.400593,242.2273 C248.656024,241.942789 247.86,242.460356 247.257685,242.98095 C246.655371,243.501543 245.962255,244.097804 245.172285,243.985816 C245.999296,243.237795 246.372778,242.110452 246.155964,241.016617 C246.1205,240.793668 246.025321,240.584483 245.880534,240.411276 C245.468902,239.969377 244.718279,240.157033 244.224926,240.508131 C242.651039,241.612878 242.212166,243.75276 242.203086,245.674718 C242.042671,244.981602 242.178872,244.25822 242.172819,243.556024 C242.166766,242.853828 241.976083,242.042671 241.373769,241.670386 C241.002163,241.470961 240.58462,241.372839 240.163086,241.385875 C239.454837,241.358635 238.667893,241.431276 238.18362,241.948843 C237.578279,242.590504 237.741721,243.668012 238.262315,244.370208 C238.782908,245.072404 239.578932,245.523383 240.311395,246.010682 C240.897335,246.360047 241.397013,246.836965 241.773294,247.405994 C241.818639,247.485523 241.855175,247.56976 241.882255,247.657211 L246.304273,247.657211 C247.301394,247.152102 248.225814,246.514782 249.052522,245.762493 L249.052522,245.762493 Z" id="Path" fill="#188CFF"></path>
                            <path d="M59.8228487,219.215252 C59.8228487,219.215252 61.4875371,221.391454 59.057092,224.663323 C56.6266469,227.935193 54.6229674,230.716736 55.4250445,232.765816 C55.4250445,232.765816 59.0934125,226.667003 62.0837982,226.582255 C65.074184,226.497507 63.1068249,222.88362 59.8228487,219.215252 Z" id="Path" fill="#188CFF"></path>
                            <path d="M59.8228487,219.215252 C59.9679972,219.425867 60.0821587,219.656229 60.1618398,219.899288 C63.0735312,223.319466 64.6262315,226.512641 61.8265282,226.591335 C59.2205341,226.667003 56.0939466,231.328131 55.3433234,232.505519 C55.3675371,232.59632 55.3978042,232.684095 55.4310979,232.774896 C55.4310979,232.774896 59.0994659,226.676083 62.0898516,226.591335 C65.0802374,226.506588 63.1068249,222.88362 59.8228487,219.215252 Z" id="Path" fill="#000000" opacity="0.1"></path>
                            <path d="M62.9131157,221.987715 C62.9131157,222.753472 62.828368,223.373947 62.7224332,223.373947 C62.6164985,223.373947 62.5317507,222.753472 62.5317507,221.987715 C62.5317507,221.221958 62.6376855,221.582136 62.7436202,221.582136 C62.8495549,221.582136 62.9131157,221.221958 62.9131157,221.987715 Z" id="Path" fill="#FF9463"></path>
                            <path d="M63.9754896,222.90178 C63.3035608,223.268012 62.7163798,223.488961 62.6679525,223.395134 C62.6195252,223.301306 63.1189318,222.929021 63.7908605,222.562789 C64.4627893,222.196558 64.1994659,222.462908 64.2478932,222.562789 C64.2963205,222.662671 64.6474184,222.535549 63.9754896,222.90178 Z" id="Path" fill="#FFD037"></path>
                            <path d="M51.0423739,219.215252 C51.0423739,219.215252 49.3776855,221.391454 51.8081306,224.663323 C54.2385757,227.935193 56.2422552,230.716736 55.440178,232.765816 C55.440178,232.765816 51.7748368,226.667003 48.7814243,226.582255 C45.7880119,226.497507 47.7523442,222.88362 51.0423739,219.215252 Z" id="Path" fill="#188CFF"></path>
                            <path d="M51.0423739,219.215252 C50.8967687,219.426046 50.7816283,219.656327 50.7003561,219.899288 C47.7886647,223.319466 46.2389911,226.512641 49.0356677,226.591335 C51.6446884,226.667003 54.771276,231.328131 55.5218991,232.505519 C55.4970986,232.597063 55.466776,232.68702 55.4310979,232.774896 C55.4310979,232.774896 51.7657567,226.676083 48.7723442,226.591335 C45.7789318,226.506588 47.7523442,222.88362 51.0423739,219.215252 Z" id="Path" fill="#000000" opacity="0.1"></path>
                            <path d="M47.9490801,221.987715 C47.9490801,222.753472 48.0368546,223.373947 48.1427893,223.373947 C48.248724,223.373947 48.3334718,222.753472 48.3334718,221.987715 C48.3334718,221.221958 48.2275371,221.582136 48.1216024,221.582136 C48.0156677,221.582136 47.9490801,221.221958 47.9490801,221.987715 Z" id="Path" fill="#FFD037"></path>
                            <path d="M46.8897329,222.90178 C47.5616617,223.268012 48.145816,223.488961 48.19727,223.395134 C48.248724,223.301306 47.7432641,222.929021 47.0713353,222.562789 C46.3994065,222.196558 46.6657567,222.462908 46.6143027,222.562789 C46.5628487,222.662671 46.2178042,222.535549 46.8897329,222.90178 Z" id="Path" fill="#FFD037"></path>
                            <path d="M48.4787537,232.490386 C48.4787537,232.490386 53.1277745,232.345104 54.5321662,231.349318 C55.9365579,230.353531 61.684273,229.157982 62.0293175,230.75911 C62.374362,232.360237 69.0179822,238.71632 63.7696736,238.758694 C58.521365,238.801068 51.5720475,237.941484 50.1737092,237.090979 C48.7753709,236.240475 48.4787537,232.490386 48.4787537,232.490386 Z" id="Path" fill="#A8A8A8"></path>
                            <path d="M63.8604748,238.20178 C58.6121662,238.244154 51.6628487,237.38457 50.2645104,236.534065 C49.2021365,235.883323 48.7753709,233.555786 48.6331157,232.484332 L48.4787537,232.484332 C48.4787537,232.484332 48.7814243,236.231395 50.1706825,237.084926 C51.5599407,237.938457 58.5183383,238.795015 63.7666469,238.752641 C65.28,238.752641 65.8036202,238.20178 65.7763798,237.40273 C65.5645104,237.893056 64.9864095,238.1927 63.8604748,238.20178 Z" id="Path" fill="#000000" opacity="0.2"></path>
                            <path d="M85.7254006,134.900297 C85.8139282,134.985765 85.9480585,135.002993 86.0553116,134.942671 C85.9438831,134.944353 85.8327871,134.930084 85.7254006,134.900297 L85.7254006,134.900297 Z" id="Path" fill="url(#linearGradient-1)"></path>
                            <path d="M121.994421,74.6688427 C121.355786,74.4811869 120.447774,74.1754896 119.34908,73.7910979 C120.489243,72.3020027 121.32255,70.6014399 121.800712,68.7879525 L121.706884,68.824273 C121.737151,68.7122849 121.770445,68.6033234 121.800712,68.4913353 C119.700178,69.3569733 117.372641,67.8859941 115.892582,66.0064095 C114.412522,64.1268249 113.404629,61.787181 111.785341,60.0528783 C111.109187,59.3659494 110.381681,58.7315319 109.609139,58.1551335 C109.13092,57.779822 108.613353,57.3893769 108.029199,57.3712166 C107.084866,57.3439763 106.343323,58.2792285 105.432285,58.5607122 C104.831563,58.6979893 104.205316,58.675027 103.616261,58.4941246 C101.26451,57.9462908 98.9975074,56.9383976 96.6094362,56.6781009 C95.3258746,56.5165886 94.0222971,56.6650055 92.8078932,57.1109199 C91.5972107,57.5770326 91.0524036,58.500178 90.0838576,59.2296142 C89.0335905,60.0226113 86.9421365,60.004451 85.7042136,60.1376261 C84.2034731,60.3100042 82.6922395,60.3737309 81.1823145,60.3283086 C80.3140692,60.2498164 79.4393584,60.2823638 78.5793472,60.4251632 C76.7814837,60.8246884 75.3377448,62.271454 73.9908605,63.6637389 C73.6215732,63.981663 73.356801,64.4036109 73.2311573,64.8744214 C73.21454,65.0070781 73.21454,65.1412899 73.2311573,65.2739466 C73.217246,65.6358567 73.2791016,65.9966812 73.4127596,66.3332938 C73.8196946,67.584674 74.4004461,68.7726676 75.1379822,69.8624332 C75.6888427,70.6614837 76.3274777,71.4121068 76.6513353,72.3564392 C76.8000267,72.821425 76.8785753,73.305978 76.8843917,73.7941246 C76.8673835,74.3128062 76.8137785,74.82964 76.7239763,75.3407715 C76.4861176,76.7501277 76.0953839,78.1293669 75.5586944,79.4540653 C75.274184,80.1562611 74.9533531,80.8554303 74.8776855,81.6242136 C74.8686709,81.7774343 74.8686709,81.9310524 74.8776855,82.084273 C74.7868843,84.454184 77.1507418,86.164273 77.6017211,88.5220772 C77.6375102,88.7170407 77.6597592,88.9142481 77.6683086,89.1122849 C77.6168546,90.5832641 76.7905638,92.0209496 75.5738279,92.5899703 C75.6797626,92.6323442 75.788724,92.6686647 75.8976855,92.7080119 C75.7931193,92.7743963 75.6850058,92.8350207 75.5738279,92.8896142 C75.7947774,92.974362 76.0217804,93.047003 76.2518101,93.1135905 C74.8600966,94.332757 73.6914617,95.7851007 72.7983383,97.4054599 C68.7243917,105.132641 40.9573887,120.290386 40.9573887,120.290386 C40.9573887,120.290386 41.1147774,120.37816 41.3690208,120.529496 C41.2661128,120.593056 41.1571513,120.665697 41.0360831,120.747418 C38.6328783,122.369733 32.9910979,127.103501 38.0910979,133.072166 C38.0910979,133.072166 42.0712166,126.70095 44.8588131,123.992047 C44.9859347,123.870979 45.107003,123.758991 45.2250445,123.653056 C45.3510034,123.846226 45.3905065,124.083245 45.3340059,124.306825 L63.5941246,113.904036 C63.5941246,113.904036 70.0833828,109.297389 71.8933531,108.256202 C72.5168546,107.89905 74.1058754,106.906291 76.0066469,106.467418 L75.7947774,106.561246 C76.4769742,106.370504 77.1809707,106.268771 77.8892582,106.258576 C81.1217804,106.31003 84.6206528,108.710208 85.7768546,118.217092 C87.3235015,130.947418 86.6061721,133.241662 86.1097923,133.556439 C86.0482502,133.551801 85.9873747,133.540641 85.9281899,133.523145 C85.9429328,133.537014 85.9591755,133.549196 85.9766172,133.559466 C85.9088489,133.555127 85.841813,133.542939 85.7768546,133.523145 C85.8477654,133.590609 85.9488889,133.61589 86.0432047,133.589733 C86.1112772,133.609624 86.1845187,133.600879 86.2459941,133.565519 L86.2459941,133.565519 L86.2459941,133.565519 C86.3156083,133.565519 86.3973294,133.565519 86.4911573,133.565519 C86.4911573,133.680534 86.472997,133.801602 86.4639169,133.919644 C86.4397033,133.919644 86.318635,133.989258 86.4639169,133.998338 L86.4639169,133.998338 C86.4275964,134.715668 86.4306231,135.511691 86.4639169,136.313769 C84.8567359,136.40457 83.2525816,136.501424 81.8451632,136.589199 L81.9722849,135.914243 L82.0297923,135.611573 C83.2616617,135.511691 84.432997,135.14546 84.5691988,134.128487 C84.8718694,131.900831 81.8451632,130.711335 79.2875964,130.563027 C76.7300297,130.414718 61.3301484,131.455905 61.3301484,131.455905 C61.3301484,131.455905 59.0207715,134.482611 66.3423739,135.423917 C66.5602967,135.538932 66.7872997,135.666053 67.0173294,135.799228 C69.8836202,137.457864 73.7759644,140.508783 75.6373887,142.013056 L75.8976855,142.221899 L75.0623145,142.896855 C79.6023739,143.938042 83.9668843,161.474777 86.3791691,169.498576 C88.791454,177.522374 94.0760831,177.225757 98.4527003,176.039288 C102.553887,174.922433 103.077507,162.848902 103.125935,161.332522 C103.125935,161.229614 103.125935,161.17816 103.125935,161.17816 L110.41727,170.291573 L110.971157,170.984688 C111.186053,171.096677 111.394896,171.202611 111.600712,171.302493 C117.124451,173.969021 123.226291,168.859941 121.488961,163.048665 C119.736499,157.176855 117.012463,148.499288 115.196439,144.83092 C113.683086,141.758813 111.7127,136.658813 110.520178,133.456558 C110.674714,133.392971 110.825309,133.3202 110.971157,133.238635 C110.971157,133.238635 110.943917,133.09638 110.89549,132.833056 L110.971157,132.793709 C110.971157,132.793709 109.215668,123.547122 109.118813,116.982196 C109.118813,116.867181 109.118813,116.752166 109.118813,116.637151 C109.118813,116.522136 109.118813,116.494896 109.118813,116.422255 C110.438457,116.119585 111.273828,115.998516 111.273828,115.998516 L111.298042,115.714006 L111.14368,115.7473 L111.876142,107.230148 C111.876142,107.230148 114.569911,101.421899 112.508724,99.0005341 C111.881111,98.2897114 111.462131,97.4192803 111.298042,96.4853412 C110.952997,94.2576855 111.298042,90.5499703 116.101424,87.4657567 C123.495668,82.7108012 126.36565,78.8456973 126.36565,78.8456973 C126.36565,78.8456973 126.522374,76.0066469 121.994421,74.6688427 Z M107.308843,80.5769733 L107.308843,76.6422552 C108.679941,76.5756677 110.081306,76.7360831 111.458457,76.6422552 C112.135767,76.5945375 112.806824,76.4810051 113.462136,76.3032641 L113.795074,76.5363205 C111.780175,78.1062188 109.606211,79.460508 107.308843,80.5769733 Z M86.3458754,142.264273 C86.8876558,142.645638 87.4324629,143.042136 87.9681899,143.438635 C88.3011276,145.378754 88.5947181,146.749852 88.615905,146.84368 C88.0040322,145.249611 87.2440289,143.716431 86.3458754,142.264273 Z" id="Shape" fill="url(#linearGradient-2)"></path>
                            <path d="M98.198457,139.779347 L97.8715727,141.552997 L97.6203561,142.908961 L97.1633234,145.390861 L92.7322255,148.493234 C92.7322255,148.493234 92.3327003,148.151217 91.6728783,147.612463 C89.8568546,146.11727 86.040178,143.072404 83.2374481,141.437982 C82.516569,140.97851 81.7366207,140.619082 80.9189911,140.369555 L98.198457,139.779347 Z" id="Path" fill="#FFBDC6"></path>
                            <path d="M98.198457,139.779347 L97.8715727,141.552997 C96.8943638,141.606059 95.9142831,141.55533 94.9477745,141.401662 L84.608546,141.54997 C84.1212463,141.519703 83.6642136,141.483383 83.2374481,141.437982 C82.516569,140.97851 81.7366207,140.619082 80.9189911,140.369555 L98.198457,139.779347 Z" id="Path" fill="#000000" opacity="0.1"></path>
                            <path d="M94.9477745,141.098991 C94.9477745,141.098991 100.114362,141.985816 100.417033,139.779347 C100.719703,137.572878 97.7565579,136.380356 95.2474184,136.232047 C92.7382789,136.083739 77.6713353,137.118872 77.6713353,137.118872 C77.6713353,137.118872 75.0138872,140.663145 84.6115727,141.25638 L94.9477745,141.098991 Z" id="Path" fill="#474463"></path>
                            <path d="M98.198457,139.779347 L97.8715727,141.552997 L97.6203561,142.908961 L97.1633234,145.390861 L92.7322255,148.493234 C92.7322255,148.493234 92.3327003,148.151217 91.6728783,147.612463 C89.8568546,146.11727 86.040178,143.072404 83.2374481,141.437982 C82.516569,140.97851 81.7366207,140.619082 80.9189911,140.369555 L98.198457,139.779347 Z" id="Path" fill="#000000" opacity="0.1"></path>
                            <path d="M98.198457,139.779347 L97.8715727,141.552997 C96.8943638,141.606059 95.9142831,141.55533 94.9477745,141.401662 L84.608546,141.54997 C84.1212463,141.519703 83.6642136,141.483383 83.2374481,141.437982 C82.516569,140.97851 81.7366207,140.619082 80.9189911,140.369555 L98.198457,139.779347 Z" id="Path" fill="#000000" opacity="0.1"></path>
                            <path d="M94.9477745,141.092938 C94.9477745,141.092938 100.117389,141.976736 100.414006,139.761187 C100.710623,137.545638 97.7535312,136.365223 95.2443917,136.216914 C92.7352522,136.068605 77.6683086,137.103739 77.6683086,137.103739 C77.6683086,137.103739 75.0108605,140.648012 84.608546,141.23822 L94.9477745,141.092938 Z" id="Path" fill="#000000" opacity="0.1"></path>
                            <rect id="Rectangle" fill="#474463" x="79.2179822" y="68.288546" width="27.0284866" height="32.0497923"></rect>
                            <rect id="Rectangle" fill="#000000" opacity="0.1" x="79.2179822" y="68.4338279" width="27.0284866" height="32.0497923"></rect>
                            <path d="M47.5404748,123.15365 C47.095549,123.265638 46.5265282,123.69543 45.8939466,124.318932 C43.169911,127.015727 39.2684866,133.34457 39.2684866,133.34457 C34.2804748,127.403145 39.8011869,122.708724 42.1529377,121.09549 C42.7249852,120.705045 43.1093769,120.490148 43.1093769,120.490148 L47.5404748,123.15365 Z" id="Path" fill="#FFBDC6"></path>
                            <path d="M97.9018398,78.4037982 C97.9018398,78.4037982 99.2305638,87.7078932 103.80997,89.9234421 C108.389377,92.1389911 97.9018398,96.2795252 97.9018398,96.2795252 L83.5764392,90.9585757 C83.5764392,90.9585757 91.7001187,88.2981009 90.0747774,80.4710386 L97.9018398,78.4037982 Z" id="Path" fill="#FFBDC6"></path>
                            <path d="M82.5413056,134.379703 L82.2174481,136.1473 L81.9541246,137.509318 L81.497092,139.991217 L77.0659941,143.090564 C77.0659941,143.090564 76.6664688,142.751573 76.0066469,142.212819 C74.1906231,140.717626 70.3739466,137.67276 67.5681899,136.038338 C66.8476543,135.578237 66.0676176,135.218768 65.2497329,134.969911 L82.5413056,134.379703 Z" id="Path" fill="#FFBDC6"></path>
                            <path d="M82.5413056,134.379703 L82.2174481,136.1473 C81.2402392,136.200361 80.2601584,136.149632 79.2936499,135.995964 L68.9544214,136.144273 C68.4671217,136.114006 68.0070623,136.077685 67.5802967,136.032285 C66.8597611,135.572183 66.0797244,135.212715 65.2618398,134.963858 L82.5413056,134.379703 Z" id="Path" fill="#000000" opacity="0.1"></path>
                            <path d="M79.2936499,135.708427 C79.2936499,135.708427 84.4632641,136.592226 84.7568546,134.379703 C85.0504451,132.167181 82.0994065,130.980712 79.5872404,130.832404 C77.0750742,130.684095 62.014184,131.719228 62.014184,131.719228 C62.014184,131.719228 59.3537092,135.263501 68.9544214,135.856736 L79.2936499,135.708427 Z" id="Path" fill="#474463"></path>
                            <path d="M81.9541246,137.509318 L81.497092,139.991217 L77.0659941,143.090564 C77.0659941,143.090564 76.6664688,142.751573 76.0066469,142.212819 L81.8663501,137.406409 L81.9541246,137.509318 Z" id="Path" fill="#000000" opacity="0.1"></path>
                            <path d="M111.219347,171.320653 C111.016558,171.220772 110.813769,171.117864 110.614006,171.017982 L110.069199,170.33092 L102.923145,161.268961 C102.923145,161.268961 102.923145,161.323442 102.923145,161.42635 C102.874718,162.939703 102.360178,174.931513 98.3467656,176.039288 C94.0639763,177.219703 88.8973887,177.51632 86.5426113,169.54095 C84.1878338,161.565579 79.8838576,144.137804 75.4648665,143.102671 L82.0388724,137.712107 C82.0388724,137.712107 86.391276,142.803027 88.1649258,147.676024 C88.0983383,147.373353 85.092819,133.329436 87.5595846,130.84451 L109.124866,130.84451 C109.124866,130.84451 112.454243,140.327181 114.73638,145.024629 C116.513056,148.67181 119.179585,157.294896 120.895727,163.130386 C122.596736,168.893234 116.625045,173.981128 111.219347,171.320653 Z" id="Path" fill="#474463"></path>
                            <path d="M110.604926,133.492878 C107.275549,135.463264 92.6595846,134.661187 87.9046291,134.340356 L86.6091988,134.246528 C86.4699703,134.246528 86.6303858,134.167834 86.6303858,134.167834 L86.7635608,132.827003 L90.3078338,123.819525 L109.285282,112.814421 C108.90089,113.97365 108.773769,115.7473 108.804036,117.77822 C108.89181,124.303798 110.604926,133.492878 110.604926,133.492878 Z" id="Path" fill="#000000" opacity="0.1"></path>
                            <path d="M110.604926,133.047953 C107.275549,135.018338 92.6595846,134.216261 87.9046291,133.89543 L86.6091988,133.804629 L86.3943027,133.786469 L86.6303858,133.725935 L87.7986944,133.423264 L90.3078338,123.380653 L109.285282,112.378576 C108.90089,113.537804 108.773769,115.311454 108.804036,117.342374 C108.89181,123.861899 110.604926,133.047953 110.604926,133.047953 Z" id="Path" fill="#F2F1F2"></path>
                            <path d="M108.791929,117.33632 C104.932878,118.226172 96.4399407,120.83822 93.1771513,127.142849 C91.0009496,131.34089 89.1697923,133.14178 87.8925223,133.89543 L86.597092,133.804629 C86.6055628,133.778797 86.6126354,133.752528 86.6182789,133.725935 L87.7865875,133.423264 L90.295727,123.380653 L109.273175,112.378576 C108.89181,113.531751 108.761662,115.305401 108.791929,117.33632 Z" id="Path" fill="#000000" opacity="0.1"></path>
                            <path d="M43.1093769,120.496202 L47.5404748,123.15365 C47.095549,123.265638 46.5265282,123.69543 45.8939466,124.318932 C45.5246884,123.241424 43.2062315,121.737151 42.1529377,121.09549 C42.7249852,120.711098 43.1093769,120.496202 43.1093769,120.496202 Z" id="Path" fill="#000000" opacity="0.1"></path>
                            <path d="M85.8071217,133.977151 C85.7075171,134.029009 85.585985,134.011995 85.504451,133.934777 C85.6027355,133.963584 85.704705,133.97786 85.8071217,133.977151 L85.8071217,133.977151 Z" id="Path" fill="#000000" opacity="0.1"></path>
                            <path d="M95.8345994,89.3332344 C95.8345994,89.3332344 91.8454006,89.7751335 89.0396439,86.8210682 C89.0396439,86.8210682 77.2354896,90.2200593 73.2372107,97.8988131 C69.2389318,105.577567 42.0621365,120.64451 42.0621365,120.64451 C42.0621365,120.64451 46.7898516,123.301958 46.3449258,124.630682 L64.2176261,114.291454 C64.2176261,114.291454 70.5737092,109.715074 72.3382789,108.679941 C74.1028487,107.644807 83.8609496,101.294777 85.9281899,118.574243 C87.9954303,135.853709 85.9281899,133.786469 85.9281899,133.786469 C85.9281899,133.786469 88.8822552,134.821602 93.1650445,126.549614 C97.4478338,118.277626 110.738101,116.358694 110.738101,116.358694 L111.476617,107.647834 C111.476617,107.647834 114.112878,101.872878 112.081958,99.475727 C111.466681,98.766013 111.057411,97.9014178 110.898516,96.9756677 C110.562552,94.7631454 110.898516,91.0766172 115.602018,88.0135905 C122.838872,83.2858754 125.645213,79.4480119 125.645213,79.4480119 C125.645213,79.4480119 125.792938,76.6392285 121.36184,75.3105045 C116.930742,73.9817804 98.9127596,66.7449258 98.9127596,66.7449258 L98.3074184,69.257092 L112.523858,79.2906231 C112.523858,79.2906231 105.435312,85.041365 99.8116914,84.9021365 C99.8116914,84.9021365 100.855905,89.1849258 95.8345994,89.3332344 Z" id="Path" fill="#FF748E"></path>
                            <path d="M98.5707418,82.4535312 C98.2214236,81.2696442 97.9484589,80.0645553 97.7535312,78.8456973 L89.9264688,80.9129377 C90.2715435,82.4071327 90.2098794,83.966503 89.7478932,85.4287834 C93.0195755,86.3020022 96.495983,85.1296836 98.5707418,82.4535312 L98.5707418,82.4535312 Z" id="Path" fill="#000000" opacity="0.1"></path>
                            <circle id="Oval" fill="#FFBDC6" cx="92.0693769" cy="76.8541246" r="8.41727003"></circle>
                            <path d="M96.5458754,57.7102077 C98.8824926,57.9735312 101.101068,58.9783976 103.401365,59.5262315 C103.976005,59.7059796 104.588055,59.730002 105.175015,59.5958457 C106.067893,59.3173887 106.794303,58.3851632 107.720475,58.4124036 C108.289496,58.4124036 108.794955,58.8179822 109.264095,59.1902671 C110.017177,59.7652094 110.725451,60.3965844 111.382789,61.0789318 C112.968783,62.8011276 113.952463,65.1195846 115.399228,66.9931157 C116.845994,68.8666469 119.128131,70.3224926 121.183264,69.462908 C119.784926,74.9109792 115.205519,79.0605935 110.250801,79.3995846 C108.274362,79.5327596 106.249496,79.1211276 104.336617,79.7022552 C103.859837,79.8961706 103.357016,80.0185609 102.844451,80.0654599 C101.74273,80.0654599 100.855905,79.0545401 100.168843,78.0708605 C98.558635,75.758457 97.2843917,73.131276 95.4713947,71.0216617 C94.8660534,70.3255193 94.1668843,69.6626706 93.3194065,69.535549 C92.4719288,69.4084273 91.6940653,69.8109792 90.9404154,70.2014243 C89.6964392,70.8461128 88.4252226,71.5150148 87.4597033,72.6227893 C86.494184,73.7305638 85.885816,75.377092 86.2853412,76.860178 C86.5002374,77.6652819 86.9905638,78.3916914 86.9996439,79.2331157 C87.0178042,80.5739466 85.8313353,81.5576261 85.5982789,82.8651632 C85.545717,83.4143545 85.5265126,83.9662282 85.5407715,84.5177448 C85.4378635,86.3095549 84.2665282,87.7775074 83.0437389,88.9034421 C82.5655193,89.3423145 82.0388724,89.811454 81.8996439,90.4894362 C81.805816,90.9494955 81.8996439,91.439822 81.8391098,91.9059347 C81.6605341,93.0681899 80.5013056,93.6583976 79.4752522,93.8127596 C78.2764013,93.9873016 77.0527176,93.8421718 75.9279525,93.3920475 C77.3626113,92.7110386 78.2464095,90.7830267 77.9134718,89.0517507 C77.4564392,86.6545994 75.047181,84.9354303 75.252997,82.4928783 C75.3666806,81.7444839 75.5910966,81.0171719 75.9188724,80.3348368 C76.4442294,79.0177662 76.8257895,77.6478032 77.0569139,76.2487834 C77.2385163,75.1652226 77.3262908,74.0181009 76.9872997,72.9890208 C76.6846291,72.0477151 76.0520475,71.3031454 75.5163205,70.5101484 C74.7894202,69.4303363 74.2159353,68.2548448 73.8122849,67.0173294 C73.6647906,66.6519611 73.6086869,66.2561187 73.6488427,65.8641543 C73.7666769,65.3943732 74.0254426,64.9718986 74.3903858,64.6534718 C75.707003,63.2702671 77.1144214,61.8295549 78.8789911,61.4360831 C79.720704,61.2937894 80.5772101,61.2602209 81.4274777,61.3362018 C82.9061159,61.3841652 84.3862704,61.3214382 85.855549,61.148546 C87.0662315,61.0062908 89.1122849,61.0274777 90.1383383,60.2405341 C91.0947774,59.5050445 91.6335312,58.5879525 92.8109199,58.1218398 C94.0038991,57.6829112 95.285941,57.5416164 96.5458754,57.7102077 L96.5458754,57.7102077 Z" id="Path" fill="#000000" opacity="0.1"></path>
                            <path d="M101.225163,144.643264 C101.225163,144.643264 106.09816,154.243976 104.621128,157.195015" id="Path" fill="#000000" opacity="0.1"></path>
                            <path d="M110.060119,170.318813 L102.923145,161.268961 C102.923145,161.268961 102.923145,161.323442 102.923145,161.42635 C102.923145,161.42635 102.511513,158.496499 103.870504,159.480178 C106.848783,161.635193 111.612819,165.167359 111.715727,165.775727 C111.818635,166.384095 110.750208,168.81454 110.060119,170.318813 Z" id="Path" fill="#000000" opacity="0.1"></path>
                            <g id="Group" opacity="0.1" transform="translate(42.071217, 66.587537)" fill="#000000">
                                <path d="M57.8978635,18.3145994 C57.8978635,18.3145994 58.5032047,20.8086053 56.5540059,22.0556083 C59.5504451,21.544095 59.6836202,19.2105045 59.5807122,18.1965579 C59.0243689,18.2856955 58.4612027,18.3251982 57.8978635,18.3145994 L57.8978635,18.3145994 Z" id="Path"></path>
                                <path d="M1.77667656,53.4637389 C1.77667656,53.4637389 28.9504451,38.399822 32.9517507,30.7210682 C35.8119881,25.2094362 42.7068249,21.904273 46.3691395,20.4756677 C43.6995846,21.3836795 34.7042136,24.8068843 31.3264095,31.311276 C27.3402374,38.9900297 0.151335312,54.0569733 0.151335312,54.0569733 L1.77667656,53.4637389 Z" id="Path"></path>
                                <path d="M63.188546,17.1402374 C67.8133531,15.7025519 72.2323442,12.1128783 72.2323442,12.1128783 L58.0431454,2.06421365 L58.367003,0.690089021 L57.0080119,0.145281899 L56.4178042,2.65744807 L70.5979228,12.7000593 C68.3253381,14.4867708 65.8357657,15.9786837 63.188546,17.1402374 L63.188546,17.1402374 Z" id="Path"></path>
                                <path d="M63.2702671,51.175549 C65.0814505,50.5574582 66.9399277,50.0877777 68.8272997,49.7711573 L68.8515134,49.4866469 C66.950267,49.9046079 65.0842662,50.4692655 63.2702671,51.175549 L63.2702671,51.175549 Z" id="Path"></path>
                                <path d="M46.0846291,66.6480712 L45.9544807,66.6480712 C45.8547169,66.6989926 45.7337545,66.6820579 45.6518101,66.6056973 C45.7501307,66.634336 45.8520755,66.6486082 45.9544807,66.6480712 C46.4387537,66.3665875 47.1651632,64.1601187 45.6518101,51.3934718 C44.0234421,37.7732938 37.615905,38.8356677 34.1109792,40.4035015 C37.6945994,39.4167953 42.6251039,40.2703264 44.0264688,51.9836795 C45.5549555,64.7503264 44.8255193,66.9567953 44.3291395,67.2382789 C44.9589335,67.2147221 45.5685221,67.0097742 46.0846291,66.6480712 L46.0846291,66.6480712 Z" id="Path"></path>
                                <path d="M44.3291395,67.2413056 C44.2267343,67.2418427 44.1247894,67.2275704 44.0264688,67.1989318 C44.1084132,67.2752923 44.2293756,67.292227 44.3291395,67.2413056 L44.3291395,67.2413056 Z" id="Path"></path>
                            </g>
                            <path d="M96.5458754,57.4135905 C98.8824926,57.6799407 101.101068,58.6817804 103.401365,59.2296142 C103.976274,59.4083606 104.588321,59.4313385 105.175015,59.2962018 C106.067893,59.0207715 106.794303,58.0855193 107.720475,58.1127596 C108.289496,58.1309199 108.794955,58.5183383 109.264095,58.8906231 C110.016459,59.4664351 110.724669,60.0977535 111.382789,60.7792878 C112.968783,62.5014837 113.952463,64.8199407 115.399228,66.6934718 C116.845994,68.567003 119.128131,70.0228487 121.183264,69.1632641 C119.784926,74.6113353 115.205519,78.7609496 110.250801,79.0999407 C108.274362,79.2361424 106.249496,78.8245104 104.336617,79.4026113 C103.860298,79.5979493 103.357261,79.7203924 102.844451,79.765816 C101.74273,79.765816 100.855905,78.7548961 100.168843,77.7712166 C98.558635,75.4588131 97.2843917,72.8346588 95.4713947,70.7250445 C94.8660534,70.0258754 94.1668843,69.3630267 93.3194065,69.235905 C92.4719288,69.1087834 91.6940653,69.514362 90.9404154,69.9048071 C89.6964392,70.5494955 88.4252226,71.2153709 87.4597033,72.3261721 C86.494184,73.4369733 85.885816,75.0774481 86.2853412,76.5635608 C86.5002374,77.3686647 86.9905638,78.0950742 86.9996439,78.9364985 C87.0178042,80.2803561 85.8313353,81.2610089 85.5982789,82.568546 C85.5456575,83.1177334 85.526453,83.6696108 85.5407715,84.2211276 C85.4378635,86.0129377 84.2665282,87.4778635 83.0437389,88.6068249 C82.5655193,89.0426706 82.0388724,89.5148368 81.8996439,90.1897923 C81.805816,90.6528783 81.8996439,91.140178 81.8391098,91.6093175 C81.6605341,92.7715727 80.5013056,93.3617804 79.4752522,93.5131157 C78.2764418,93.6905753 77.0519958,93.5453551 75.9279525,93.0924036 C77.3626113,92.4144214 78.2464095,90.4833828 77.9134718,88.7551335 C77.4564392,86.3579822 75.047181,84.6357864 75.252997,82.1962611 C75.3662396,81.4477658 75.5906755,80.7203896 75.9188724,80.0382196 C76.4438576,78.7199809 76.8254031,77.3490557 77.0569139,75.9491395 C77.2385163,74.8686053 77.3262908,73.7214837 76.9872997,72.6893769 C76.6846291,71.7510979 76.0520475,71.0035015 75.5163205,70.2105045 C74.7900086,69.1314377 74.216555,67.9570292 73.8122849,66.7207122 C73.665594,66.3540694 73.609527,65.9574472 73.6488427,65.5645104 C73.7701927,65.1004993 74.0286188,64.6838531 74.3903858,64.3689614 C75.707003,62.9857567 77.1144214,61.5480712 78.8789911,61.1515727 C79.7209851,61.0117684 80.5773014,60.9792243 81.4274777,61.0547181 C82.9061078,61.1011415 84.3861481,61.0384193 85.855549,60.8670623 C87.0662315,60.7248071 89.1122849,60.7429674 90.1383383,59.9590504 C91.0947774,59.2265875 91.6335312,58.3064688 92.8109199,57.8403561 C94.0031462,57.3984562 95.2846953,57.2520231 96.5458754,57.4135905 L96.5458754,57.4135905 Z" id="Path" fill="#474463"></path>
                            <circle id="Oval" fill="#FFFFFF" cx="151.99816" cy="140.063858" r="16.9707418"></circle>
                            <path d="M174.295905,137.827122 C174.295905,147.00119 168.76958,155.27192 160.293846,158.782683 C151.818113,162.293447 142.062122,160.35286 135.575076,153.865814 C129.08803,147.378769 127.147443,137.622777 130.658207,129.147044 C134.168971,120.67131 142.439701,115.144985 151.613769,115.144985 C164.140767,115.144985 174.295905,125.300124 174.295905,137.827122 Z" id="Shape" fill="#FFFFFF"></path>
                            <path d="M148.992641,149.834065 L165.818101,133.008605 C166.093127,132.734332 166.247698,132.361885 166.247698,131.973472 C166.247698,131.585058 166.093127,131.212612 165.818101,130.938338 L163.747834,128.883205 C163.474078,128.608362 163.102132,128.453865 162.714214,128.453865 C162.326295,128.453865 161.954349,128.608362 161.680593,128.883205 L147.957507,142.606291 L141.54997,136.18362 C140.977361,135.614159 140.052313,135.614159 139.479703,136.18362 L137.409436,138.265994 C136.839975,138.838603 136.839975,139.763652 137.409436,140.336261 L146.922374,149.846172 C147.196647,150.121198 147.569094,150.275769 147.957507,150.275769 C148.345921,150.275769 148.718367,150.121198 148.992641,149.846172 L148.992641,149.834065 Z" id="Path" fill="#3A3768"></path>
                        </g>
                    </g>
                </g>
            </g>
        </g>
    </g>
</svg>