<?xml version="1.0" encoding="UTF-8"?>
<svg width="25px" height="50px" viewBox="0 0 25 50" version="1.1" xmlns="http://www.w3.org/2000/svg" xmlns:xlink="http://www.w3.org/1999/xlink">
    <!-- Generator: Sketch 55.2 (78181) - https://sketchapp.com -->
    <title>Group 15</title>
    <desc>Created with Sketch.</desc>
    <g id="-" stroke="none" stroke-width="1" fill="none" fill-rule="evenodd">
        <g id="Product.1.0.9" transform="translate(-30.000000, -377.000000)" fill-rule="nonzero">
            <g id="Group-17">
                <g id="Group-16" transform="translate(15.000000, 148.000000)">
                    <g id="Group-2">
                        <g id="Group-8" transform="translate(0.000000, 212.000000)">
                            <g id="Group-11" transform="translate(0.000000, 1.000000)">
                                <g id="Group-15" transform="translate(15.000000, 16.000000)">
                                    <rect id="Rectangle" fill="#3A3768" x="-1.42108547e-13" y="0" width="24.8876643" height="49.7603416" rx="10.5378378"></rect>
                                    <path d="M21.3770258,1.29276606 L18.5221655,1.29276606 L18.5221655,1.63061994 C18.5221656,2.05534345 18.3506063,2.46265934 18.0452522,2.76290674 C17.7398982,3.06315415 17.3257799,3.23172128 16.8940555,3.23150213 L7.81476017,3.23150213 C7.38303577,3.23172128 6.96891744,3.06315415 6.66356343,2.76290674 C6.35820941,2.46265934 6.18665009,2.05534345 6.18665015,1.63061994 L6.18665015,1.29276606 L3.51399713,1.29276606 C2.42236716,1.29276606 1.53742622,2.1633566 1.53742622,3.23728447 L1.53742622,46.519753 C1.53742622,47.0354713 1.74567149,47.5300672 2.11635044,47.8947351 C2.48702939,48.2594031 2.98977793,48.4642714 3.51399713,48.4642714 L21.3770258,48.4642714 C22.4686558,48.4642714 23.3535996,47.5936808 23.3535996,46.519753 L23.3535996,3.24058866 C23.3544885,2.72429806 23.1466369,2.22885292 22.7758613,1.86347003 C22.4050856,1.49808714 21.9018274,1.29276606 21.3770258,1.29276606 Z" id="Path" fill="#188CFF"></path>
                                    <rect id="Rectangle" fill="#E6E8EC" x="10.0432305" y="1.48606143" width="3.47537255" height="1" rx="0.5"></rect>
                                    <ellipse id="Oval" fill="#E6E8EC" cx="14.4447533" cy="1.83300184" rx="1" ry="1"></ellipse>
                                    <path d="M18.7816219,24.8805838 C18.7816219,27.3843702 17.2485162,29.6416177 14.8971896,30.5997753 C12.545863,31.5579329 9.83936894,31.0283078 8.03974144,29.2578635 C6.24011395,27.4874191 5.70175882,24.8248142 6.6757102,22.5116172 C7.64966158,20.1984202 9.94411642,18.6901756 12.489174,18.6901756 C15.964397,18.6901756 18.7816219,21.4617158 18.7816219,24.8805838 Z" id="Shape" fill="#FFFFFF"></path>
                                    <path d="M11.7620243,28.1575186 L16.4297209,23.5655145 C16.5060182,23.4906598 16.5488991,23.3890117 16.5488991,23.2830059 C16.5488991,23.177 16.5060182,23.0753519 16.4297209,23.0004972 L15.8553902,22.4396102 C15.7794452,22.3646002 15.6762605,22.3224349 15.5686446,22.3224349 C15.4610288,22.3224349 15.3578441,22.3646002 15.2818991,22.4396102 L11.474859,26.1849146 L9.69728862,24.4320395 C9.53843608,24.2766222 9.28181044,24.2766222 9.1229579,24.4320395 L8.54862719,25.0003609 C8.39064815,25.1566374 8.39064815,25.4091016 8.54862719,25.5653781 L11.1876936,28.1608228 C11.2637822,28.2358829 11.3671058,28.2780685 11.474859,28.2780685 C11.5826121,28.2780685 11.6859357,28.2358829 11.7620243,28.1608228 L11.7620243,28.1575186 Z" id="Path" fill="#3A3768"></path>
                                </g>
                            </g>
                        </g>
                    </g>
                </g>
            </g>
        </g>
    </g>
</svg>