<svg xmlns="http://www.w3.org/2000/svg" xmlns:xlink="http://www.w3.org/1999/xlink" width="28.351" height="32.557" viewBox="0 0 28.351 32.557"><defs><style>.a{fill:#ffd15c;}.b{fill:#fff;}.c{fill:#344a5e;}.d{fill:#415a6b;}.e{filter:url(#c);}.f{filter:url(#a);}</style><filter id="a" x="0" y="0" width="28.351" height="29.069" filterUnits="userSpaceOnUse"><feOffset dy="3" input="SourceAlpha"/><feGaussianBlur stdDeviation="3" result="b"/><feFlood flood-opacity="0.161"/><feComposite operator="in" in2="b"/><feComposite in="SourceGraphic"/></filter><filter id="c" x="3.151" y="11.032" width="22.087" height="21.525" filterUnits="userSpaceOnUse"><feOffset dy="3" input="SourceAlpha"/><feGaussianBlur stdDeviation="3" result="d"/><feFlood flood-opacity="0.161"/><feComposite operator="in" in2="d"/><feComposite in="SourceGraphic"/></filter></defs><g transform="translate(-26.727 3.307)"><g class="f" transform="matrix(1, 0, 0, 1, 26.73, -3.31)"><path class="a" d="M116,87.679a4.222,4.222,0,0,1,1.275-1.95,5.123,5.123,0,0,0,1.838-3.937,5.176,5.176,0,1,0-8.513,3.937,4.023,4.023,0,0,1,1.313,1.95Z" transform="translate(-99.76 -70.61)"/></g><path class="b" d="M200.563,222.759h.338l-1.5-5.587h.113a.74.74,0,0,0,.525-.225.363.363,0,0,1,.525,0,.641.641,0,0,0,.975,0,.341.341,0,0,1,.263-.112.405.405,0,0,1,.263.112.681.681,0,0,0,.525.225h.113l-1.462,5.587h.337l1.537-5.85c0-.075,0-.15-.075-.187a.165.165,0,0,0-.187.037.324.324,0,0,1-.225.113.5.5,0,0,1-.3-.113.641.641,0,0,0-.975,0,.362.362,0,0,1-.525,0,.6.6,0,0,0-.488-.225h0a.6.6,0,0,0-.487.225.426.426,0,0,1-.3.113.267.267,0,0,1-.225-.113.165.165,0,0,0-.187-.037.137.137,0,0,0-.075.188Z" transform="translate(-160.147 -208.922)"/><g transform="translate(38.879 13.725)"><path class="c" d="M222.933,489.6a1.252,1.252,0,0,0,2.325,0Z" transform="translate(-222.07 -486.112)"/><g class="e" transform="matrix(1, 0, 0, 1, -12.15, -17.03)"><path class="c" d="M201.813,393.925h-2.738a.672.672,0,0,1-.675-.675V390.4h4.087v2.85A.672.672,0,0,1,201.813,393.925Z" transform="translate(-186.25 -373.37)"/></g></g><g transform="translate(38.466 14.325)"><path class="d" d="M191.129,408.292h-4.05a.416.416,0,0,1-.413-.412h0a.416.416,0,0,1,.413-.413h4.05a.416.416,0,0,1,.412.413h0A.416.416,0,0,1,191.129,408.292Z" transform="translate(-186.667 -407.467)"/><path class="d" d="M191.129,445.626h-4.05a.416.416,0,0,1-.413-.412h0a.416.416,0,0,1,.413-.412h4.05a.416.416,0,0,1,.412.412h0A.416.416,0,0,1,191.129,445.626Z" transform="translate(-186.667 -443.488)"/></g><g transform="translate(33.066)"><path class="a" d="M245.708,0a.376.376,0,0,0-.375.375V1.65a.376.376,0,0,0,.375.375.354.354,0,0,0,.375-.375V.375A.376.376,0,0,0,245.708,0Z" transform="translate(-237.87)"/><path class="a" d="M95.572,61.979a.371.371,0,1,0-.525.525l.9.9a.371.371,0,0,0,.525-.525Z" transform="translate(-92.759 -59.692)"/><path class="a" d="M34.716,212.267H33.441a.376.376,0,0,0-.375.375h0a.376.376,0,0,0,.375.375h1.275a.376.376,0,0,0,.375-.375h0A.4.4,0,0,0,34.716,212.267Z" transform="translate(-33.066 -204.804)"/><path class="a" d="M95.945,337.18l-.9.9a.371.371,0,0,0,.525.525l.9-.9a.371.371,0,1,0-.525-.525Z" transform="translate(-92.758 -325.217)"/><path class="a" d="M370.77,337.179a.371.371,0,0,0-.525.525l.9.9a.371.371,0,0,0,.525-.525Z" transform="translate(-358.283 -325.217)"/><path class="a" d="M422.983,212.267h-1.275a.376.376,0,0,0-.375.375h0a.376.376,0,0,0,.375.375h1.275a.376.376,0,0,0,.375-.375h0A.376.376,0,0,0,422.983,212.267Z" transform="translate(-407.683 -204.804)"/><path class="a" d="M371.145,61.98l-.9.9a.371.371,0,1,0,.525.525l.9-.9a.371.371,0,1,0-.525-.525Z" transform="translate(-358.283 -59.692)"/></g></g></svg>