<?xml version="1.0" encoding="UTF-8"?>
<svg width="306px" height="232px" viewBox="0 0 306 232" version="1.1" xmlns="http://www.w3.org/2000/svg" xmlns:xlink="http://www.w3.org/1999/xlink">
    <!-- Generator: Sketch 55.2 (78181) - https://sketchapp.com -->
    <title>undraw_High_five_u364 2</title>
    <desc>Created with Sketch.</desc>
    <defs>
        <linearGradient x1="50.0049089%" y1="100.006199%" x2="50.0049089%" y2="0.00039645933%" id="linearGradient-1">
            <stop stop-color="#808080" stop-opacity="0.25" offset="0%"></stop>
            <stop stop-color="#808080" stop-opacity="0.12" offset="54%"></stop>
            <stop stop-color="#808080" stop-opacity="0.1" offset="100%"></stop>
        </linearGradient>
    </defs>
    <g id="Product" stroke="none" stroke-width="1" fill="none" fill-rule="evenodd">
        <g id="Product.1.0.2" transform="translate(-35.000000, -113.000000)">
            <g id="Group-2" transform="translate(15.000000, 40.000000)">
                <g id="undraw_High_five_u364-2" transform="translate(20.000000, 73.000000)">
                    <g id="undraw_High_five_u364" transform="translate(0.000000, 0.000000)">
                        <path d="M72.961201,193.389725 C70.391758,193.130104 67.7074457,192.852371 65.274032,193.53161 C62.8406183,194.21085 60.8243612,196.194229 61.5468282,198.090062 C63.161043,202.316441 72.6347306,199.37307 77.0027838,202.262101 C78.5625869,203.294545 79.1701846,204.918682 80.3884028,206.186596 C82.3593168,208.245446 85.7479587,209.205438 89.0187086,209.733735 C108.667391,212.906538 131.066888,204.740571 148.288202,212.604654 C153.865405,215.152557 158.263687,219.206861 164.378962,220.90647 C172.480264,223.158526 181.3524,220.752509 189.73483,219.20988 C200.188924,217.302076 210.845201,216.74405 221.441757,217.549517 C229.28007,218.153286 239.705963,218.355548 242.214949,212.671069 C243.829163,209.015251 240.413316,204.945852 235.879004,203.216055 C231.344693,201.486259 226.036526,201.540598 220.973212,201.706635 C211.20026,202.05682 201.424284,202.763229 191.651332,202.419081 C172.752323,201.748898 154.899228,194.268208 136.49597,194.020663 C115.063792,193.761042 94.4931337,195.557253 72.961201,193.389725 Z" id="Path" fill="#188CFF" fill-rule="nonzero" opacity="0.1"></path>
                        <path d="M52.7188019,98.3409806 C49.6987842,101.349183 49.5145631,105.961165 49.5145631,105.961165 C49.5145631,105.961165 54.1925705,105.699323 57.2005082,102.688146 C60.2084458,99.6769677 60.407767,95.0679612 60.407767,95.0679612 C60.407767,95.0679612 55.7267395,95.3387291 52.7188019,98.3409806 Z" id="Path" fill="#188CFF" fill-rule="nonzero" opacity="0.1"></path>
                        <path d="M64.6777679,23.0530733 C65.7831471,27.1569023 69.8382915,29.7087379 69.8382915,29.7087379 C69.8382915,29.7087379 72.1022834,25.610878 70.9969043,21.5070489 C69.8915251,17.4032199 65.8363806,14.8543689 65.8363806,14.8543689 C65.8363806,14.8543689 63.5598632,18.9522288 64.6777679,23.0530733 Z" id="Path" fill="#188CFF" fill-rule="nonzero" opacity="0.1"></path>
                        <path d="M241.867453,34.9644207 C238.847435,37.9718017 238.660194,42.5825243 238.660194,42.5825243 C238.660194,42.5825243 243.341222,42.3207542 246.349159,39.3103986 C249.357097,36.3000429 249.553398,31.6893204 249.553398,31.6893204 C249.553398,31.6893204 244.875391,31.9719131 241.867453,34.9644207 Z" id="Path" fill="#188CFF" fill-rule="nonzero" opacity="0.1"></path>
                        <path d="M150.552303,77.9668689 C150.223431,82.3427184 152.896938,86.1553398 152.896938,86.1553398 C152.896938,86.1553398 156.109116,82.8719053 156.437988,78.4929612 C156.766861,74.114017 154.093354,70.3106796 154.093354,70.3106796 C154.093354,70.3106796 150.881176,73.5879248 150.552303,77.9668689 Z" id="Path" fill="#188CFF" fill-rule="nonzero" opacity="0.1"></path>
                        <path d="M249.581429,137.385944 C249.252557,141.760939 251.926064,145.572816 251.926064,145.572816 C251.926064,145.572816 255.138242,142.290022 255.467114,137.915027 C255.795987,133.540032 253.12248,129.728155 253.12248,129.728155 C253.12248,129.728155 249.910302,133.010949 249.581429,137.385944 Z" id="Path" fill="#188CFF" fill-rule="nonzero" opacity="0.1"></path>
                        <path d="M177.788788,29.0614387 C158.171688,28.473476 139.488159,23.0310523 121.647268,17.0609697 C103.806377,11.0908871 86.1352255,4.49062911 66.9879422,1.3307066 C54.6726957,-0.701533632 40.587303,-0.987976988 30.6666036,4.69566224 C21.115695,10.1622076 18.0300635,19.6027776 16.372067,28.3619139 C15.1232652,34.9501111 14.3897457,41.8850555 17.8087952,48.0541408 C20.1851558,52.3387304 24.3983462,55.9388711 27.3142377,60.0395339 C37.4592365,74.3164739 30.2877196,91.9191719 19.2970517,105.870471 C14.1442289,112.410425 8.15786121,118.645845 4.17806336,125.607926 C0.198265519,132.570007 -1.64159533,140.542178 1.84110667,147.639943 C5.29046687,154.677404 13.5137658,159.963037 22.4220871,163.680771 C40.5145573,171.218754 61.8260262,173.392708 82.6222128,174.616877 C128.642983,177.33055 174.906238,176.154625 221.048251,174.9787 C238.125312,174.544512 255.275118,174.104294 272.073321,171.830838 C281.402961,170.570487 291.032677,168.568399 297.807124,163.732029 C306.403245,157.593096 308.534089,147.199725 302.77202,139.501936 C293.108962,126.593894 266.399153,123.385728 259.636831,109.530916 C255.920737,101.905492 259.736857,93.4116926 265.141258,86.3380492 C276.732079,71.1655969 296.158221,57.8535188 297.179692,40.5071122 C297.882901,28.597099 288.544167,16.6689945 274.104139,11.0335984 C258.969995,5.12381968 237.97982,5.86857241 226.819412,15.646844 C215.316493,25.7025135 195.111366,29.5770368 177.788788,29.0614387 Z" id="Path" fill="#188CFF" fill-rule="nonzero" opacity="0.1"></path>
                        <path d="M242.333347,86.0320468 C241.487009,86.2472435 240.795746,86.8529513 240.474517,87.6608164 L240.171776,87.6126458 L239.042552,87.4320059 C239.042552,87.4320059 233.060389,86.9412676 231.943274,87.0165342 C230.82616,87.0918008 230.126828,85.9959188 230.126828,85.9959188 L225.679562,82.2536625 L225.334437,81.952596 C225.815796,81.7719562 226.115509,81.6786256 226.115509,81.6786256 C226.115509,81.6786256 214.181457,66.9263682 211.608158,66.6403551 C209.034859,66.3543419 204.781347,62.9101414 204.738963,62.8770241 L204.693552,62.6421923 C204.599702,62.1454326 204.530072,61.6426516 204.478606,61.1368599 L205.111335,61.522225 L205.111335,61.522225 C205.111335,61.3476064 205.111335,61.1729879 205.129499,60.9983693 L205.129499,60.9983693 C205.223957,59.1777336 205.84178,57.42229 206.909617,55.9404525 C208.153882,54.2243736 209.994548,52.8755958 210.730209,50.897589 C211.02342,50.0469727 211.155827,49.1497441 211.120745,48.2512147 C211.139548,46.6325875 210.710128,45.0400231 209.879506,43.6479083 C209.023102,42.240286 207.601435,41.2648716 205.974147,40.9684167 C205.550309,40.902182 205.11739,40.89315 204.699607,40.7968088 C202.214103,40.2157505 201.299825,36.9010086 198.883951,36.0881291 C197.757755,35.7087853 196.504407,35.9586705 195.417566,36.4283342 C194.330726,36.8979979 193.346817,37.5723868 192.284196,38.0932318 C191.221575,38.6140768 190.016666,38.9964312 189.050922,39.7340441 C188.951017,39.8093107 188.845058,39.8996307 188.748181,39.9929613 L188.748181,39.9929613 L188.557454,40.1766118 L188.557454,40.1766118 C188.158852,40.5789347 187.812078,41.0289661 187.525107,41.5163576 L187.479696,41.5916243 C187.449422,41.6428056 187.422175,41.6969975 187.394928,41.7511895 C187.367682,41.8053815 187.349517,41.8354881 187.331353,41.8776374 C187.313188,41.9197867 187.282914,41.9739787 187.261722,42.0221493 L187.198147,42.1666612 L187.143653,42.3051518 C187.125489,42.3563331 187.104297,42.4075144 187.08916,42.4617064 C187.074023,42.5158983 187.058886,42.5490157 187.046776,42.5941756 L187.001365,42.7537409 L186.974118,42.8831994 C186.974118,42.9373914 186.952926,42.994594 186.943844,43.048786 C186.934762,43.102978 186.943844,43.130074 186.943844,43.1692126 C186.943844,43.2083512 186.943844,43.2836179 186.943844,43.3408205 C186.943844,43.3980231 186.943844,43.4160871 186.943844,43.4522151 C186.943844,43.4883431 186.943844,43.5726417 186.943844,43.6358656 C186.943844,43.6990896 186.943844,43.6960789 186.943844,43.7261856 C186.955572,43.8146978 186.973785,43.9022399 186.998338,43.9881134 L186.998338,43.9881134 C187.161818,44.5420757 187.724916,45.1080807 188.154808,45.6018297 C188.10637,45.6469897 188.057931,45.689139 188.009493,45.7373096 C185.944692,47.7161592 184.778511,50.4453858 184.779246,53.2970889 C184.779728,53.9242067 184.837486,54.549985 184.951808,55.1667117 C184.401555,54.7533941 183.810136,54.3972768 183.186828,54.103947 C181.136525,53.1264478 178.894074,52.612375 176.620374,52.5986146 C172.911796,52.5564653 167.701623,51.1715595 167.701623,51.1715595 C167.834653,51.4243281 167.936311,51.6922328 168.004364,51.9693857 C167.777308,51.8399271 167.532088,51.7014365 167.262648,51.5569246 C165.090575,50.3972041 162.735991,49.6132904 160.299604,49.2387128 C160.299604,49.2387128 158.755625,49.45247 158.549761,46.228048 C158.47904,45.2205634 158.296281,44.2239738 158.004827,43.2565219 C157.118585,40.3075505 156.504507,37.2843764 156.170216,34.2245276 L155.652529,29.4917626 C155.652529,29.4917626 157.983635,17.1480371 156.581944,11.8853951 C157.033028,10.2355508 156.778725,8.72419707 155.292267,7.63734709 C149.428173,3.34413914 143.512612,20.0533286 143.512612,20.0533286 L141.314712,22.1758472 C140.750953,21.8104139 140.11509,21.5691778 139.449827,21.468341 C139.449827,21.468341 138.26611,22.6726069 137.442654,25.9602528 C137.006707,27.7034277 134.027735,30.6147405 131.33334,32.9600484 C129.420016,34.624946 127.573296,36.3560782 125.729603,38.0932318 C124.367268,39.3817963 121.330775,41.2243232 114.706801,42.2660132 C113.668399,42.4285891 112.723847,42.582133 111.861035,42.7236342 C112.081524,41.9457224 112.193575,41.14139 112.19405,40.3331664 C112.172851,36.1431862 109.236297,32.5265515 105.122019,31.6233132 C105.152284,31.4126326 105.152284,31.1987436 105.122019,30.988063 C105.010345,30.5347361 104.779432,30.1191059 104.452962,29.7837971 C103.057325,28.0677182 101.54362,26.3034686 99.4668164,25.4905891 C98.6104276,25.1593326 97.6930965,25.0125916 96.7754484,25.0600641 L96.315282,25.0600641 C96.2214323,25.0600641 96.13061,25.0600641 96.0367603,25.0600641 L96.0367603,25.0600641 C94.055821,25.1691288 92.2180685,26.121317 90.9930943,27.6733211 C90.2483513,28.6638298 89.8002945,29.837989 89.1584835,30.8947324 C87.9656838,32.8516645 86.131073,34.3600075 84.1420642,35.5522308 C82.9462371,36.2717796 81.6898617,36.8919766 80.5606376,37.7078667 C76.4645511,40.6673502 74.5754469,46.1377281 75.6047665,51.0270476 C76.0588781,53.1736516 77.0185672,55.2871383 76.7612373,57.4638489 C76.5584008,59.1528318 75.6441228,60.6702069 74.7116804,62.1032833 C73.7792379,63.5363597 72.7923021,64.9935215 72.422958,66.6523977 C72.0536139,68.311274 72.4411225,70.2651954 73.8397861,71.2707575 C74.3544459,71.6380586 74.9780925,71.8728904 75.417067,72.3184688 C75.709073,72.6617963 75.9534452,73.0425285 76.1436456,73.4504788 C77.6444215,76.1467522 80.1903663,78.1139231 83.1884299,78.8937607 C83.6589461,79.0132959 84.1441067,79.0660034 84.6294773,79.0503152 L84.6809433,79.0503152 L84.774793,79.0503152 C85.8858527,79.1195605 87.0241591,78.8245154 87.3965306,77.8460493 C87.4530301,77.6236544 87.5374519,77.4092155 87.6478056,77.2077884 C87.7523589,77.0575979 87.9084578,76.9505389 88.0867802,76.9067219 C88.4449322,76.9880861 88.7902239,77.1177406 89.1130723,77.292087 C90.6639583,78.0920085 92.3605263,78.5742072 94.1022449,78.7101101 C94.3932874,78.7332075 94.6854949,78.738235 94.9771666,78.7251634 C95.5832773,78.7815435 96.1942128,78.6948971 96.7603114,78.4722676 C97.3047394,78.1974545 97.7750118,77.7968885 98.1317284,77.3041297 C98.210441,77.2047777 98.2830989,77.0994045 98.3587842,77.0030632 C97.9588001,79.4075328 97.2060314,81.7405831 96.1245552,83.9275921 C96.1245552,83.9275921 94.3081088,86.9382569 94.4382875,89.973007 C94.3683735,91.0786504 94.6039308,92.1822483 95.1194549,93.1643116 C95.1194549,93.1643116 95.1709209,93.0318424 95.2768802,92.8241065 C95.7975948,93.691178 97.5050544,96.4640002 98.6251963,97.4364449 C98.6796897,100.299587 98.66758,103.885289 98.3073182,104.622902 C97.7018361,105.88437 95.7885126,114.859162 104.017014,120.979843 L105.915201,125.113486 L98.1014543,125.664438 C97.3113001,125.556054 87.0937895,124.189212 87.0423235,126.179261 C86.9908576,128.247588 88.5863029,148.388935 93.8842714,147.025104 C98.821978,145.754604 97.1932311,139.880797 96.9480108,139.092003 L97.1236007,139.043832 L96.9298464,138.98964 L100.880617,135.265448 C100.955093,134.81206 100.846268,134.347779 100.577876,133.973872 L100.617232,133.952798 L110.15963,134.377302 L112.402942,139.224472 C112.402942,139.224472 116.208397,144.980863 113.123465,149.825022 C110.038534,154.669182 106.847643,162.244015 106.332984,166.838289 C105.912173,170.595599 103.114846,174.286674 102.112773,175.502982 C100.323574,176.105115 93.4604339,178.784607 96.2002404,182.839972 C99.3366378,187.482417 109.520847,196.318718 113.638125,196.014641 C117.755404,195.710564 116.105465,192.733017 116.105465,192.733017 L112.663299,189.415264 C112.663299,189.415264 112.057817,182.346223 112.303037,180.277896 C112.436243,179.203089 111.640034,178.429348 110.789332,178.101186 C111.113265,175.798027 111.933693,171.432563 113.695646,169.021021 C116.162986,165.637034 124.085719,150.746286 124.085719,150.746286 C124.085719,150.746286 126.604525,148.524415 126.038399,141.912995 C125.811343,139.245546 125.684192,136.903249 125.611534,135.05169 L134.578724,135.452109 C134.578724,135.452109 144.196807,134.491707 137.663655,124.243404 C131.130503,113.995101 117.243771,103.951523 117.243771,103.951523 L117.119647,97.6080528 C117.749349,97.7646074 118.118693,97.8428847 118.118693,97.8428847 C118.118693,97.8428847 118.064199,97.6140741 117.973377,97.2046237 L118.118693,97.237741 C118.118693,97.237741 116.11152,88.6001438 115.493928,81.7328175 L116.060054,81.9917347 C122.02708,88.859061 126.050508,83.0544994 126.050508,83.0544994 C126.050508,83.0544994 138.653619,65.4360892 137.418435,66.2429473 C137.160111,66.3702749 136.861094,66.3887244 136.588925,66.2941286 L137.497148,63.4159331 C137.497148,63.4159331 141.217835,57.7619047 135.816935,54.5826427 C131.409025,51.9874497 131.524067,60.1222659 131.714794,63.1961546 L131.49682,63.012504 C131.49682,63.012504 127.279637,69.3349 125.015134,72.8573778 C122.750631,76.3798556 120.849417,74.0616437 120.849417,74.0616437 L117.988514,70.8552857 C118.458388,69.5707314 118.689207,68.2118462 118.669682,66.8450803 C118.795985,64.9165719 118.092777,63.0254561 116.735166,61.6426516 C114.552403,59.429813 113.91362,57.2862197 113.847017,55.6363754 C113.868482,54.7815853 114.063089,53.9398812 114.419197,53.1616089 L129.28681,45.3338806 C129.28681,45.3338806 132.423208,45.3820512 136.640391,38.9211646 C139.373419,34.788998 142.381305,30.8432458 145.643909,27.1103268 C145.643909,27.1103268 145.556115,26.9838788 145.404744,26.776143 C145.556115,26.5985138 145.643909,26.5021725 145.643909,26.5021725 C145.643909,26.5021725 145.471347,26.2522873 145.177688,25.8669222 L147.469438,23.2386119 C147.397055,24.4265131 147.38796,25.6173921 147.442191,26.8062496 L148.628936,30.7953804 L149.294967,53.0050544 C149.294967,53.0050544 148.574443,55.1125197 153.206381,57.247081 C157.12385,59.0534799 163.330042,62.0641446 165.140433,62.9522907 C165.07383,63.1148666 165.034474,63.2021759 165.034474,63.2021759 L165.573353,63.1660479 L165.652066,63.2021759 L165.652066,63.2021759 C174.700996,62.3953178 174.3922,71.3791414 174.3922,71.3791414 C174.3922,71.3791414 174.997682,89.6538765 172.233656,96.0154111 C169.46963,102.376946 169.866221,110.249834 169.866221,110.249834 C169.866221,110.249834 170.141716,108.907078 171.682668,110.662295 C171.652393,110.815839 171.619092,110.981426 171.582763,111.153034 C170.698759,115.557636 168.858094,124.926825 168.515996,128.726284 C168.139232,132.188679 167.467766,135.613046 166.508823,138.962544 L165.6006,155.771085 L171.385981,156.051077 L171.322406,156.65321 C171.258248,157.272778 170.89137,157.821176 170.341525,158.119404 C168.361598,159.18819 163.681221,162.936467 164.05662,174.503441 L163.856811,176.364032 C163.536391,179.515031 162.575422,182.568412 161.032237,185.338824 C160.899031,185.573656 160.780962,185.799456 160.681058,186.016224 C160.696215,185.89447 160.751586,185.781165 160.838483,185.694082 C160.838483,185.694082 157.832264,186.314279 158.449856,194.391893 C159.067448,202.469506 159.993835,203.881508 161.229019,203.98086 C162.464202,204.080212 168.494804,205.546406 168.170871,202.568858 C167.846938,199.591311 167.565389,192.97688 167.965007,191.968308 C168.364626,190.959735 170.005482,188.238094 168.449393,187.581769 L168.449393,187.581769 C168.900632,185.729068 169.119262,183.827898 169.100286,181.921719 C169.100286,181.921719 172.127697,177.176912 174.292295,175.409652 C176.456894,173.642391 177.622447,170.640759 178.406546,166.778076 C178.46104,166.52518 184.7853,162.334334 183.855885,158.854006 C183.692405,158.251873 183.574336,157.718985 183.483514,157.237279 C183.444158,157.023522 183.410856,156.821807 183.380582,156.635146 L183.492596,156.635146 L184.779246,148.960962 L184.779246,156.433432 L185.542153,156.532784 L185.514906,157.134916 L185.190973,164.300299 C185.132247,165.695897 184.82473,167.07003 184.28275,168.358675 C182.920416,171.565033 180.407665,178.703319 181.09186,186.422663 L181.019202,193.305043 C180.801228,193.347192 177.658776,194.084805 178.255176,201.885437 C178.860658,209.96004 179.796128,211.375053 181.031311,211.474405 C182.266495,211.573757 188.297097,213.03995 187.976191,210.062403 C187.655286,207.084856 187.370709,200.470425 187.770327,199.461852 C188.169945,198.45328 188.890469,195.785831 187.33438,195.129506 C187.342481,194.224899 187.564412,193.334868 187.982246,192.531302 C188.660386,191.384239 190.924889,185.931925 192.629321,181.738069 C194.371802,177.493392 195.340549,172.974135 195.490224,168.391792 C195.490224,168.340611 195.490224,168.289429 195.490224,168.238248 C195.536035,166.692346 195.869641,165.168286 196.474133,163.743326 C197.17097,162.148938 197.722161,160.49544 198.121044,158.802825 C198.163428,158.60111 198.196729,158.405417 198.227003,158.200692 L199.70438,158.396385 L204.748046,136.689492 C204.748046,136.689492 206.128545,124.923814 205.453432,119.609991 C205.426186,119.390212 205.395911,119.188498 205.359582,118.992805 L205.662324,119.019901 C205.662324,119.019901 206.691643,116.397612 206.382847,105.188907 C206.074051,93.9802018 208.441486,90.4366493 208.441486,90.4366493 C209.719054,86.4083799 211.129827,85.0596021 211.953283,84.6080024 L211.953283,84.6080024 C212.165183,84.4736627 212.407872,84.3949402 212.658669,84.3791918 L216.476234,88.7235811 L216.476234,88.7235811 L217.178593,89.5244179 C217.180098,89.5083959 217.180098,89.4922693 217.178593,89.4762473 L217.481334,89.8284951 C217.458237,89.6498384 217.450136,89.4695795 217.457115,89.2895861 C219.494562,90.466756 224.202186,93.2185036 227.011623,95.1934997 C230.674789,97.767618 231.67989,97.4665516 234.88289,97.1986024 C236.826488,97.0390372 239.45428,95.9551979 241.216233,95.1302757 L241.376686,95.0550091 C241.85079,95.306651 242.349984,95.5084528 242.866172,95.657142 C242.866172,95.657142 248.036989,100.013574 248.536512,92.0624083 C249.036034,84.1112427 242.333347,86.0320468 242.333347,86.0320468 Z M108.21906,178.628052 C107.692561,178.472236 107.184929,178.259201 106.705355,177.992802 L108.21906,178.628052 Z M100.123765,92.559168 L100.141929,93.6881673 L100.063216,93.7242953 C100.087436,93.3268875 100.1056,92.9355011 100.123765,92.559168 Z M180.99801,193.332139 L180.99801,193.771696 C180.88188,193.647934 180.88188,193.455901 180.99801,193.332139 L180.99801,193.332139 Z" id="Shape" fill="url(#linearGradient-1)" fill-rule="nonzero"></path>
                        <rect id="Rectangle" fill="#FF7590" fill-rule="nonzero" x="189.145631" y="61.3980583" width="8.91262136" height="8.91262136"></rect>
                        <path d="M178.845439,167.69399 C178.086006,171.492119 176.960257,174.444234 174.875536,176.183926 C172.790816,177.923618 169.863273,182.588615 169.863273,182.588615 C169.812644,188.793715 168.17465,190.679375 168.17465,190.679375 L166.486026,191.126214 L162.316586,191.126214 C162.316586,191.126214 161.572043,189.040966 161.423134,187.801733 C161.372505,187.387663 161.667344,186.693573 162.078332,185.948842 C163.56873,183.218997 164.495421,180.217379 164.803359,177.122287 L164.99694,175.290249 C164.645516,163.919692 169.166381,160.228804 171.063476,159.177244 C171.595364,158.880427 171.948085,158.341752 172.007557,157.735444 L172.007557,157.735444 L172.34409,154.485437 L183.559885,155.036538 C183.559885,155.036538 183.321632,156.025541 183.74751,158.313355 C183.833877,158.787004 183.950026,159.314274 184.104891,159.901122 C184.998342,163.323907 178.89309,167.44376 178.845439,167.69399 Z" id="Path" fill="#8E5362" fill-rule="nonzero"></path>
                        <path d="M197.85864,159.701076 C197.471873,161.36951 196.937863,163.00049 196.262866,164.574911 C195.675512,165.982502 195.350825,167.485376 195.304803,169.009474 C195.304803,169.060275 195.304803,169.111075 195.304803,169.161875 C195.159065,173.678945 194.219667,178.135374 192.529415,182.328105 C190.873763,186.463843 188.6792,191.845681 188.020532,192.978227 C186.924748,194.86979 187.57144,198.058252 187.57144,198.058252 L181.224274,197.610015 L181.33505,186.950927 C180.673388,179.339855 183.11046,172.308502 184.43079,169.131993 C184.964281,167.861549 185.268363,166.506916 185.328974,165.130726 L185.628369,158.060527 L185.721181,155.968752 C185.721181,155.968752 196.942492,154.376014 197.888579,156.916027 C198.149052,157.588383 198.086179,158.589447 197.85864,159.701076 Z" id="Path" fill="#8E5362" fill-rule="nonzero"></path>
                        <path d="M183.203883,157.456311 L171.320388,156.858283 L171.660691,153.495146 L183.014157,154.06543 C183.014157,154.06543 182.7642,155.085777 183.203883,157.456311 Z" id="Path" fill="#000000" fill-rule="nonzero" opacity="0.1"></path>
                        <path d="M197.852057,159.436893 L185.184466,157.898916 L185.280574,155.937926 C185.280574,155.937926 196.900283,154.444772 197.879959,156.825975 C198.152781,157.456293 198.087675,158.394767 197.852057,159.436893 Z" id="Path" fill="#000000" fill-rule="nonzero" opacity="0.1"></path>
                        <path d="M204.108109,137.772005 L199.121888,159.436893 L184.364752,157.47203 L184.364752,150.014616 L183.088426,157.677585 L165.378641,156.81909 L166.294664,140.042178 C167.243691,136.694278 167.907588,133.273517 168.279381,129.815818 C168.624417,126.025143 170.438143,116.675415 171.314472,112.283189 C171.619813,110.835236 171.790804,109.92233 171.790804,109.92233 C171.790804,109.92233 202.123392,116.167574 204.108109,118.434724 C204.447038,118.821651 204.669937,119.643871 204.80734,120.735126 C205.472984,126.031189 204.108109,137.772005 204.108109,137.772005 Z" id="Path" fill="#BDD2E8" fill-rule="nonzero"></path>
                        <path d="M169.339806,138.640777 C169.339806,138.640777 181.283171,132.588251 184.194175,133.866662 L169.339806,138.640777 Z" id="Path" fill="#000000" fill-rule="nonzero" opacity="0.1"></path>
                        <path d="M176.271845,118.834951 C176.271845,118.834951 185.879148,126.632744 186.174757,128.737864 L176.271845,118.834951 Z" id="Path" fill="#000000" fill-rule="nonzero" opacity="0.1"></path>
                        <path d="M173.300971,143.616685 C173.300971,143.616685 180.057313,143.225458 182.213592,145.572816 L173.300971,143.616685 Z" id="Path" fill="#000000" fill-rule="nonzero" opacity="0.1"></path>
                        <path d="M186.125802,136.660194 C186.125802,136.660194 189.130008,147.420662 187.828275,150.363897 C186.526542,153.307132 185.184466,149.67518 185.184466,149.67518 L186.125802,136.660194 Z" id="Path" fill="#000000" fill-rule="nonzero" opacity="0.1"></path>
                        <path d="M181.045787,194.097087 C181.045787,194.097087 177.721458,194.608188 178.325881,202.767429 C178.930305,210.926671 179.83694,212.358976 181.045787,212.459972 C182.254633,212.560968 188.147762,214.04224 187.84555,211.030727 C187.543338,208.019214 187.241127,201.341245 187.643068,200.319045 C188.04501,199.296844 188.740097,196.606682 187.21695,195.942557 L186.887539,197.515644 C186.887539,197.515644 183.66294,194.504131 181.74994,196.698496 C181.667779,196.163553 181.535208,195.63781 181.354043,195.128469 C181.163649,194.651034 180.746597,194.403135 181.045787,194.097087 Z" id="Path" fill="#494457" fill-rule="nonzero"></path>
                        <path d="M241.631068,94.7559433 C241.631068,94.7559433 240.880271,95.1940085 239.77791,95.7408133 C238.076699,96.5858753 235.541269,97.6981259 233.664277,97.8627887 C230.571708,98.1361911 229.603418,98.4468757 226.066925,95.8060571 C223.352734,93.7803938 218.80922,90.9562713 216.83093,89.7508153 L215.969896,89.2195447 L215.883495,89.1667284 L215.883495,89.1294462 L217.525119,84.4256822 L223.334858,81.2038835 L224.776865,82.4932244 L229.070114,86.3301785 C229.070114,86.3301785 229.740468,87.4548565 230.821974,87.3771854 C231.903479,87.2995142 237.674487,87.8028232 237.674487,87.8028232 L238.76493,87.9892339 L241.062011,88.3869101 L241.631068,94.7559433 Z" id="Path" fill="#8E5362" fill-rule="nonzero"></path>
                        <path d="M241.631068,95.0504761 C241.631068,95.0504761 240.893466,95.4987299 239.810478,96.0582524 C238.666024,95.4224314 237.243505,94.230267 237.790852,92.2687591 C238.285514,90.5043557 238.420156,89.1278031 238.827008,88.1359223 L241.08372,88.5428478 L241.631068,95.0504761 Z" id="Path" fill="#000000" fill-rule="nonzero" opacity="0.1"></path>
                        <path d="M241.592982,87.3399649 C241.592982,87.3399649 248.026504,85.4724171 247.547317,93.3161176 C247.068131,101.159818 242.110622,96.8659523 242.110622,96.8659523 C242.110622,96.8659523 237.895556,95.7454237 238.782939,92.7932042 C239.670321,89.8409848 239.41298,88.051127 241.592982,87.3399649 Z" id="Path" fill="#8E5362" fill-rule="nonzero"></path>
                        <path d="M173.300971,61.4494943 L166.469352,64.323646 L166.363832,64.368932 L166.288462,64.3327032 L165.86337,64.1183495 C164.096675,63.2367819 158.024795,60.220734 154.204997,58.4304273 C149.682743,56.3170804 150.3852,54.2037335 150.3852,54.2037335 L149.733995,32.0649152 L148.576298,28.088804 C148.576298,28.088804 147.759277,14.6116889 154.304487,11.2333529 C160.849697,7.85501697 156.616866,30.7546401 156.616866,30.7546401 L157.123359,35.5126897 C157.450478,38.5564891 158.050848,41.5645754 158.917187,44.5004521 C159.200097,45.4656598 159.378,46.4586614 159.447798,47.4621569 C159.649792,50.6804823 161.15721,50.4661285 161.15721,50.4661285 C163.53816,50.8405264 165.836916,51.6228326 167.952651,52.7787338 C168.73838,53.194139 169.490374,53.670599 170.201719,54.2037335 L173.300971,61.4494943 Z" id="Path" fill="#8E5362" fill-rule="nonzero"></path>
                        <path d="M196.959236,71.3009709 L191.126214,70.7146528 C191.126214,70.7146528 192.845357,68.2286641 193.602383,65.8101019 C193.709457,65.4784964 193.795079,65.1407035 193.858746,64.7987032 C194.033677,63.8400731 193.988436,62.9518012 193.539046,62.3097829 C191.831967,59.867768 203.694055,56.4466019 203.694055,56.4466019 C203.549897,57.7981344 203.506554,59.1580353 203.564365,60.5156495 C203.598244,61.460352 203.699017,62.4016652 203.865969,63.332908 C204.224878,65.229647 204.93968,67.0149856 206.30293,67.9296418 C210.02774,70.4214937 196.959236,71.3009709 196.959236,71.3009709 Z" id="Path" fill="#8E5362" fill-rule="nonzero"></path>
                        <path d="M196.957747,71.3009709 L191.126214,70.718018 C191.126214,70.718018 192.844918,68.2462976 193.601751,65.8416168 C194.274156,66.7655972 194.506332,66.7451939 195.450112,66.928824 C195.450112,66.928824 201.33592,67.771191 203.868747,63.3786408 C204.227565,65.2644935 204.942184,67.0395851 206.305086,67.9489916 C210.022915,70.4265415 196.957747,71.3009709 196.957747,71.3009709 Z" id="Path" fill="#000000" fill-rule="nonzero" opacity="0.1"></path>
                        <path d="M216.829995,90.5651619 C216.823181,90.7460694 216.831171,90.9272409 216.853881,91.1067961 L215.95814,90.0448279 L215.883495,89.9565841 L217.528672,85.3496505 L223.350988,82.1941748 L224.796117,83.4569736 C222.726955,84.2633392 216.922555,86.8224087 216.829995,90.5651619 Z" id="Path" fill="#000000" fill-rule="nonzero" opacity="0.1"></path>
                        <path d="M173.300971,61.3849025 L166.123042,64.3317864 L165.932982,64.3317864 L165.378641,64.368932 C165.378641,64.368932 165.41982,64.2791635 165.486341,64.1120083 C166.08503,62.6911893 168.863072,55.7542493 167.662527,52.4854369 C168.488087,52.9113541 169.278201,53.3998712 170.025605,53.946497 L173.300971,61.3849025 Z" id="Path" fill="#000000" fill-rule="nonzero" opacity="0.1"></path>
                        <path d="M204.990291,120.815534 C202.282947,120.574817 175.197231,118.088424 172.670991,114.130306 C172.271665,113.485423 171.819963,112.873982 171.320388,112.302076 C171.627343,110.842539 171.799238,109.92233 171.799238,109.92233 C171.799238,109.92233 202.292156,116.217535 204.287364,118.502823 C204.628084,118.886751 204.852161,119.712502 204.990291,120.815534 Z" id="Path" fill="#000000" fill-rule="nonzero" opacity="0.1"></path>
                        <path d="M196.280781,67.8172677 C196.280781,67.8172677 202.261938,68.6950902 204.790212,64.0865222 C204.790212,64.0865222 209.013097,67.5256623 211.53834,67.8202739 C214.063582,68.1148856 225.786408,82.7492684 225.786408,82.7492684 C225.786408,82.7492684 216.388746,85.7555097 216.995047,90.5654958 L212.54783,85.4548856 C212.54783,85.4548856 210.325738,85.3526734 208.406796,91.4673682 C208.406796,91.4673682 206.081633,94.9726456 206.384783,106.095739 C206.687933,117.218831 205.678443,119.825243 205.678443,119.825243 C205.678443,119.825243 176.169784,117.321044 173.544502,113.211512 C170.919219,109.10198 170.512998,111.107143 170.512998,111.107143 C170.512998,111.107143 170.106776,103.290915 172.83513,96.9778086 C175.563483,90.6647018 174.957182,72.5280479 174.957182,72.5280479 C174.957182,72.5280479 175.260333,63.6085298 166.368932,64.4111963 C166.368932,64.4111963 170.106776,55.7923024 168.390945,52.4854369 C168.390945,52.4854369 173.505092,53.8622954 177.14896,53.9043828 C179.385491,53.9216205 181.589754,54.4352233 183.6,55.4075035 C184.694373,55.9396082 185.703864,56.61 186.276818,57.4096602 C187.992649,59.8146533 190.824074,58.7143689 190.824074,58.7143689 C191.537731,60.9151216 192.419419,63.0587617 193.461482,65.1266817 C193.579711,65.3461373 193.697939,65.5625867 193.8192,65.7700173 C193.995027,66.0706415 194.176917,66.3712656 194.358807,66.6177774 C195.086368,67.6489182 195.29251,67.621862 196.280781,67.8172677 Z" id="Path" fill="#FF7590" fill-rule="nonzero"></path>
                        <path d="M203.866909,60.7614664 C203.55922,61.2308211 203.216694,61.6726604 202.842683,62.0826604 C200.941756,64.1786051 198.333204,65.3602458 195.609452,65.3592233 C195.260639,65.3594196 194.912038,65.3407438 194.564974,65.3032653 C194.732785,64.286723 194.689385,63.3447894 194.258285,62.6639858 C192.620681,60.0744454 204,56.4466019 204,56.4466019 C203.858813,57.8795569 203.814333,59.3216118 203.866909,60.7614664 L203.866909,60.7614664 Z" id="Path" fill="#000000" fill-rule="nonzero" opacity="0.1"></path>
                        <path d="M205.980583,53.97091 C205.980583,59.713579 201.325157,64.368932 195.582488,64.368932 C189.839819,64.368932 185.184466,59.713579 185.184466,53.97091 C185.184466,48.228241 189.839819,43.5728155 195.582488,43.5728155 C198.343363,43.5625757 200.994137,44.6547666 202.946384,46.6070139 C204.898631,48.5592612 205.990822,51.2100346 205.980583,53.97091 L205.980583,53.97091 Z" id="Path" fill="#8E5362" fill-rule="nonzero"></path>
                        <path d="M210.932039,78.244829 L211.179896,85.1650485 C211.179896,85.1650485 214.777269,82.6770789 214.890871,80.3132123 C215.004472,77.9493457 210.932039,78.244829 210.932039,78.244829 Z" id="Path" fill="#000000" fill-rule="nonzero" opacity="0.1"></path>
                        <path d="M186.174757,85.1650485 C186.174757,85.1650485 194.378615,96.7676491 199.151769,97.9448136 C203.924923,99.1219781 187.96469,88.9270573 186.174757,85.1650485 Z" id="Path" fill="#000000" fill-rule="nonzero" opacity="0.1"></path>
                        <path d="M194.097087,87.1456311 C194.097087,87.1456311 198.709671,92.4285401 202.019417,93.0873786 L194.097087,87.1456311 Z" id="Path" fill="#000000" fill-rule="nonzero" opacity="0.1"></path>
                        <path d="M178.252427,100.019417 C178.252427,100.019417 186.444837,108.421786 191.126214,108.932039 L178.252427,100.019417 Z" id="Path" fill="#000000" fill-rule="nonzero" opacity="0.1"></path>
                        <path d="M205.980583,54.0659545 C205.982012,56.8086067 204.907857,59.4419425 202.989769,61.3980583 L201.841297,60.6816344 C201.397018,60.4498328 201.013732,60.1160092 200.722733,59.7074178 C200.3429,59.0719288 200.45356,58.2745701 200.483468,57.5341655 C200.546275,55.9664262 200.115598,54.2697906 198.892356,53.2895788 C196.909447,51.6978588 193.730214,52.5791501 191.714406,51.017406 C191.228982,50.604265 190.801423,50.1273388 190.443311,49.5995462 L188.553118,47.060588 C188.439467,46.9107085 188.30189,46.760829 188.15534,46.5839713 C191.164472,43.6182558 195.656188,42.7536908 199.547353,44.3912381 C203.438519,46.0287854 205.967978,49.8481225 205.962636,54.0779448 L205.980583,54.0659545 Z" id="Path" fill="#000000" fill-rule="nonzero" opacity="0.1"></path>
                        <path d="M189.278067,40.4848236 C190.226034,39.7577483 191.382977,39.3744366 192.449061,38.8390171 C193.515145,38.3035975 194.457054,37.6221545 195.523138,37.165831 C196.589222,36.7095076 197.821882,36.4417978 198.927338,36.8220674 C201.298769,37.6404074 202.195248,40.9685265 204.633309,41.5526205 C205.045205,41.6499695 205.469216,41.659096 205.884141,41.7229813 C207.486084,42.0280256 208.880974,43.0082504 209.71538,44.4152897 C210.52918,45.8188949 210.947922,47.4182633 210.926838,49.0424095 C210.960543,49.9438093 210.830195,50.8438203 210.5422,51.698212 C209.821382,53.6847401 208.01328,55.044584 206.792735,56.7634024 C205.637354,58.4082395 205.024099,60.3753664 205.039148,62.3883495 L202.083188,60.5417606 C201.632634,60.3074806 201.244292,59.9685126 200.950474,59.5530598 C200.565836,58.9081226 200.677896,58.098909 200.708182,57.3474964 C200.771784,55.7564486 200.335659,54.0345881 199.099971,53.039803 C197.088949,51.424418 193.869497,52.3188119 191.831217,50.7338485 C191.339652,50.314565 190.906684,49.8305481 190.544042,49.2949085 L188.629937,46.7182021 C188.215012,46.1584453 187.418478,45.4617915 187.236759,44.7803484 C186.833949,43.3140291 188.211984,41.309248 189.278067,40.4848236 Z" id="Path" fill="#362133" fill-rule="nonzero"></path>
                        <path d="M202.35958,60.1937705 C201.910777,59.9577271 201.523945,59.6162077 201.23127,59.1976277 C200.848127,58.5478362 200.959752,57.7325316 200.98992,56.9754632 C201.053275,55.3724396 200.618845,53.6376188 199.384945,52.6353459 C197.38476,51.007802 194.177826,51.908928 192.144455,50.3120346 C191.654801,49.8895952 191.223517,49.4019351 190.862285,48.8622638 L188.955622,46.2661626 C188.539294,45.7021925 187.748874,45.000295 187.567861,44.3137228 C187.239023,43.1306118 188.071679,41.5888893 188.961656,40.6019417 C187.963072,41.5398484 186.867947,43.3206451 187.239023,44.6478138 C187.432102,45.334386 188.213472,46.0362835 188.626783,46.6002535 L190.533446,49.1963547 C190.894678,49.736026 191.325962,50.2236862 191.815616,50.6461255 C193.839936,52.2430189 197.04687,51.3418929 199.056106,52.9694369 C200.286989,53.9717097 200.721419,55.7065306 200.658065,57.3095541 C200.627896,58.0666226 200.516272,58.8819271 200.899414,59.5317187 C201.192089,59.9502986 201.578921,60.291818 202.027724,60.5278614 L204.97219,62.3883495 C204.97219,62.2105764 204.97219,62.0328032 204.990291,61.8580951 L202.35958,60.1937705 Z" id="Path" fill="#000000" fill-rule="nonzero" opacity="0.1"></path>
                        <path d="M160.953566,186.174757 C160.953566,186.174757 157.905399,186.783093 158.531306,194.907421 C159.157213,203.031749 160.096073,204.440047 161.347887,204.540422 C162.599701,204.640798 168.702294,206.112971 168.38934,203.119958 C168.076387,200.126944 167.763433,193.489998 168.179661,192.474077 C168.595889,191.458156 170.248284,188.729769 168.670998,188.069724 L167.397278,189.687898 C167.397278,189.687898 164.058064,186.694885 162.077069,188.875769 C162.077069,188.875769 160.224384,186.883469 160.953566,186.174757 Z" id="Path" fill="#494457" fill-rule="nonzero"></path>
                        <path d="M163.398058,191.126214 C164.066489,191.332407 164.690569,191.583962 165.355832,191.790155 C166.010977,192.013452 166.742116,192.125508 167.481505,192.11594 C167.795408,192.112112 168.099342,192.043524 168.349515,191.920056" id="Path" fill="#000000" fill-rule="nonzero" opacity="0.1"></path>
                        <path d="M183.203883,199.048544 C183.552332,199.501222 183.822728,200.079862 184.215779,200.453814 C184.773297,200.981282 185.48692,201.012773 186.167091,201.024582 C186.280304,201.039041 186.394394,201.018902 186.501602,200.965537 C186.623092,200.872236 186.725745,200.736764 186.799874,200.571904 L187.165049,199.906664" id="Path" fill="#000000" fill-rule="nonzero" opacity="0.1"></path>
                        <path d="M132.855376,65.3540134 C132.855376,65.3540134 131.499889,52.8702639 136.771227,55.9429167 C142.042564,59.0155696 138.412872,64.4761126 138.412872,64.4761126 L137.17486,68.3300971 L132.855376,65.3540134 Z" id="Path" fill="#FFC1C7" fill-rule="nonzero"></path>
                        <path d="M141.61165,23.95445 L144.600691,20.9921968 C144.600691,20.9921968 150.330683,4.34988458 156.009861,8.62433744 C161.689039,12.8987903 148.81225,23.7070928 148.81225,23.7070928 L145.398765,27.7281553 L141.61165,23.95445 Z" id="Path" fill="#FFC1C7" fill-rule="nonzero"></path>
                        <path d="M97.198523,89.6972925 L97.0485437,93.0100871 C97.0485437,93.0100871 99.7991644,97.6883497 100.948006,98.0304476 C102.096848,98.3725456 101.997861,88.1359223 101.997861,88.1359223 L97.198523,89.6972925 Z" id="Path" fill="#FF5374" fill-rule="nonzero"></path>
                        <path d="M97.198523,89.6972925 L97.0485437,93.0100871 C97.0485437,93.0100871 99.7991644,97.6883497 100.948006,98.0304476 C102.096848,98.3725456 101.997861,88.1359223 101.997861,88.1359223 L97.198523,89.6972925 Z" id="Path" fill="#000000" fill-rule="nonzero" opacity="0.1"></path>
                        <polygon id="Path" fill="#FFC1C7" fill-rule="nonzero" points="102 86.1553398 102.199864 99.0291262 115.864078 99.0291262 114.835367 91.5286659"></polygon>
                        <path d="M104.543902,117.84466 L105.197262,121.862229 L113.377806,140.048282 C113.377806,140.048282 117.090214,145.774749 114.07934,150.597037 C111.068466,155.419325 107.958233,162.954149 107.455417,167.523267 C106.952601,172.092385 102.990291,176.565057 102.990291,176.565057 L111.622467,180.23301 C111.622467,180.23301 112.224642,173.050815 114.633341,169.684255 C117.04204,166.317695 124.767942,151.501216 124.767942,151.501216 C124.767942,151.501216 127.227826,149.288991 126.676836,142.709582 C126.125846,136.130173 126.17402,131.506805 126.17402,131.506805 L125.321943,121.009287 L104.543902,117.84466 Z" id="Path" fill="#575988" fill-rule="nonzero"></path>
                        <path d="M104.543902,117.84466 L105.197262,121.862229 L113.377806,140.048282 C113.377806,140.048282 117.090214,145.774749 114.07934,150.597037 C111.068466,155.419325 107.958233,162.954149 107.455417,167.523267 C106.952601,172.092385 102.990291,176.565057 102.990291,176.565057 L111.622467,180.23301 C111.622467,180.23301 112.224642,173.050815 114.633341,169.684255 C117.04204,166.317695 124.767942,151.501216 124.767942,151.501216 C124.767942,151.501216 127.227826,149.288991 126.676836,142.709582 C126.125846,136.130173 126.17402,131.506805 126.17402,131.506805 L125.321943,121.009287 L104.543902,117.84466 Z" id="Path" fill="#000000" fill-rule="nonzero" opacity="0.1"></path>
                        <path d="M103.988883,176.271845 C103.988883,176.271845 94.5563851,179.117032 97.6841485,183.794972 C100.811912,188.472911 110.960997,197.365266 115.060612,197.060316 C119.160227,196.755365 117.520996,193.754653 117.520996,193.754653 L114.085685,190.400198 C114.085685,190.400198 113.470589,183.285705 113.728929,181.202893 C113.98727,179.120082 110.807223,178.153389 110.395109,179.373191 C109.982994,180.592992 103.988883,176.271845 103.988883,176.271845 Z" id="Path" fill="#C4747B" fill-rule="nonzero"></path>
                        <path d="M109.962117,93.0873786 L102.646372,93.8973559 C101.291131,94.0471042 100.276291,95.210385 100.311112,96.5741954 C100.389355,99.5009536 100.440514,104.156065 100.031242,105.005186 C99.4293706,106.260801 97.5756072,115.19464 105.59855,121.264953 L116.483391,124.727682 L99.0291262,125.983297 L99.5828477,135.669903 L102.291268,134.164369 L135.394185,135.669903 C135.394185,135.669903 144.774347,134.715394 138.403541,124.528951 C132.032734,114.342508 118.493641,104.354795 118.493641,104.354795 L118.343173,96.423642 L117.338048,94.1171639 L109.962117,93.0873786 Z" id="Path" fill="#575988" fill-rule="nonzero"></path>
                        <path d="M118.834951,124.776699 C121.360614,123.456311 124.231619,123.456311 126.757282,124.776699 L118.834951,124.776699 Z" id="Path" fill="#000000" fill-rule="nonzero" opacity="0.1"></path>
                        <path d="M100.238574,126.327792 C100.238574,126.327792 89.1799274,124.779053 89.1274582,126.829031 C89.074989,128.879009 90.6706688,148.838533 95.9700538,147.487889 C101.269439,146.137244 99.0040058,139.534094 99.0040058,139.534094 L102.966971,135.833328 C102.966971,135.833328 103.377465,133.78335 100.754007,133.981444 L100.238574,126.327792 Z" id="Path" fill="#C4747B" fill-rule="nonzero"></path>
                        <path d="M117.986908,70.3749135 L122.28109,75.1519288 C122.28109,75.1519288 124.152213,77.4178353 126.37512,73.9702306 C128.598026,70.5226258 132.74361,64.368932 132.74361,64.368932 C132.74361,64.368932 137.344086,68.3069416 138.557132,67.5211122 C139.770178,66.7352828 127.388013,83.9201301 127.388013,83.9201301 C127.388013,83.9201301 123.445614,89.5804648 117.580537,82.8861441 L115.864078,82.0973605 L117.986908,70.3749135 Z" id="Path" fill="#FF5374" fill-rule="nonzero"></path>
                        <path d="M117.986908,70.3749135 L122.28109,75.1519288 C122.28109,75.1519288 124.152213,77.4178353 126.37512,73.9702306 C128.598026,70.5226258 132.74361,64.368932 132.74361,64.368932 C132.74361,64.368932 137.344086,68.3069416 138.557132,67.5211122 C139.770178,66.7352828 127.388013,83.9201301 127.388013,83.9201301 C127.388013,83.9201301 123.445614,89.5804648 117.580537,82.8861441 L115.864078,82.0973605 L117.986908,70.3749135 Z" id="Path" fill="#000000" fill-rule="nonzero" opacity="0.1"></path>
                        <circle id="Oval" fill="#FFC1C7" fill-rule="nonzero" cx="104.970874" cy="41.592233" r="8.91262136"></circle>
                        <path d="M104.607739,46.6822755 C104.607739,46.6822755 96.8906549,50.2924031 97.8039193,56.6101265 C98.7171837,62.9278498 98.8693945,70.900215 98.8693945,70.900215 C98.8693945,70.900215 102.373286,76.0145625 97.7278139,85.7919915 C97.7278139,85.7919915 94.7597046,90.755917 96.7384442,94.3660447 C96.7384442,94.3660447 98.933323,88.6500093 104.607739,92.8618248 C110.282156,97.0736404 119.417844,99.0291262 119.417844,99.0291262 C119.417844,99.0291262 114.699311,78.5717363 117.591315,75.7137186 C117.591315,75.7137186 122.614269,68.3430413 118.047947,63.6799598 C113.481625,59.0168782 115.764786,54.6546407 115.764786,54.6546407 L130.428769,46.8838409 C130.428769,46.8838409 133.521691,46.931976 137.683132,40.5149741 C140.377227,36.4141776 143.343737,32.4945935 146.563107,28.7820593 C146.563107,28.7820593 143.415389,24.1189777 140.474677,23.7669903 C140.474677,23.7669903 139.305699,24.9703662 138.495938,28.2315148 C138.063659,29.9613676 135.125992,32.8524782 132.468393,35.1840189 C130.580979,36.8386608 128.760539,38.5564798 126.943143,40.2983664 C125.5976,41.5769533 122.602093,43.4060846 116.069208,44.4409879 C105.317041,46.1347394 104.607739,46.6822755 104.607739,46.6822755 Z" id="Path" fill="#000000" fill-rule="nonzero" opacity="0.1"></path>
                        <path d="M104.607739,45.6919842 C104.607739,45.6919842 96.8906549,49.3021118 97.8039193,55.6198352 C98.7171837,61.9375586 98.8693945,69.9099238 98.8693945,69.9099238 C98.8693945,69.9099238 102.373286,75.0242713 97.7278139,84.8017003 C97.7278139,84.8017003 94.7597046,89.7656258 96.7384442,93.3757534 C96.7384442,93.3757534 98.933323,87.659718 104.607739,91.8715336 C110.282156,96.0833491 119.417844,98.038835 119.417844,98.038835 C119.417844,98.038835 114.699311,77.581445 117.591315,74.7234273 C117.591315,74.7234273 122.614269,67.35275 118.047947,62.6896685 C113.481625,58.026587 115.764786,53.6643494 115.764786,53.6643494 L130.428769,45.8935497 C130.428769,45.8935497 133.521691,45.9416847 137.683132,39.5246828 C140.377227,35.4238864 143.343737,31.5043022 146.563107,27.791768 C146.563107,27.791768 143.415389,23.1286865 140.474677,22.776699 C140.474677,22.776699 139.305699,23.9800749 138.495938,27.2412235 C138.063659,28.9710764 135.125992,31.8621869 132.468393,34.1937277 C130.580979,35.8483695 128.760539,37.5661886 126.943143,39.3080752 C125.5976,40.586662 122.602093,42.4157934 116.069208,43.4506966 C105.317041,45.1444482 104.607739,45.6919842 104.607739,45.6919842 Z" id="Path" fill="#FF5374" fill-rule="nonzero"></path>
                        <path d="M110.912621,84.1747573 C110.912621,84.1747573 116.706997,92.6213592 116.854369,94.0776699 C116.857309,94.0776699 115.973121,84.9990291 110.912621,84.1747573 Z" id="Path" fill="#000000" fill-rule="nonzero" opacity="0.1"></path>
                        <path d="M103.980583,54.4660194 C103.980583,54.4660194 108.030968,58.4545542 113.883495,55.1114369 C110.614496,56.0196627 107.032644,55.7862173 103.980583,54.4660194 L103.980583,54.4660194 Z" id="Path" fill="#000000" fill-rule="nonzero" opacity="0.1"></path>
                        <path d="M106.931708,32.6130644 C106.822683,32.1637009 106.596838,31.7502709 106.276525,31.4136927 C104.905494,29.7135834 103.416167,27.9684975 101.374787,27.1619201 C98.5934094,26.1347198 95.4594944,27.0170662 93.643024,29.3387797 C92.9089766,30.3162676 92.4721881,31.4796582 91.8382381,32.52611 C90.6674022,34.4630952 88.8565498,35.956313 86.909201,37.1376941 C85.7353319,37.8483218 84.4977645,38.4629998 83.3906269,39.2695773 C79.3654994,42.1990426 77.506115,47.6142058 78.5192217,52.4626659 C78.9651099,54.5855538 79.9084518,56.6784574 79.6536585,58.834328 C79.456497,60.5074515 78.5556207,62.0066661 77.6426114,63.4279215 C76.7296021,64.849177 75.7559277,66.288423 75.3919372,67.9255654 C75.0279468,69.5627077 75.4101368,71.5026914 76.7842006,72.4951715 C77.290754,72.8609799 77.9004379,73.0948574 78.3341932,73.532628 C78.621242,73.8733961 78.860966,74.2505341 79.0470078,74.6540406 C80.507276,77.3170751 83.0116011,79.2689069 85.9719257,80.0512132 C87.2762247,80.3900357 89.026412,80.2671001 89.5026328,79.0197535 C89.5573114,78.7994962 89.63986,78.586931 89.7483264,78.3870849 C90.1790484,77.7873991 91.1284568,78.1232232 91.7957725,78.4680425 C93.3149161,79.2530612 94.9793483,79.7253394 96.6884106,79.8563153 C97.3662583,79.9446814 98.0557022,79.8632279 98.6933912,79.6194393 C99.2317973,79.3491695 99.6951857,78.9528633 100.043189,78.4650441 C101.63868,76.4111201 102.096702,73.7275259 102.369694,71.1518752 C102.548656,69.4757533 102.67302,67.7696471 102.348462,66.1145141 C101.832809,63.4579058 100.197885,60.9752064 100.440545,58.282617 C100.698372,55.4041249 103.061276,53.050358 103.422233,50.1868581 C103.605714,48.6876149 103.226934,47.1738891 102.357561,45.932087 C102.036766,45.5486183 101.764775,45.1276929 101.547683,44.6787436 C101.335845,44.2141461 101.431994,43.6688242 101.790343,43.3024646 C101.982418,43.1686985 102.19562,43.067374 102.42126,43.0026217 C104.371642,42.2620097 105.412048,40.3310212 105.551577,38.3550564 C105.606176,37.6054491 105.551577,36.9158103 105.760872,36.1841936 C106.09453,35.0537858 107.104603,33.818433 106.931708,32.6130644 Z" id="Path" fill="#000000" fill-rule="nonzero" opacity="0.1"></path>
                        <path d="M105.941417,32.6130644 C105.832392,32.1637009 105.606546,31.7502709 105.286234,31.4136927 C103.915203,29.7135834 102.425876,27.9684975 100.384496,27.1619201 C97.6031182,26.1347198 94.4692031,27.0170662 92.6527327,29.3387797 C91.9186853,30.3162676 91.4818968,31.4796582 90.8479468,32.52611 C89.677111,34.4630952 87.8662586,35.956313 85.9189098,37.1376941 C84.7450407,37.8483218 83.5074732,38.4629998 82.4003356,39.2695773 C78.3752082,42.1990426 76.5158237,47.6142058 77.5289304,52.4626659 C77.9748187,54.5855538 78.9181605,56.6784574 78.6633672,58.834328 C78.4662058,60.5074515 77.5653294,62.0066661 76.6523201,63.4279215 C75.7393108,64.849177 74.7656364,66.288423 74.401646,67.9255654 C74.0376555,69.5627077 74.4198455,71.5026914 75.7939094,72.4951715 C76.3004627,72.8609799 76.9101467,73.0948574 77.3439019,73.532628 C77.6309508,73.8733961 77.8706747,74.2505341 78.0567165,74.6540406 C79.5169847,77.3170751 82.0213099,79.2689069 84.9816344,80.0512132 C86.2859335,80.3900357 88.0361208,80.2671001 88.5123416,79.0197535 C88.5670202,78.7994962 88.6495688,78.586931 88.7580351,78.3870849 C89.1887571,77.7873991 90.1381655,78.1232232 90.8054813,78.4680425 C92.3246248,79.2530612 93.9890571,79.7253394 95.6981193,79.8563153 C96.3759671,79.9446814 97.0654109,79.8632279 97.7030999,79.6194393 C98.2415061,79.3491695 98.7048944,78.9528633 99.0528977,78.4650441 C100.648389,76.4111201 101.10641,73.7275259 101.379403,71.1518752 C101.558365,69.4757533 101.682729,67.7696471 101.35817,66.1145141 C100.842517,63.4579058 99.2075937,60.9752064 99.450254,58.282617 C99.7080805,55.4041249 102.070985,53.050358 102.431942,50.1868581 C102.615423,48.6876149 102.236643,47.1738891 101.36727,45.932087 C101.046475,45.5486183 100.774484,45.1276929 100.557392,44.6787436 C100.345554,44.2141461 100.441703,43.6688242 100.800052,43.3024646 C100.992126,43.1686985 101.205329,43.067374 101.430969,43.0026217 C103.381351,42.2620097 104.421757,40.3310212 104.561286,38.3550564 C104.615885,37.6054491 104.561286,36.9158103 104.770581,36.1841936 C105.104239,35.0537858 106.114312,33.818433 105.941417,32.6130644 Z" id="Path" fill="#BB7684" fill-rule="nonzero"></path>
                        <g id="Group" opacity="0.1" transform="translate(85.165049, 25.747573)" fill="#000000" fill-rule="nonzero">
                            <path d="M2.37626214,52.3509223 C2.26706174,52.5530079 2.18286298,52.767373 2.12548544,52.9893851 C1.84106796,53.7398058 1.09791262,54.0847573 0.269126214,54.1694822 C1.42208738,54.284466 2.65456311,54.00911 3.04296117,52.9893851 C3.10033871,52.767373 3.18453747,52.5530079 3.29373786,52.3509223 C3.37070983,52.2397709 3.47628993,52.1509775 3.59956311,52.0937217 C3.13470874,51.9605825 2.65762136,51.9666343 2.37626214,52.3509223 Z" id="Path"></path>
                            <path d="M20.6279126,6.16978964 C20.5210034,5.71517587 20.292895,5.29722283 19.9673301,4.95943366 C18.585,3.24375405 17.0833981,1.48268608 15.0251942,0.668721683 C14.1306766,0.323159444 13.1692238,0.180467632 12.2116019,0.251148867 C12.8617852,0.291633471 13.501562,0.432528503 14.1077184,0.668721683 C16.1659223,1.48268608 17.6675243,3.24375405 19.0498544,4.95943366 C19.3754192,5.29722283 19.6035277,5.71517587 19.7104369,6.16978964 C19.8847573,7.38014563 18.8694175,8.63588997 18.5330097,9.75546926 C18.3097573,10.4937864 18.3739806,11.1867152 18.3219903,11.9462136 C18.1782524,13.9372492 17.1323301,15.8798706 15.1628155,16.636343 C14.9353163,16.7016884 14.7203565,16.8039408 14.526699,16.938932 C14.165117,17.3098912 14.0693229,17.8617769 14.2850971,18.3308414 C14.5028871,18.7838201 14.7760986,19.2086093 15.0985922,19.5956634 C15.9759971,20.8473792 16.3590111,22.373989 16.1750971,23.8863754 C15.8081068,26.7821521 13.4226699,29.1544498 13.1657767,32.0562783 C12.9211165,34.7795793 14.5725728,37.2789644 15.0894175,39.956877 C15.4135922,41.6271683 15.2912621,43.3488997 15.1108252,45.0403722 C14.8355825,47.6396117 14.3768447,50.3508091 12.7651456,52.4205178 C12.4155039,52.9127595 11.9492906,53.3127431 11.4072816,53.5854854 C11.0904547,53.7228875 10.752249,53.8057767 10.407233,53.8305825 C11.0570587,53.9071322 11.7159275,53.8229159 12.3247573,53.5854854 C12.8677078,53.3199529 13.3369622,52.9273328 13.6917961,52.441699 C15.3034951,50.3719903 15.762233,47.6607929 16.0374757,45.0615534 C16.2179126,43.3700809 16.343301,41.6483495 16.016068,39.9780583 C15.4992233,37.3001456 13.847767,34.7916828 14.0924272,32.0774595 C14.3554369,29.1695793 16.7347573,26.7972816 17.1017476,23.9075566 C17.2856616,22.3951703 16.9026476,20.8685604 16.0252427,19.6168447 C15.7027491,19.2297905 15.4295376,18.8050013 15.2117476,18.3520227 C14.9959734,17.8829581 15.0917675,17.3310724 15.4533495,16.9601133 C15.647007,16.8251221 15.8619668,16.7228696 16.089466,16.6575243 C18.0589806,15.9071036 19.1049029,13.9584304 19.2486408,11.9673948 C19.3006311,11.2078964 19.2486408,10.5149676 19.4596602,9.77665049 C19.7868932,8.63588997 20.802233,7.3892233 20.6279126,6.16978964 Z" id="Path"></path>
                        </g>
                        <path d="M95.0679612,138.640777 C96.0695927,139.502951 97.6081685,139.837979 99.0291262,139.503327" id="Path" fill="#000000" fill-rule="nonzero" opacity="0.1"></path>
                        <path d="M113.883495,190.135922 C113.328289,190.956488 112.604391,191.290493 111.902913,191.049758" id="Path" fill="#000000" fill-rule="nonzero" opacity="0.1"></path>
                        <ellipse id="Oval" fill="#188CFF" fill-rule="nonzero" opacity="0.1" cx="31.6893204" cy="198.553398" rx="7.9223301" ry="1.48543689"></ellipse>
                        <ellipse id="Oval" fill="#188CFF" fill-rule="nonzero" cx="255.495146" cy="225.291262" rx="7.9223301" ry="1.48543689"></ellipse>
                        <ellipse id="Oval" fill="#6C63FF" fill-rule="nonzero" opacity="0.1" cx="255.495146" cy="199.543689" rx="7.9223301" ry="1.48543689"></ellipse>
                        <ellipse id="Oval" fill="#188CFF" fill-rule="nonzero" opacity="0.1" cx="55.4563107" cy="210.436893" rx="7.9223301" ry="1.48543689"></ellipse>
                        <ellipse id="Oval" fill="#188CFF" fill-rule="nonzero" cx="280.747573" cy="210.932039" rx="12.3786408" ry="1.98058252"></ellipse>
                        <ellipse id="Oval" fill="#188CFF" fill-rule="nonzero" opacity="0.1" cx="106.456311" cy="227.271845" rx="27.2330097" ry="4.45631068"></ellipse>
                        <path d="M285.944351,207.955565 C286.518557,207.475693 286.937401,206.829042 287.145755,206.100726 C287.299059,205.363916 286.992451,204.482948 286.307275,204.213852 C285.537626,203.912721 284.714789,204.45732 284.092186,205.011529 C283.469584,205.565738 282.753122,206.190425 281.936542,206.075098 C282.790808,205.283061 283.175753,204.089643 282.950227,202.932444 C282.914777,202.696703 282.817453,202.47525 282.668648,202.29174 C282.240022,201.824026 281.467244,202.025848 280.954144,202.394253 C279.327243,203.566741 278.873588,205.828427 278.864202,207.865866 C278.701512,207.13226 278.839173,206.366618 278.836044,205.623402 C278.832916,204.880185 278.629553,204.021641 278.010079,203.627608 C277.627053,203.411669 277.195824,203.301282 276.758617,203.307256 C276.026511,203.281628 275.21306,203.355309 274.712475,203.903111 C274.086744,204.585461 274.252563,205.725914 274.79382,206.465927 C275.335078,207.205941 276.154786,207.683265 276.908792,208.202236 C277.515605,208.571625 278.033211,209.076432 278.423062,209.679059 C278.468085,209.763056 278.505775,209.85096 278.535693,209.941748 L283.119174,209.941748 C284.143945,209.412958 285.094262,208.744857 285.944351,207.955565 Z" id="Path" fill="#188CFF" fill-rule="nonzero"></path>
                        <path d="M260.199704,222.797956 C260.773038,222.318874 261.19082,221.673475 261.397958,220.94686 C261.55126,220.211537 261.247785,219.348332 260.559493,219.063793 C259.789857,218.76327 258.967035,219.30677 258.344443,219.859861 C257.721851,220.412951 257.005402,221.036378 256.188837,220.921284 C257.043088,220.130845 257.428026,218.939835 257.202504,217.784971 C257.168775,217.549189 257.071251,217.327726 256.920929,217.145559 C256.49544,216.678789 255.719546,216.880204 255.209584,217.247865 C253.582712,218.417988 253.129064,220.67511 253.119679,222.708438 C252.953863,221.976312 253.091521,221.212216 253.088393,220.470498 C253.085264,219.728781 252.881905,218.87197 252.262442,218.478732 C251.878309,218.267817 251.446917,218.16312 251.011001,218.175012 C250.278908,218.149435 249.465472,218.222967 248.964896,218.769664 C248.339175,219.450637 248.504991,220.58879 249.046239,221.32731 C249.587487,222.06583 250.407181,222.542191 251.164303,223.060115 C251.769969,223.429142 252.286468,223.932902 252.675417,224.533958 C252.720439,224.617785 252.758129,224.705512 252.788047,224.796117 L257.371448,224.796117 C258.397681,224.262785 259.348978,223.590695 260.199704,222.797956 Z" id="Path" fill="#188CFF" fill-rule="nonzero"></path>
                        <path d="M64.133104,195.087379 C64.133104,195.087379 59.7002461,180.818108 64.9660396,170.317289 C67.2083488,165.92426 67.8859284,160.959996 66.8969358,156.170642 C66.4089692,153.90188 65.7024292,151.680347 64.7862013,149.533981" id="Path" stroke="#535461" stroke-width="2"></path>
                        <path d="M68.3286887,142.837144 C68.3286887,144.555412 65.3578206,149.533981 65.3578206,149.533981 C65.3578206,149.533981 62.3897579,144.555412 62.3897579,142.837144 C62.3564771,141.703606 62.9150623,140.640936 63.8475127,140.063869 C64.7799632,139.486801 65.9384834,139.486801 66.8709339,140.063869 C67.8033843,140.640936 68.3619695,141.703606 68.3286887,142.837144 L68.3286887,142.837144 Z" id="Path" fill="#188CFF" fill-rule="nonzero"></path>
                        <path d="M73.801793,152.421087 C72.8361389,153.902415 67.3398058,156.466019 67.3398058,156.466019 C67.3398058,156.466019 67.4400152,150.419783 68.4056693,148.941478 C69.3923226,147.512721 71.3421483,147.125551 72.8038959,148.068136 C74.2656435,149.010722 74.7080321,150.940476 73.801793,152.421087 L73.801793,152.421087 Z" id="Path" fill="#188CFF" fill-rule="nonzero"></path>
                        <path d="M73.6498044,168.874742 C72.1333893,169.732457 66.3495146,169.141153 66.3495146,169.141153 C66.3495146,169.141153 69.3620098,163.588748 70.878425,162.734282 C72.3854055,161.94352 74.1814341,162.636757 74.9315251,164.29871 C75.6816161,165.960663 75.1136541,167.988416 73.6498044,168.874742 Z" id="Path" fill="#188CFF" fill-rule="nonzero"></path>
                        <path d="M70.0996548,181.75129 C68.6281511,182.75939 62.3883495,183.203883 62.3883495,183.203883 C62.3883495,183.203883 64.6863999,177.800238 66.1453801,176.789233 C67.6160028,175.878966 69.5976211,176.199416 70.6497122,177.517633 C71.7018033,178.83585 71.4543037,180.688164 70.0871313,181.728049 L70.0996548,181.75129 Z" id="Path" fill="#188CFF" fill-rule="nonzero"></path>
                        <path d="M60.3172839,156.938394 C61.5602082,158.165039 67.3398058,159.436893 67.3398058,159.436893 C67.3398058,159.436893 65.9252397,153.586968 64.6763968,152.360323 C63.4271757,151.18668 61.4870632,151.241015 60.3030627,152.482802 C59.1190623,153.724588 59.1227455,155.701192 60.3113653,156.938394 L60.3172839,156.938394 Z" id="Path" fill="#188CFF" fill-rule="nonzero"></path>
                        <path d="M57.0895039,171.849049 C58.6021876,172.702003 64.368932,172.111746 64.368932,172.111746 C64.368932,172.111746 61.3638496,166.569164 59.8511659,165.71621 C58.3443343,164.908664 56.5371425,165.598482 55.7852583,167.268195 C55.0333742,168.937908 55.6130779,170.973981 57.0895039,171.849049 L57.0895039,171.849049 Z" id="Path" fill="#188CFF" fill-rule="nonzero"></path>
                        <path d="M55.6673355,185.711847 C57.1388392,186.723275 63.3786408,187.165049 63.3786408,187.165049 C63.3786408,187.165049 61.0805904,181.759137 59.6216102,180.750615 C58.1509875,179.839967 56.1693692,180.16055 55.1172781,181.47932 C54.065187,182.79809 54.3126866,184.651181 55.6798589,185.691502 L55.6673355,185.711847 Z" id="Path" fill="#188CFF" fill-rule="nonzero"></path>
                        <path d="M54.4660194,194.045539 C54.4660194,194.045539 59.7627098,193.047013 61.1774307,191.716625 C62.5921517,190.386237 68.9444653,188.060261 69.650278,189.722512 C70.3560906,191.384763 79.1849398,197.038177 73.1824368,198.036702 C67.1799338,199.035228 59.0568972,199.36709 57.2923656,198.703365 C55.527834,198.039639 54.4660194,194.045539 54.4660194,194.045539 Z" id="Path" fill="#A8A8A8" fill-rule="nonzero"></path>
                        <path d="M73.191608,197.441309 C67.1891421,198.420667 59.0661557,198.74616 57.3016351,198.092294 C55.9550272,197.596854 55.0201408,195.211828 54.6517584,194.097087 L54.4660194,194.140294 C54.4660194,194.140294 55.5247318,198.054848 57.2923481,198.708714 C59.0599644,199.36258 67.1798551,199.034207 73.182321,198.054848 C74.9158852,197.766801 75.4111893,197.110055 75.2254502,196.268959 C75.086146,196.807606 74.4824942,197.231035 73.191608,197.441309 Z" id="Path" fill="#000000" fill-rule="nonzero" opacity="0.2"></path>
                        <path d="M256.88751,179.242718 C256.88751,179.242718 258.4743,181.46927 256.157587,184.816839 C253.840874,188.164409 251.930956,191.010307 252.6955,193.106796 C252.6955,193.106796 256.192208,186.866877 259.042659,186.780169 C261.893111,186.69346 260.012044,182.98667 256.88751,179.242718 Z" id="Path" fill="#188CFF" fill-rule="nonzero"></path>
                        <path d="M256.842774,179.242718 C256.983145,179.458245 257.094146,179.693696 257.172497,179.942112 C259.979523,183.439078 261.473491,186.703944 258.774428,186.784405 C256.26211,186.861772 253.247913,191.627549 252.524272,192.831371 C252.548073,192.924637 252.576315,193.016563 252.608891,193.106796 C252.608891,193.106796 256.145394,186.871056 259.028286,186.784405 C261.911177,186.697755 260.002866,182.984163 256.842774,179.242718 Z" id="Path" fill="#000000" fill-rule="nonzero" opacity="0.1"></path>
                        <path d="M259.648507,181.745012 C259.648507,182.550895 259.560732,183.203883 259.454797,183.203883 C259.348863,183.203883 259.264115,182.566822 259.264115,181.745012 C259.264115,180.923203 259.37005,181.318181 259.475984,181.318181 C259.581919,181.318181 259.648507,180.939129 259.648507,181.745012 Z" id="Path" fill="#FFD037" fill-rule="nonzero"></path>
                        <path d="M260.965347,182.712722 C260.191789,183.062051 259.515797,183.272803 259.460045,183.183305 C259.404293,183.093808 259.979235,182.741592 260.752793,182.392264 C261.526351,182.042935 261.2232,182.296992 261.282437,182.392264 C261.341673,182.487535 261.738905,182.363393 260.965347,182.712722 Z" id="Path" fill="#FFD037" fill-rule="nonzero"></path>
                        <path d="M248.162482,179.242718 C248.162482,179.242718 246.57622,181.46927 248.892163,184.816839 C251.208107,188.164409 253.117391,191.010307 252.3531,193.106796 C252.3531,193.106796 248.860438,186.866877 246.008049,186.780169 C243.15566,186.69346 245.033219,182.98667 248.162482,179.242718 Z" id="Path" fill="#188CFF" fill-rule="nonzero"></path>
                        <path d="M248.208372,179.242718 C248.068085,179.458245 247.957151,179.693696 247.878847,179.942112 C245.073512,183.439078 243.580444,186.703944 246.277881,186.784405 C248.788685,186.861772 251.801067,191.627549 252.524272,192.831371 C252.500822,192.925113 252.471598,193.017119 252.436787,193.106796 C252.436787,193.106796 248.905331,186.871056 246.02126,186.784405 C243.137189,186.697755 245.044351,182.984163 248.208372,179.242718 Z" id="Path" fill="#000000" fill-rule="nonzero" opacity="0.1"></path>
                        <path d="M245.400037,181.745012 C245.400037,182.550895 245.487812,183.203883 245.593746,183.203883 C245.699681,183.203883 245.784429,182.566822 245.784429,181.745012 C245.784429,180.923203 245.678494,181.318181 245.572559,181.318181 C245.466625,181.318181 245.400037,180.939129 245.400037,181.745012 Z" id="Path" fill="#188CFF" fill-rule="nonzero"></path>
                        <path d="M244.083092,182.712722 C244.856479,183.062051 245.528838,183.272803 245.588061,183.183305 C245.647285,183.093808 245.068986,182.741592 244.295599,182.392264 C243.522212,182.042935 243.825296,182.296992 243.766073,182.392264 C243.70685,182.487535 243.309705,182.363393 244.083092,182.712722 Z" id="Path" fill="#FFD037" fill-rule="nonzero"></path>
                        <path d="M245.592233,192.692622 C245.592233,192.692622 250.115508,192.544988 251.481914,191.533084 C252.84832,190.521179 258.440571,189.309354 258.779228,190.917944 C259.117884,192.526534 265.575919,199.003954 260.469566,199.047014 C255.363213,199.090074 248.604805,198.216576 247.244288,197.352305 C245.883772,196.488033 245.592233,192.692622 245.592233,192.692622 Z" id="Path" fill="#A8A8A8" fill-rule="nonzero"></path>
                        <path d="M260.561657,198.52508 C255.454026,198.565237 248.693926,197.75063 247.333069,196.944628 C246.296226,196.330804 245.8809,194.125055 245.745403,193.106796 L245.592233,193.106796 C245.592233,193.106796 245.886791,196.660663 247.241756,197.466665 C248.596722,198.272667 255.362713,199.087274 260.470344,199.047117 C261.943133,199.047117 262.452718,198.52508 262.426208,197.770708 C262.220017,198.23251 261.657412,198.516475 260.561657,198.52508 Z" id="Path" fill="#000000" fill-rule="nonzero" opacity="0.2"></path>
                    </g>
                </g>
            </g>
        </g>
    </g>
</svg>