<svg id="Calque_1" data-name="Calque 1" xmlns="http://www.w3.org/2000/svg" viewBox="0 0 47.39 47.39"><defs><style>.cls-1{fill:#8a8685;}.cls-2{opacity:0.1;}.cls-3{fill:#fff;}</style></defs><title>carte-icon</title><polygon class="cls-1" points="47.39 47.39 23.7 42.13 0 47.39 0 0 47.39 0 47.39 47.39"/><polygon class="cls-2" points="0.03 47.39 23.7 42.13 47.39 47.39 47.39 0.03 0.03 47.39"/><path class="cls-3" d="M42.07,7.21a.79.79,0,0,0-.77,0L31.13,12.58,21,7.19l0,0-.11,0h-.26l-.12,0h-.08L9.18,10.86a.78.78,0,0,0-.54.74V38.26A.79.79,0,0,0,9,38.9a.8.8,0,0,0,.7.11l10.88-3.63,10.27,4.23h0a.77.77,0,0,0,.25,0l.21,0,0,0h0l.08,0L42,34a.78.78,0,0,0,.42-.69V7.88A.79.79,0,0,0,42.07,7.21Zm-10.16,21a.77.77,0,0,0,0-1.31v-13l9-4.75V32.83l-9,4.75ZM21.37,26.73h0l.39,0a.78.78,0,0,0,0-1.57h0l-.4,0v-16l9,4.75V26.81a9.09,9.09,0,0,1-1.17-.15.78.78,0,1,0-.3,1.54,10.49,10.49,0,0,0,1.47.17v9.35l-9-3.69Zm-2.79-.28a.78.78,0,0,0,.76.58l.2,0,.26-.05v7l-9.59,3.2v-25L19.81,9V25.34l-.66.15A.78.78,0,0,0,18.59,26.45Z" transform="translate(-1.27 -1.25)"/><path class="cls-3" d="M37.78,20.07a.79.79,0,0,0-.91.63,12.44,12.44,0,0,1-.62,2.24.78.78,0,0,0,.44,1h0a.79.79,0,0,0,1-.44,14,14,0,0,0,.7-2.52A.79.79,0,0,0,37.78,20.07Z" transform="translate(-1.27 -1.25)"/><path class="cls-3" d="M17.25,26.46a.78.78,0,0,0-.59.1,8.75,8.75,0,0,0-2,1.78.78.78,0,0,0,1.2,1,7.17,7.17,0,0,1,1.68-1.46.79.79,0,0,0,.25-1.08A.78.78,0,0,0,17.25,26.46Z" transform="translate(-1.27 -1.25)"/><path class="cls-3" d="M14.23,30.23h0a.79.79,0,0,0-1,.38,10.08,10.08,0,0,0-.81,2.59.78.78,0,0,0,.67.88h.11a.79.79,0,0,0,.78-.67,8.63,8.63,0,0,1,.68-2.15A.79.79,0,0,0,14.23,30.23Z" transform="translate(-1.27 -1.25)"/><path class="cls-3" d="M36.26,24.76a.79.79,0,0,0-1.1.12,5.06,5.06,0,0,1-1.64,1.36.78.78,0,0,0,.71,1.39,6.61,6.61,0,0,0,2.15-1.77.78.78,0,0,0-.12-1.1Z" transform="translate(-1.27 -1.25)"/><path class="cls-3" d="M27,26l-.43-.19-.16-.06c-.68-.17-1.34-.31-2-.41a.78.78,0,0,0-.89.66.78.78,0,0,0,.66.89c.57.09,1.16.21,1.75.36l.46.2A.78.78,0,0,0,27,26Z" transform="translate(-1.27 -1.25)"/><path class="cls-3" d="M38,15.12a.78.78,0,0,0-.77.8c0,.24,0,.44,0,.63,0,.61,0,1.21-.05,1.78a.78.78,0,0,0,.73.83h.05a.79.79,0,0,0,.78-.73c0-.6.06-1.23.06-1.88,0-.22,0-.44,0-.66A.8.8,0,0,0,38,15.12Z" transform="translate(-1.27 -1.25)"/><path class="cls-3" d="M17.7,16.24a1.05,1.05,0,0,0-1.49,0L14.85,17.6l-1.36-1.36A1.05,1.05,0,0,0,12,17.73l1.36,1.36L12,20.45a1.05,1.05,0,1,0,1.49,1.49l1.36-1.36,1.36,1.36a1.05,1.05,0,0,0,1.49-1.49l-1.36-1.36,1.36-1.36A1.05,1.05,0,0,0,17.7,16.24Z" transform="translate(-1.27 -1.25)"/></svg>