<svg id="Layer_1" data-name="Layer 1" xmlns="http://www.w3.org/2000/svg" viewBox="0 0 41.2 34.8"><defs><style>.cls-1{fill:#ef7e19;}.cls-2{isolation:isolate;font-size:9.5px;fill:#fff;font-family:Arial-BoldMT, Arial;font-weight:700;}</style></defs><title>encherir-gagner-orange</title><circle class="cls-1" cx="7.3" cy="7.3" r="7.3"/><text class="cls-2" transform="translate(4.48 10.27)">2</text><path class="cls-1" d="M23.5,16.2,39.4,32.1a2.12,2.12,0,1,0,3-3h0L26.5,13.2l1.7-1.7a2.92,2.92,0,0,0,.9.2,1.9,1.9,0,0,0,1.3-.5,2.18,2.18,0,0,0,.5-.8,1.09,1.09,0,0,1,.8-.8,2.18,2.18,0,0,0,.8-.5,2,2,0,0,0-.1-2.8L27,.7a2,2,0,0,0-2.7,0,2.18,2.18,0,0,0-.5.8,1.09,1.09,0,0,1-.8.8,2.18,2.18,0,0,0-.8.5A2,2,0,0,0,21.9,5l-6.1,6.1A2.12,2.12,0,0,0,13,12a.37.37,0,0,0-.1.3,1.09,1.09,0,0,1-.8.8,2.18,2.18,0,0,0-.8.5,2,2,0,0,0,.1,2.8L16.9,22a2,2,0,0,0,1.4.6,1.9,1.9,0,0,0,1.3-.5,2.18,2.18,0,0,0,.5-.8,1.09,1.09,0,0,1,.8-.8A2,2,0,0,0,22.2,18c0-.1-.1-.2-.1-.3ZM12,14.3c.1-.1.3-.2.4-.3s.4-.1.5-.2l6.6,6.6c-.1.2-.2.3-.2.5s-.1.3-.3.4a1,1,0,0,1-1.4-.1L12,15.7a1,1,0,0,1,0-1.4Zm2.1-2.1a.73.73,0,0,1,.6-.2.91.91,0,0,1,.7.3L21,17.9a1,1,0,0,1,0,1.4c-.1.1-.3.2-.4.3s-.4.1-.5.2l-6.6-6.6c.1-.2.2-.3.2-.5.2-.2.3-.4.4-.5ZM31.9,8.4c-.1.1-.3.2-.4.3s-.4.1-.5.2L24.4,2.3c.1-.2.2-.3.2-.5s.1-.3.3-.4a.73.73,0,0,1,.6-.2.91.91,0,0,1,.7.3L31.9,7A1.06,1.06,0,0,1,31.9,8.4Zm-2.1,2.1a1,1,0,0,1-1.4-.1L22.8,4.9a1.07,1.07,0,0,1-.1-1.4c.1-.1.3-.2.4-.3s.4-.1.5-.2l6.6,6.6c-.1.2-.2.3-.2.5a.52.52,0,0,1-.2.4Zm-2.4.4-6,6L19,14.3l-2.5-2.5,6-6Zm-3.2,4.6L25.8,14,41.7,29.9a1.22,1.22,0,0,1-.1,1.6,1,1,0,0,1-1.4,0Z" transform="translate(-1.8 -0.1)"/><path class="cls-1" d="M8.7,34.4a.47.47,0,0,0,.5.5H27.3a.47.47,0,0,0,.5-.5h0V32.3a.37.37,0,0,0-.1-.3l-2-2.6V28.2a.47.47,0,0,0-.5-.5H11.3a.47.47,0,0,0-.5.5h0v1.2L8.8,32a.37.37,0,0,0-.1.3ZM24.6,29H11.8v-.4H24.7Zm1.6,2.8h-16L11.6,30H25ZM9.6,33.9V32.8H26.7v1.1Z" transform="translate(-1.8 -0.1)"/><path class="cls-1" d="M22.7,8a.5.5,0,1,0-.6-.8l-.1.1-4.1,4.1a.43.43,0,0,0,.1.7c.2.2.5.2.6,0Z" transform="translate(-1.8 -0.1)"/></svg>