<svg id="Layer_1" height="50px" data-name="Layer 1" xmlns="http://www.w3.org/2000/svg" viewBox="0 0 64.42 54.43"><title>encherir-gagner</title><circle cx="11.41" cy="11.41" r="11.41" style="fill:#fff"/><text transform="translate(6.95 16.05)" style="isolation:isolate;font-size:14.884794235229492px;fill:#f59b1a;font-family:ProximaNova-Bold, Proxima Nova;font-weight:700">2</text><path d="M30.44,21.43,55.31,46.31A3.28,3.28,0,0,0,60,41.67L35.07,16.79l2.68-2.68a3.19,3.19,0,0,0,1.46.35,3,3,0,0,0,2.08-.8,3.08,3.08,0,0,0,.83-1.31,2,2,0,0,1,1.28-1.28,3.09,3.09,0,0,0,1.31-.83,3.13,3.13,0,0,0-.12-4.31L35.88-2.78a3.13,3.13,0,0,0-4.31-.12,3.09,3.09,0,0,0-.83,1.31A2,2,0,0,1,29.45-.32a3.08,3.08,0,0,0-1.31.83A3.12,3.12,0,0,0,27.7,4l-9.54,9.54a3.06,3.06,0,0,0-4.37,1.75,2,2,0,0,1-1.28,1.28,3.09,3.09,0,0,0-1.31.83,3.13,3.13,0,0,0,.12,4.31L20,30.47a3.16,3.16,0,0,0,2.24.92,3,3,0,0,0,2.08-.8,3.09,3.09,0,0,0,.83-1.31A2,2,0,0,1,26.47,28a3.06,3.06,0,0,0,1.76-4.37ZM12.35,18.5a1.51,1.51,0,0,1,.65-.41,3.51,3.51,0,0,0,.8-.38L24.09,28a3.5,3.5,0,0,0-.38.79,1.51,1.51,0,0,1-.41.65,1.57,1.57,0,0,1-2.16-.08l-8.72-8.71a1.57,1.57,0,0,1-.08-2.16Zm3.34-3.34a1.49,1.49,0,0,1,1-.39,1.61,1.61,0,0,1,1.14.47L26.56,24a1.57,1.57,0,0,1,.07,2.16,1.51,1.51,0,0,1-.65.41,3.52,3.52,0,0,0-.8.38L14.89,16.61a3.49,3.49,0,0,0,.38-.8,1.51,1.51,0,0,1,.41-.65Zm27.88-6a1.52,1.52,0,0,1-.65.41,3.51,3.51,0,0,0-.8.38L31.82-.32a3.52,3.52,0,0,0,.38-.8,1.51,1.51,0,0,1,.41-.65,1.49,1.49,0,0,1,1-.39,1.61,1.61,0,0,1,1.14.47L43.49,7a1.57,1.57,0,0,1,.08,2.16Zm-3.34,3.34a1.57,1.57,0,0,1-2.16-.08L29.36,3.73a1.57,1.57,0,0,1-.08-2.16,1.51,1.51,0,0,1,.65-.41,3.49,3.49,0,0,0,.8-.38L41,11.07a3.51,3.51,0,0,0-.38.8,1.51,1.51,0,0,1-.41.65Zm-3.68.6-9.32,9.32L23.3,18.5l-3.93-3.93,9.32-9.32Zm-5,7.21L34,17.89,58.86,42.76a1.73,1.73,0,0,1-2.44,2.44Z" transform="translate(3.53 3.75)" style="fill:#fff"/><path d="M7.15,49.9a.78.78,0,0,0,.78.78H36.26A.78.78,0,0,0,37,49.9h0V46.6a.78.78,0,0,0-.16-.47L33.72,42V40.13a.78.78,0,0,0-.78-.78H11.24a.78.78,0,0,0-.78.78h0V42L7.31,46.13a.77.77,0,0,0-.16.47Zm25-8.41H12v-.6H32.17Zm2.52,4.32H9.49L11.63,43H32.56Zm-26,3.31V47.38H35.48v1.75Z" transform="translate(3.53 3.75)" style="fill:#fff"/><path d="M29.09,8.6A.78.78,0,1,0,28,7.5l-6.37,6.37a.78.78,0,0,0,1.1,1.1Z" transform="translate(3.53 3.75)" style="fill:#fff"/></svg> 