<svg id="Layer_1" data-name="Layer 1" xmlns="http://www.w3.org/2000/svg" viewBox="0 0 29.28 24.87"><defs><style>.cls-1{fill:#afadae;}.cls-2{fill:#20b9e4;}.cls-3{isolation:isolate;font-size:6.77px;fill:#fff;font-family:Arial-BoldMT, Arial;font-weight:700;}</style></defs><title>encherir-gagner-gray</title><path class="cls-1" d="M15.45,11.45l11.3,11.32a1.5,1.5,0,0,0,2.13-2.11h0L17.55,9.34l1.22-1.22a1.45,1.45,0,0,0,.66.16,1.36,1.36,0,0,0,1-.4,1.4,1.4,0,0,0,.38-.6.91.91,0,0,1,.58-.58,1.42,1.42,0,0,0,.55-2.38l-4-4a1.42,1.42,0,0,0-2.38.55.91.91,0,0,1-.59.58,1.4,1.4,0,0,0-.6.38,1.42,1.42,0,0,0-.2,1.59L9.86,7.88a1.39,1.39,0,0,0-2,.8.91.91,0,0,1-.58.58,1.42,1.42,0,0,0-.55,2.38l3.95,4a1.44,1.44,0,0,0,1,.42,1.36,1.36,0,0,0,.95-.36,1.41,1.41,0,0,0,.38-.6.91.91,0,0,1,.6-.58,1.39,1.39,0,0,0,.8-2ZM7.22,10.12a.69.69,0,0,1,.3-.19,1.6,1.6,0,0,0,.36-.17l4.68,4.68a1.59,1.59,0,0,0-.17.36.69.69,0,0,1-.19.3.71.71,0,0,1-1,0l-4-4a.71.71,0,0,1,0-1ZM8.74,8.6a.68.68,0,0,1,.45-.18.73.73,0,0,1,.52.21l4,4a.71.71,0,0,1,0,1,.69.69,0,0,1-.3.19,1.6,1.6,0,0,0-.36.17L8.37,9.26a1.59,1.59,0,0,0,.18-.38.69.69,0,0,1,.19-.3ZM21.42,5.88a.69.69,0,0,1-.3.19,1.6,1.6,0,0,0-.36.17L16.07,1.56a1.6,1.6,0,0,0,.17-.36.69.69,0,0,1,.19-.32A.68.68,0,0,1,16.88.7a.73.73,0,0,1,.52.21l4,4A.71.71,0,0,1,21.42,5.88ZM19.9,7.39a.71.71,0,0,1-1,0l-4-4a.71.71,0,0,1,0-1,.69.69,0,0,1,.3-.19A1.59,1.59,0,0,0,15.56,2l4.67,4.68a1.6,1.6,0,0,0-.17.36.69.69,0,0,1-.19.3Zm-1.67.27L14,11.88,12.2,10.1,10.41,8.34,14.63,4.1ZM16,10.94l1.1-1.06,11.3,11.31a.79.79,0,0,1-1.11,1.11Z" transform="translate(0 0.12)"/><path class="cls-1" d="M4.85,24.4a.35.35,0,0,0,.35.35H18.09a.35.35,0,0,0,.34-.35h0V22.88a.35.35,0,0,0-.07-.21l-1.42-1.88v-.85a.35.35,0,0,0-.35-.35H6.71a.35.35,0,0,0-.35.35h0v.85l-1.43,1.9a.35.35,0,0,0-.07.21Zm11.37-3.82H7.06v-.27h9.17Zm1.15,2H5.92l1-1.28h9.52ZM5.55,24.05v-.79H17.74v.8Z" transform="translate(0 0.12)"/><path class="cls-1" d="M14.83,5.62a.35.35,0,1,0-.43-.56h0l-.06.06L11.44,8a.35.35,0,0,0,.5.5Z" transform="translate(0 0.12)"/><circle class="cls-2" cx="5.19" cy="5.31" r="5.19"/><text class="cls-3" transform="translate(3.16 7.42)">2</text></svg>