<svg id="Layer_1" height="50px" data-name="Layer 1" xmlns="http://www.w3.org/2000/svg" viewBox="0 0 62.53 54.72"><title>inscription-gratuite</title><path d="M38.58,16H16a.91.91,0,0,0,0,1.82H38.58a.91.91,0,0,0,0-1.82Zm0,0" transform="translate(3.53 4.04)" style="fill:#fff"/><path d="M16,10.55h9a.91.91,0,0,0,0-1.83H16a.91.91,0,0,0,0,1.83Zm0,0" transform="translate(3.53 4.04)" style="fill:#fff"/><path d="M38.58,23.32H16a.91.91,0,0,0,0,1.83H38.58a.91.91,0,0,0,0-1.83Zm0,0" transform="translate(3.53 4.04)" style="fill:#fff"/><path d="M31.34,30.61H16a.91.91,0,0,0,0,1.83H31.34a.91.91,0,0,0,0-1.83Zm0,0" transform="translate(3.53 4.04)" style="fill:#fff"/><path d="M28.62,39.73a.91.91,0,0,0,0-1.82H16a.91.91,0,0,0,0,1.82Zm0,0" transform="translate(3.53 4.04)" style="fill:#fff"/><path d="M7.81-2.22H34.06V10.55H46.72V27h1.81V9.26L35.33-4H6V50.68H32.24V48.85H7.81Zm28,1.29,9.58,9.66H35.86Zm0,0" transform="translate(3.53 4.04)" style="fill:#fff"/><path d="M58.21,29.85l-2.58-2.6a2.75,2.75,0,0,0-3.82,0l-13.93,14L36,48.38l-.47.47a.92.92,0,0,0,0,1.28v0h0a.9.9,0,0,0,.63.26.89.89,0,0,0,.64-.27l.47-.47,7-1.94,13.93-14a2.73,2.73,0,0,0,0-3.85ZM40,41.76l9.27-9.34,3.84,3.87-9.27,9.34Zm-.82,1.76,2.92,2.93-4,1.1ZM56.93,32.41,54.36,35l-3.84-3.87,2.57-2.59a.9.9,0,0,1,1.26,0l2.58,2.6a.91.91,0,0,1,0,1.27Zm0,0" transform="translate(3.53 4.04)" style="fill:#fff"/><circle cx="11.41" cy="11.7" r="11.41" style="fill:#fff"/><text transform="translate(6.95 16.34)" style="isolation:isolate;font-size:14.884794235229492px;fill:#f59b1a;font-family:ProximaNova-Bold, Proxima Nova;font-weight:700">1</text></svg> 