<svg id="Layer_1" data-name="Layer 1" xmlns="http://www.w3.org/2000/svg" viewBox="0 0 57.15 50"><defs><style>.cls-1{fill:#ef7e19;}.cls-2{isolation:isolate;font-size:13.6px;fill:#fff;font-family:Arial-BoldMT, Arial;font-weight:700;}</style></defs><title>inscription-gratuite-orange</title><path class="cls-1" d="M41.2,18.3H20.5a.8.8,0,1,0,0,1.6H41.1a.79.79,0,0,0,.8-.8A.71.71,0,0,0,41.2,18.3Z" transform="translate(-2.7)"/><path class="cls-1" d="M20.5,13.3h8.2a.79.79,0,0,0,.8-.8.86.86,0,0,0-.8-.8H20.5a.79.79,0,0,0-.8.8A.86.86,0,0,0,20.5,13.3Z" transform="translate(-2.7)"/><path class="cls-1" d="M41.2,25H20.5a.8.8,0,1,0,0,1.6H41.1a.79.79,0,0,0,.8-.8A.71.71,0,0,0,41.2,25Z" transform="translate(-2.7)"/><path class="cls-1" d="M34.6,31.7h-14a.8.8,0,0,0,0,1.6h14a.8.8,0,0,0,0-1.6Z" transform="translate(-2.7)"/><path class="cls-1" d="M32.1,40a.8.8,0,1,0,0-1.6H20.5a.8.8,0,1,0,0,1.6Z" transform="translate(-2.7)"/><path class="cls-1" d="M13.1,1.7h24V13.4H48.7v15h1.7V12.2L38.2,0H11.4V50h24V48.3H13.1ZM38.6,2.8l8.8,8.8H38.7Z" transform="translate(-2.7)"/><path class="cls-1" d="M59.1,31l-2.4-2.4a2.61,2.61,0,0,0-3.5,0L40.5,41.4l-1.7,6.5-.4.4a.91.91,0,0,0,0,1.2h0a.73.73,0,0,0,.6.2,1.42,1.42,0,0,0,.6-.2l.4-.4,6.4-1.8L59.1,34.5a2.42,2.42,0,0,0,0-3.5ZM42.5,41.8,51,33.3l3.5,3.5L46,45.4Zm-.8,1.7,2.7,2.7-3.7,1ZM57.9,33.3l-2.3,2.4-3.5-3.5,2.3-2.4a.91.91,0,0,1,1.2,0L58,32.2A.71.71,0,0,1,57.9,33.3Z" transform="translate(-2.7)"/><circle class="cls-1" cx="10.4" cy="10.7" r="10.4"/><text class="cls-2" transform="translate(6.35 14.93)">1</text></svg>