<svg id="Layer_1" data-name="Layer 1" xmlns="http://www.w3.org/2000/svg" viewBox="0 0 39.67 34.7"><defs><style>.cls-1{fill:#afadae;}.cls-2{fill:#20b9e4;}.cls-3{isolation:isolate;font-size:9.45px;fill:#fff;font-family:Arial-BoldMT, Arial;font-weight:700;}</style></defs><title>inscription-gratuite-gray</title><path class="cls-1" d="M26.72,12.69H12.44a.58.58,0,0,0,0,1.14H26.72a.58.58,0,0,0,0-1.16Z"/><path class="cls-1" d="M12.44,9.23h5.71a.58.58,0,0,0,0-1.16H12.44a.58.58,0,0,0,0,1.16Z"/><path class="cls-1" d="M26.72,17.34H12.44a.58.58,0,0,0,0,1.16H26.72a.58.58,0,0,0,0-1.16Z"/><path class="cls-1" d="M22.13,22H12.44a.58.58,0,0,0,0,1.16h9.74a.58.58,0,0,0,0-1.16h-.05Z"/><path class="cls-1" d="M20.44,27.75a.58.58,0,0,0,0-1.16h-8a.58.58,0,0,0,0,1.16Z"/><path class="cls-1" d="M7.19,1.13H23.85v8.1h8V19.67H33V8.41L24.66,0H6V34.7H22.7V33.54H7.19ZM25,1.95,31,8.08H25Z"/><path class="cls-1" d="M39.18,21.48l-1.64-1.65a1.75,1.75,0,0,0-2.42,0l-8.84,8.89-1.19,4.53-.3.3a.58.58,0,0,0,0,.81h0a.57.57,0,0,0,.4.17.56.56,0,0,0,.41-.17l.3-.3,4.43-1.23,8.84-8.89a1.73,1.73,0,0,0,0-2.44ZM27.62,29l5.88-5.93,2.44,2.46L30.06,31.5Zm-.52,1.12L29,32l-2.54.7Zm11.27-7.05-1.63,1.64L34.3,22.29l1.63-1.64a.57.57,0,0,1,.8,0l1.64,1.65a.58.58,0,0,1,0,.8Z"/><circle class="cls-2" cx="7.24" cy="7.4" r="7.24"/><text class="cls-3" transform="translate(4.41 10.35)">1</text></svg>