<svg id="Calque_1" data-name="Calque 1" xmlns="http://www.w3.org/2000/svg" viewBox="0 0 42.53 35.06"><defs><style>.cls-1{fill:#afadae;}.cls-2{fill:#20b9e4;}.cls-3{isolation:isolate;font-size:9.74px;fill:#fff;font-family:ProximaNova-Bold, Proxima Nova;font-weight:700;}</style></defs><title>regler-profiter-new-gray</title><path class="cls-1" d="M34.43,21.26a.26.26,0,0,1-.21-.07L31.8,19.91l-2.42,1.28a.53.53,0,0,1-.57-.07.77.77,0,0,1-.21-.5L29,18l-1.92-1.85a.56.56,0,0,1-.14-.57.45.45,0,0,1,.43-.36l2.71-.36,1.21-2.42a.53.53,0,0,1,.93,0l1.21,2.42,2.71.36a.45.45,0,0,1,.43.36.56.56,0,0,1-.14.57L34.5,18l.43,2.64a.56.56,0,0,1-.21.5A.28.28,0,0,1,34.43,21.26Zm-2.64-2.42a.26.26,0,0,1,.21.07l1.71.85-.36-1.85a.71.71,0,0,1,.14-.5l1.35-1.35L33,15.78a.58.58,0,0,1-.43-.28l-.85-1.71-.78,1.71a.48.48,0,0,1-.43.28l-1.85.28L30,17.41a.44.44,0,0,1,.14.5l-.28,1.85,1.71-.85C31.58,18.84,31.72,18.84,31.79,18.84Z" transform="translate(-4.72 -0.03)"/><path class="cls-1" d="M19.12,17.06a.51.51,0,0,1-.43-.21l-.93-1.28H16.2a.71.71,0,0,1-.5-.28.53.53,0,0,1,.07-.57l.93-1.28-.5-1.5a.57.57,0,0,1,.71-.71l1.5.5,1.28-.93a.53.53,0,0,1,.57-.07.48.48,0,0,1,.28.5V12.8l1.28.93c.14.14.28.28.21.5a.45.45,0,0,1-.36.43l-1.5.5-.57,1.57a.45.45,0,0,1-.43.36ZM18,14.49a.51.51,0,0,1,.43.21l.43.64.21-.78a.86.86,0,0,1,.36-.36l.78-.21-.64-.5a.51.51,0,0,1-.21-.43v-.78l-.64.5a.63.63,0,0,1-.5.07l-.71-.28.28.71a.63.63,0,0,1-.07.5l-.5.64Z" transform="translate(-4.72 -0.03)"/><path class="cls-1" d="M44.33,24.54a.51.51,0,0,1-.43-.21L43,23H41.41a.71.71,0,0,1-.5-.28.53.53,0,0,1,.07-.57l.93-1.28-.5-1.5a.57.57,0,0,1,.71-.71l1.5.5,1.28-.93a.53.53,0,0,1,.57-.07.48.48,0,0,1,.28.5v1.57l1.28.93c.14.14.28.28.21.5a.45.45,0,0,1-.36.43l-1.64.57-.5,1.5A.45.45,0,0,1,44.33,24.54ZM43.19,22a.51.51,0,0,1,.43.21l.43.64.21-.78a.86.86,0,0,1,.36-.36l.78-.21-.64-.5a.51.51,0,0,1-.21-.43v-.78l-.64.5a.63.63,0,0,1-.5.07l-.71-.28.28.71a.63.63,0,0,1-.07.5l-.5.64Z" transform="translate(-4.72 -0.03)"/><path class="cls-1" d="M42.26,14.85a.53.53,0,0,1-.5-.28L41,13.07l-1.42-.78a.6.6,0,0,1-.28-.5.53.53,0,0,1,.28-.5L41,10.51,41.76,9a.53.53,0,0,1,.93,0l.78,1.5,1.5.78a.6.6,0,0,1,.28.5.53.53,0,0,1-.28.5l-1.5.78-.78,1.5A.51.51,0,0,1,42.26,14.85Zm-1.35-3.13.78.43.21.21.43.78.43-.78.21-.21.78-.43L43,11.29l-.21-.21-.43-.78-.43.85-.21.21Z" transform="translate(-4.72 -0.03)"/><path class="cls-1" d="M26.59,13.43a.53.53,0,0,1-.5-.28l-.78-1.5-1.42-.78a.6.6,0,0,1-.28-.5.53.53,0,0,1,.28-.5l1.42-.78.85-1.42a.53.53,0,0,1,.93,0l.78,1.5,1.5.78a.6.6,0,0,1,.28.5.53.53,0,0,1-.28.5l-1.5.78-.78,1.5C27,13.21,26.81,13.43,26.59,13.43Zm-1.35-3.06.78.43.21.21.43.78.43-.78.21-.21.78-.43-.78-.43-.21-.21L26.66,9l-.43.85L26,10Z" transform="translate(-4.72 -0.03)"/><path class="cls-1" d="M19.47,23.33A.53.53,0,0,1,19,23l-.57-1-.93-.5a.6.6,0,0,1-.28-.5.53.53,0,0,1,.28-.5l1-.57L19,19a.53.53,0,0,1,1,0l.57,1,1,.57a.6.6,0,0,1,.28.5c0,.21-.07.28-.28.5l-1,.5L20,23A.48.48,0,0,1,19.47,23.33ZM18.83,21l.28.14.21.21.14.28.14-.28.21-.21.28-.14-.28-.14-.21-.21-.14-.28-.14.28-.21.21Z" transform="translate(-4.72 -0.03)"/><path class="cls-1" d="M35.85,13.78a2,2,0,1,1,2-2h0A2,2,0,0,1,35.85,13.78Zm0-2.85a.93.93,0,1,0,.93.93h0A.94.94,0,0,0,35.85,10.93Z" transform="translate(-4.72 -0.03)"/><path class="cls-1" d="M20.9,32.94a2,2,0,0,1-2-2,1.94,1.94,0,0,1,1.88-2h.11a1.89,1.89,0,0,1,1.93,1.85h0v.15a1.93,1.93,0,0,1-1.86,2H20.9Zm0-2.85a.93.93,0,1,0,.93.93h0A.94.94,0,0,0,20.9,30.09Z" transform="translate(-4.72 -0.03)"/><path class="cls-1" d="M43,30.8a2,2,0,1,1,2-2h0A2,2,0,0,1,43,30.8ZM43,28a.93.93,0,1,0,.93.93h0A.94.94,0,0,0,43,28Z" transform="translate(-4.72 -0.03)"/><path class="cls-1" d="M31.79,35.08a.56.56,0,0,1-.57-.55h0V23.11a.56.56,0,0,1,.55-.57h0a.53.53,0,0,1,.57.57v11.4C32.29,34.86,32.08,35.08,31.79,35.08Z" transform="translate(-4.72 -0.03)"/><path class="cls-1" d="M36.56,35.08h0c-.36-.07-.57-.28-.5-.57s.78-6.69,5.91-10.33a.48.48,0,0,1,.67.08h0v0c.14.28.14.57-.14.71C37.81,28.38,37,34.57,37,34.64A.48.48,0,0,1,36.56,35.08Z" transform="translate(-4.72 -0.03)"/><path class="cls-1" d="M33.93,35.08a.48.48,0,0,1-.5-.46h0a19.14,19.14,0,0,1,.5-5.2.52.52,0,0,1,1,.28,19.94,19.94,0,0,0-.5,4.84C34.5,34.86,34.29,35.08,33.93,35.08Z" transform="translate(-4.72 -0.03)"/><path class="cls-1" d="M34.93,28.45h0a.56.56,0,0,1-.5-.6h0a20.68,20.68,0,0,1,7.26-11.68.48.48,0,0,1,.67,0h0a.54.54,0,0,1-.07.71C36.85,21,35.43,28,35.43,28A.53.53,0,0,1,34.93,28.45Z" transform="translate(-4.72 -0.03)"/><path class="cls-1" d="M26.81,35.08a.48.48,0,0,1-.5-.46h0s-.78-6.2-5.48-9.61a.51.51,0,1,1,.57-.85c5.13,3.63,5.91,10,5.91,10.33S27.16,35.08,26.81,35.08Z" transform="translate(-4.72 -0.03)"/><path class="cls-1" d="M29.44,35.08h0a.47.47,0,0,1-.5-.57,16.82,16.82,0,0,0-.5-4.84.52.52,0,0,1,1-.28,19.14,19.14,0,0,1,.5,5.2.48.48,0,0,1-.46.5h0Z" transform="translate(-4.72 -0.03)"/><path class="cls-1" d="M28.52,28.45A.47.47,0,0,1,28,28v0c0-.07-1.42-7-6.91-11a.48.48,0,0,1-.11-.67h0a.55.55,0,0,1,.77-.08h0C27.52,20.59,29,27.65,29.09,28a.56.56,0,0,1-.43.64C28.59,28.45,28.52,28.45,28.52,28.45Z" transform="translate(-4.72 -0.03)"/><circle class="cls-2" cx="7.48" cy="7.48" r="7.48"/><text class="cls-3" transform="translate(4.56 10.55)">3</text></svg>