<svg id="Layer_1" height="50px" data-name="Layer 1" xmlns="http://www.w3.org/2000/svg" viewBox="0 0 68.53 55"><title>regler-profiter</title><path d="M60.48,14.29H59v-3a4.53,4.53,0,0,0-4.52-4.52H8.11a4.53,4.53,0,0,0-4.52,4.52V39.19a4.53,4.53,0,0,0,4.52,4.52H9.63v3a4.53,4.53,0,0,0,4.52,4.52H60.48A4.53,4.53,0,0,0,65,46.73V18.82A4.53,4.53,0,0,0,60.48,14.29Zm2.46,4.52v.7H11.69v-.7a2.47,2.47,0,0,1,2.46-2.46H60.48A2.47,2.47,0,0,1,62.94,18.82ZM11.69,21.57H62.94v5.08H11.69ZM8.11,41.65a2.47,2.47,0,0,1-2.46-2.46V11.28A2.47,2.47,0,0,1,8.11,8.82H54.43a2.47,2.47,0,0,1,2.46,2.46v3H14.16a4.53,4.53,0,0,0-4.52,4.52V41.65Zm52.36,7.54H14.16a2.47,2.47,0,0,1-2.46-2.46v-18H62.94v18A2.47,2.47,0,0,1,60.48,49.19Z" transform="translate(3.53 3.75)" style="fill:#fff"/><circle cx="11.41" cy="11.41" r="11.41" style="fill:#fff"/><text transform="translate(6.95 16.05)" style="isolation:isolate;font-size:14.884794235229492px;fill:#f59b1a;font-family:ProximaNova-Bold, Proxima Nova;font-weight:700">3</text></svg> 