<svg id="Calque_1" data-name="Calque 1" xmlns="http://www.w3.org/2000/svg" viewBox="0 0 67.3 50"><defs><style>.cls-1{fill:#f59b1a;}.cls-2{isolation:isolate;font-size:13.67px;fill:#fff;font-family:ProximaNova-Bold, Proxima Nova;font-weight:700;}</style></defs><title>regler-profiter-new-orange</title><circle class="cls-1" cx="11.1" cy="10.6" r="10.5"/><text class="cls-2" transform="translate(7.01 14.91)">3</text><path class="cls-1" d="M48.8,29.9a.37.37,0,0,1-.3-.1L45.1,28l-3.4,1.8a.75.75,0,0,1-.8-.1,1.08,1.08,0,0,1-.3-.7l.6-3.7-2.7-2.6a.78.78,0,0,1-.2-.8.63.63,0,0,1,.6-.5l3.8-.5,1.7-3.4a.75.75,0,0,1,1.3,0l1.7,3.4,3.8.5a.63.63,0,0,1,.6.5.78.78,0,0,1-.2.8l-2.7,2.6.6,3.7a.78.78,0,0,1-.3.7A.4.4,0,0,1,48.8,29.9Zm-3.7-3.4a.37.37,0,0,1,.3.1l2.4,1.2-.5-2.6a1,1,0,0,1,.2-.7l1.9-1.9-2.6-.4a.82.82,0,0,1-.6-.4L45,19.4l-1.1,2.4a.68.68,0,0,1-.6.4l-2.6.4,1.9,1.9a.62.62,0,0,1,.2.7l-.4,2.6,2.4-1.2C44.8,26.5,45,26.5,45.1,26.5Z"/><path class="cls-1" d="M27.3,24a.71.71,0,0,1-.6-.3l-1.3-1.8H23.2a1,1,0,0,1-.7-.4.75.75,0,0,1,.1-.8l1.3-1.8-.7-2.1a.8.8,0,0,1,1-1l2.1.7,1.8-1.3a.75.75,0,0,1,.8-.1.67.67,0,0,1,.4.7V18l1.8,1.3c.2.2.4.4.3.7a.63.63,0,0,1-.5.6l-2.1.7L28,23.5a.63.63,0,0,1-.6.5Zm-1.5-3.6a.71.71,0,0,1,.6.3l.6.9.3-1.1a1.21,1.21,0,0,1,.5-.5l1.1-.3L28,19a.71.71,0,0,1-.3-.6V17.3l-.9.7a.88.88,0,0,1-.7.1l-1-.4.4,1a.88.88,0,0,1-.1.7l-.7.9Z"/><path class="cls-1" d="M62.7,34.5a.71.71,0,0,1-.6-.3l-1.3-1.8H58.6a1,1,0,0,1-.7-.4.75.75,0,0,1,.1-.8l1.3-1.8-.7-2.1a.8.8,0,0,1,1-1l2.1.7,1.8-1.3a.75.75,0,0,1,.8-.1.67.67,0,0,1,.4.7v2.2l1.8,1.3c.2.2.4.4.3.7a.63.63,0,0,1-.5.6l-2.3.8L63.3,34A.63.63,0,0,1,62.7,34.5Zm-1.6-3.6a.71.71,0,0,1,.6.3l.6.9.3-1.1a1.21,1.21,0,0,1,.5-.5l1.1-.3-.9-.6A.71.71,0,0,1,63,29V27.9l-.9.7a.88.88,0,0,1-.7.1l-1-.4.4,1a.88.88,0,0,1-.1.7l-.7.9Z"/><path class="cls-1" d="M59.8,20.9a.75.75,0,0,1-.7-.4L58,18.4l-2-1.1a.84.84,0,0,1-.4-.7.75.75,0,0,1,.4-.7l2-1.1,1.1-2.1a.75.75,0,0,1,1.3,0l1.1,2.1,2.1,1.1a.84.84,0,0,1,.4.7.75.75,0,0,1-.4.7l-2.1,1.1-1.1,2.1A.72.72,0,0,1,59.8,20.9Zm-1.9-4.4,1.1.6.3.3.6,1.1.6-1.1.3-.3,1.1-.6-1.1-.6-.3-.3-.6-1.1-.6,1.2L59,16Z"/><path class="cls-1" d="M37.8,18.9a.75.75,0,0,1-.7-.4L36,16.4l-2-1.1a.84.84,0,0,1-.4-.7.75.75,0,0,1,.4-.7l2-1.1,1.2-2a.75.75,0,0,1,1.3,0l1.1,2.1L41.7,14a.84.84,0,0,1,.4.7.75.75,0,0,1-.4.7l-2.1,1.1-1.1,2.1C38.4,18.6,38.1,18.9,37.8,18.9Zm-1.9-4.3,1.1.6.3.3.6,1.1.6-1.1.3-.3,1.1-.6L38.8,14l-.3-.3-.6-1.1-.6,1.2-.3.3Z"/><path class="cls-1" d="M27.8,32.8a.75.75,0,0,1-.7-.4L26.3,31,25,30.3a.84.84,0,0,1-.4-.7.75.75,0,0,1,.4-.7l1.4-.8.8-1.4a.75.75,0,0,1,1.3,0l.8,1.4,1.4.8a.84.84,0,0,1,.4.7c0,.3-.1.4-.4.7l-1.4.7-.8,1.4A.67.67,0,0,1,27.8,32.8Zm-.9-3.3.4.2.3.3.2.4L28,30l.3-.3.4-.2-.4-.2L28,29l-.2-.4-.2.4-.3.3Z"/><path class="cls-1" d="M50.8,19.4a2.8,2.8,0,1,1,2.8-2.8h0A2.8,2.8,0,0,1,50.8,19.4Zm0-4a1.3,1.3,0,1,0,1.3,1.3h0A1.32,1.32,0,0,0,50.8,15.4Z"/><path class="cls-1" d="M29.8,46.3A2.8,2.8,0,0,1,27,43.5a2.73,2.73,0,0,1,2.66-2.8h.14a2.65,2.65,0,0,1,2.7,2.6q0,.1,0,.2a2.71,2.71,0,0,1-2.62,2.8Zm0-4a1.3,1.3,0,1,0,1.3,1.3h0A1.32,1.32,0,0,0,29.8,42.3Z"/><path class="cls-1" d="M60.8,43.3a2.8,2.8,0,1,1,2.8-2.8h0A2.8,2.8,0,0,1,60.8,43.3Zm0-4a1.3,1.3,0,1,0,1.3,1.3h0A1.32,1.32,0,0,0,60.8,39.3Z"/><path class="cls-1" d="M45.1,49.3a.79.79,0,0,1-.8-.78s0,0,0,0v-16a.79.79,0,0,1,.78-.8h0a.74.74,0,0,1,.8.8v16C45.8,49,45.5,49.3,45.1,49.3Z"/><path class="cls-1" d="M51.8,49.3h0c-.5-.1-.8-.4-.7-.8s1.1-9.4,8.3-14.5a.68.68,0,0,1,1,.13l0,.07c.2.4.2.8-.2,1-6.6,4.7-7.7,13.4-7.7,13.5A.67.67,0,0,1,51.8,49.3Z"/><path class="cls-1" d="M48.1,49.3a.68.68,0,0,1-.7-.66s0,0,0,0a26.87,26.87,0,0,1,.7-7.3.73.73,0,0,1,1.4.4,28,28,0,0,0-.7,6.8C48.9,49,48.6,49.3,48.1,49.3Z"/><path class="cls-1" d="M49.5,40h0a.78.78,0,0,1-.71-.85V39.1c0-.4,2.1-10.3,10.2-16.4a.67.67,0,0,1,.95,0l.05.06a.76.76,0,0,1-.1,1c-7.7,5.8-9.7,15.5-9.7,15.5C50.1,39.8,49.8,40,49.5,40Z"/><path class="cls-1" d="M38.1,49.3a.68.68,0,0,1-.7-.66s0,0,0,0-1.1-8.7-7.7-13.5a.72.72,0,1,1,.8-1.2C37.7,39,38.8,48,38.8,48.4,38.9,49,38.6,49.3,38.1,49.3Z"/><path class="cls-1" d="M41.8,49.3h0a.66.66,0,0,1-.7-.8,23.61,23.61,0,0,0-.7-6.8.73.73,0,0,1,1.4-.4,26.87,26.87,0,0,1,.7,7.3.68.68,0,0,1-.66.7Z"/><path class="cls-1" d="M40.5,40a.66.66,0,0,1-.7-.6c0-.1-2-9.8-9.7-15.5a.67.67,0,0,1-.15-.94L30,22.9a.77.77,0,0,1,1.08-.11h0c8.1,6.1,10.2,16,10.3,16.5a.78.78,0,0,1-.6.9C40.6,40,40.5,40,40.5,40Z"/></svg>