 <svg xmlns="http://www.w3.org/2000/svg" viewBox="0 0 72 72" class="load" width="120"><defs><style>.cls-1{fill:#fff;}.cls-2{fill:#ced550;}.cls-3{fill:#1d6c3e;}.cls-4{fill:#1e6d3d;}.cls-5{fill:#216e3d;}.cls-6{fill:#1f6d3d;}.cls-7{fill:#206e3d;}.cls-8{fill:#cbd34f;}.cls-9{fill:#c9d24f;}.cls-10{fill:#c8d24f;}.cls-11{fill:#c4cf4f;}</style></defs><title>Fichier 1</title><g id="Calque_2" data-name="Calque 2"><g id="Calque_1-2" data-name="Calque 1"><g id="IV---Expérience-paiement-en-plusieurs-fois"><g id="Etape.1.4.2"><g id="Group-8"><circle id="Oval" class="cls-1" cx="36" cy="36" r="36"/><path class="cls-2" d="M46,17.6a26.32,26.32,0,0,1,4.06,2.79,20.57,20.57,0,0,1,6.72,10.76c2,8.2-.06,15.32-6.11,21.2a20,20,0,0,1-11.6,5.54,21,21,0,0,1-19-6.93,20,20,0,0,1-5.29-11.62,21,21,0,0,1,7-18.73A20.56,20.56,0,0,1,33,15.42a20.84,20.84,0,0,1,3.7-.22c-2.43,2.17-3.29,5.11-4,8.14,0,.1,0,.22.12.24s.21,0,.26-.18c.11-.33.23-.66.36-1a7,7,0,0,1,5.28-4.6,16.43,16.43,0,0,1,4.14-.26C43.92,17.61,45,17.64,46,17.6ZM41.34,40.35a14.05,14.05,0,0,0-.43,1.41.55.55,0,0,0,.43.72c.48.13.7,0,.87-.34a7.45,7.45,0,0,1,2.47-3c.16-.11.36-.3.57-.15s.08.42,0,.62c-.18.54-.4,1.07-.57,1.62-.3.92.14,1.38,1.08,1.17a3.88,3.88,0,0,0,1.8-1.08c.2-.19.28-.2.38.1a1.57,1.57,0,0,0,1.58,1.11,3.34,3.34,0,0,0,3.39-2.9,1.72,1.72,0,0,0-1.82-2A3.25,3.25,0,0,0,48,40a2.67,2.67,0,0,1-1.27,1.45c-.13.09-.3.18-.46,0a.38.38,0,0,1,0-.43l.46-1.23a5.72,5.72,0,0,0,.44-1.46c0-.43-.16-.61-.58-.64a1.81,1.81,0,0,0-1,.26A9.5,9.5,0,0,0,43.7,39.3c-.09.07-.18.21-.31.14s0-.22,0-.32a4.88,4.88,0,0,1,.23-.64c.1-.26.2-.5-.14-.69s-.62-.23-.89.07l-.78.89a25.42,25.42,0,0,1-2.15,2.49c-.18.16-.38.41-.62.24s0-.43,0-.62c.31-.9.64-1.79,1-2.68.09-.25.1-.5-.26-.43a5.64,5.64,0,0,0-1.49.53c-.11.06-.24.19-.14.28.31.3.07.57,0,.83-.26.82-.64,1.6-.84,2.43-.12.49.09.76.58.78a2.37,2.37,0,0,0,1.44-.45,7.55,7.55,0,0,0,1.54-1.39C41,40.62,41.09,40.43,41.34,40.35ZM53.82,44,53.49,44a41.88,41.88,0,0,0-5-.36c-2.74,0-5.46.09-8.19.21-1.14.06-2.29.11-3.43.2-2.83.23-5.64.57-8.44,1q-4.75.66-9.48,1.45c-.15,0-.36,0-.33.22s.23.13.38.12a1,1,0,0,0,.17,0c1.09-.16,2.18-.35,3.27-.49,2.61-.34,5.24-.6,7.86-.84,2.93-.27,5.86-.52,8.8-.59a105.06,105.06,0,0,1,12.79.41.6.6,0,0,0,.47-.06Zm-29.46.4a7.6,7.6,0,0,0,2.7-.48,2.06,2.06,0,0,0,.76-.4.28.28,0,0,0,.09-.33c-.09-.17-.21,0-.31,0-.26.08-.51.19-.77.26a5.83,5.83,0,0,1-4.52-.38A2.91,2.91,0,0,1,21.13,39a5.84,5.84,0,0,1,5.4-2.55c.59.09.69.31.4.83-.07.13-.16.25.08.29a1.55,1.55,0,0,0,1.3-.83c.08-.37-.23-.68-.84-.83l-.36-.06a9.74,9.74,0,0,0-3.23.21,7.41,7.41,0,0,0-4.14,2.16,3.28,3.28,0,0,0,.88,5.39A7.35,7.35,0,0,0,24.36,44.42Zm5-3c0,.26,0,.41,0,.56,0,.55.14.7.68.69a3.4,3.4,0,0,0,1.25-.36c.17-.08.25-.21.06-.33s-.3-.5-.22-.8a18.66,18.66,0,0,1,1-2.7c.14-.32.07-.48-.28-.53a6.78,6.78,0,0,0-5.68,1.56,3.24,3.24,0,0,0-1.12,1.87,1.06,1.06,0,0,0,1.1,1.36,3.53,3.53,0,0,0,1.36-.25A7.41,7.41,0,0,0,29.39,41.45Zm4.45-.89a.3.3,0,0,0-.38-.12,3.61,3.61,0,0,0-1.1.39,1,1,0,0,0-.55,1,.9.9,0,0,0,.73.77,4.86,4.86,0,0,0,3.15-.09,1.71,1.71,0,0,0,1.2-1.36c.1-.74-.43-1.11-1-1.46-.31-.21-.64-.39-.94-.61s-.3-.52,0-.71a1.19,1.19,0,0,1,1.75.51,2.34,2.34,0,0,0,.27-.15c.16-.13.37-.27.32-.51a.52.52,0,0,0-.49-.34,4.64,4.64,0,0,0-2.92.26c-1,.51-1.06,1.41-.11,2,.37.24.76.43,1.11.69a.67.67,0,0,1-.12,1.23,2,2,0,0,1-1.42.12.69.69,0,0,1-.62-.57c-.05-.35.17-.55.43-.73S33.66,40.75,33.84,40.56Zm5.64-11.41a8.12,8.12,0,0,0-.85.07,2.15,2.15,0,0,0-1.91,1.38,2,2,0,0,0,1.68,2.58c.37.07.62.12.59.62s.4.38.71.4.3-.24.27-.43c-.07-.42.14-.56.51-.59a1.32,1.32,0,0,0,.43-.12,1.83,1.83,0,0,0,1.33-1.88,1.86,1.86,0,0,0-1.37-1.81A4.7,4.7,0,0,0,39.48,29.15Zm-16.38,2c.55-.4.74-.78.6-1.22s-.52-.71-1.18-.72c-.94,0-1.87,0-2.81,0-.19,0-.32,0-.31.27,0,.92,0,1.84,0,2.76a.93.93,0,0,0,.9,1,9,9,0,0,0,2.48,0,1.12,1.12,0,0,0,1-.93C23.91,31.75,23.71,31.45,23.1,31.15Zm11.44.55L33.69,31c-.7-.56-1.39-1.12-2.09-1.66a.78.78,0,0,0-.85-.14c-.31.15-.29.47-.29.76,0,.93,0,1.87,0,2.8,0,.29,0,.48.39.47s.46-.11.45-.46c0-.68,0-1.37,0-2.08a1.77,1.77,0,0,1,.59.38l2.51,2a.64.64,0,0,0,.71.13.62.62,0,0,0,.3-.66c0-1,0-2,0-3,0-.4-.23-.33-.47-.34s-.42,0-.41.35C34.56,30.23,34.54,30.91,34.54,31.7Zm8.86-1.06h0c0,.41,0,.82,0,1.22a1.3,1.3,0,0,0,1.13,1.33,4.73,4.73,0,0,0,2.15,0,1.49,1.49,0,0,0,1.21-1.54c0-.56,0-1.11,0-1.67,0-.84.16-.72-.74-.75-.31,0-.4.1-.39.39,0,.61,0,1.21,0,1.81,0,1-.39,1.33-1.38,1.21-.63-.08-.83-.29-.85-.95s0-1.14,0-1.72c0-.84.15-.71-.74-.74-.31,0-.44.07-.42.4S43.4,30.29,43.4,30.64ZM28.84,33.25c.71,0,.71,0,.44-.59-.4-.86-.84-1.71-1.17-2.59a1.29,1.29,0,0,0-1.52-.94.51.51,0,0,0-.5.35c-.45,1.07-.92,2.12-1.38,3.19-.07.17-.28.41-.15.52s.46.08.7,0,.25-.31.31-.5a.51.51,0,0,1,.59-.41,8.83,8.83,0,0,0,1.26,0c.3,0,.49.07.58.37A.71.71,0,0,0,28.84,33.25ZM51.15,29.2c-.51,0-1,0-1.54,0-.25,0-.33.08-.33.34,0,.84,0,1.68,0,2.53a1,1,0,0,0,1,1.13,23,23,0,0,0,2.35,0c.24,0,.32-.07.32-.31s-.06-.36-.33-.35H51.21c-.73,0-.8-.08-.79-.8,0-.27.08-.38.36-.37s.81,0,1.22,0c.22,0,.38,0,.38-.3s-.13-.33-.36-.32c-.42,0-.85,0-1.27,0-.13,0-.26,0-.32-.16-.17-.56,0-.83.61-.83h1a4.87,4.87,0,0,0,.54,0,.42.42,0,0,0,.39-.48c0-.24-.26-.12-.41-.12C52.09,29.19,51.62,29.2,51.15,29.2Zm-9.8,6.21a10.81,10.81,0,0,1-1.76.3.78.78,0,0,0-.64.45,5,5,0,0,0-.3,1.13.19.19,0,0,0,.07.2.13.13,0,0,0,.2,0c.38-.54,1-.67,1.55-1A1.58,1.58,0,0,0,41.35,35.41Z"/><path class="cls-3" d="M46,17.6c-1,0-2.08,0-3.12,0a16.43,16.43,0,0,0-4.14.26,7,7,0,0,0-5.28,4.6c-.13.32-.25.65-.36,1-.05.14-.12.2-.26.18s-.14-.14-.12-.24c.67-3,1.53-6,4-8.14a10.25,10.25,0,0,1,6.18-2.08c2.8-.16,5.6,0,8.53,0Z"/><path class="cls-4" d="M41.34,40.35c-.25.08-.33.27-.46.41a7.55,7.55,0,0,1-1.54,1.39,2.37,2.37,0,0,1-1.44.45c-.49,0-.7-.29-.58-.78.2-.83.58-1.61.84-2.43.08-.26.32-.53,0-.83-.1-.09,0-.22.14-.28a5.64,5.64,0,0,1,1.49-.53c.36-.07.35.18.26.43-.32.89-.65,1.78-1,2.68-.07.19-.28.45,0,.62s.44-.08.62-.24a25.42,25.42,0,0,0,2.15-2.49l.78-.89c.27-.3.56-.25.89-.07s.24.43.14.69a4.88,4.88,0,0,0-.23.64c0,.1-.17.23,0,.32s.22-.07.31-.14A9.5,9.5,0,0,1,45.56,38a1.81,1.81,0,0,1,1-.26c.42,0,.61.21.58.64a5.72,5.72,0,0,1-.44,1.46L46.23,41a.38.38,0,0,0,0,.43c.16.14.33,0,.46,0A2.67,2.67,0,0,0,48,40a3.25,3.25,0,0,1,3.11-2.33,1.72,1.72,0,0,1,1.82,2,3.34,3.34,0,0,1-3.39,2.9A1.57,1.57,0,0,1,48,41.47c-.1-.3-.18-.29-.38-.1a3.88,3.88,0,0,1-1.8,1.08c-.94.21-1.38-.25-1.08-1.17.17-.55.39-1.08.57-1.62.06-.2.24-.45,0-.62s-.41,0-.57.15a7.45,7.45,0,0,0-2.47,3c-.17.38-.39.47-.87.34a.55.55,0,0,1-.43-.72A14.05,14.05,0,0,1,41.34,40.35Zm7.65.36c0,.95.48,1.27,1.18.89a2.8,2.8,0,0,0,1.35-2.08.87.87,0,0,0-.31-1,.83.83,0,0,0-1,.09A2.77,2.77,0,0,0,49,40.71Z"/><path class="cls-5" d="M53.82,44l-1.46,1.11a.6.6,0,0,1-.47.06,105.06,105.06,0,0,0-12.79-.41c-2.94.07-5.87.32-8.8.59-2.62.24-5.25.5-7.86.84-1.09.14-2.18.33-3.27.49a1,1,0,0,1-.17,0c-.15,0-.36.07-.38-.12s.18-.2.33-.22q4.73-.8,9.48-1.45c2.8-.38,5.61-.72,8.44-1,1.14-.09,2.29-.14,3.43-.2,2.73-.12,5.45-.25,8.19-.21a41.88,41.88,0,0,1,5,.36Z"/><path class="cls-6" d="M24.36,44.42a7.35,7.35,0,0,1-3.74-.86,3.28,3.28,0,0,1-.88-5.39A7.41,7.41,0,0,1,23.88,36a9.74,9.74,0,0,1,3.23-.21l.36.06c.61.15.92.46.84.83a1.55,1.55,0,0,1-1.3.83c-.24,0-.15-.16-.08-.29.29-.52.19-.74-.4-.83A5.84,5.84,0,0,0,21.13,39a2.91,2.91,0,0,0,1.18,4.14,5.83,5.83,0,0,0,4.52.38c.26-.07.51-.18.77-.26.1,0,.22-.17.31,0a.28.28,0,0,1-.09.33,2.06,2.06,0,0,1-.76.4A7.6,7.6,0,0,1,24.36,44.42Z"/><path class="cls-6" d="M29.39,41.45a7.41,7.41,0,0,1-1.87,1.07,3.53,3.53,0,0,1-1.36.25,1.06,1.06,0,0,1-1.1-1.36,3.24,3.24,0,0,1,1.12-1.87A6.78,6.78,0,0,1,31.86,38c.35.05.42.21.28.53a18.66,18.66,0,0,0-1,2.7c-.08.3-.11.59.22.8s.11.25-.06.33A3.4,3.4,0,0,1,30,42.7c-.54,0-.7-.14-.68-.69C29.36,41.86,29.37,41.71,29.39,41.45Zm-2,.35a1.35,1.35,0,0,0,.71-.21,5.41,5.41,0,0,0,2.26-2.73c.13-.28-.07-.25-.23-.26a3.57,3.57,0,0,0-3.27,2.28,2.76,2.76,0,0,0-.06.4C26.82,41.64,27,41.81,27.42,41.8Z"/><path class="cls-6" d="M33.84,40.56c-.18.19-.46.2-.67.34s-.48.38-.43.73a.69.69,0,0,0,.62.57,2,2,0,0,0,1.42-.12.67.67,0,0,0,.12-1.23c-.35-.26-.74-.45-1.11-.69-.95-.61-.91-1.51.11-2a4.64,4.64,0,0,1,2.92-.26.52.52,0,0,1,.49.34c0,.24-.16.38-.32.51a2.34,2.34,0,0,1-.27.15A1.19,1.19,0,0,0,35,38.37c-.27.19-.28.48,0,.71s.63.4.94.61c.52.35,1.05.72,1,1.46a1.71,1.71,0,0,1-1.2,1.36,4.86,4.86,0,0,1-3.15.09.9.9,0,0,1-.73-.77,1,1,0,0,1,.55-1,3.61,3.61,0,0,1,1.1-.39A.3.3,0,0,1,33.84,40.56Z"/><path class="cls-6" d="M39.48,29.15a4.7,4.7,0,0,1,1.39.22,1.86,1.86,0,0,1,1.37,1.81,1.83,1.83,0,0,1-1.33,1.88,1.32,1.32,0,0,1-.43.12c-.37,0-.58.17-.51.59,0,.19.09.45-.27.43s-.74.06-.71-.4-.22-.55-.59-.62a2,2,0,0,1-1.68-2.58,2.15,2.15,0,0,1,1.91-1.38A8.12,8.12,0,0,1,39.48,29.15Zm0,.68h-.32A1.39,1.39,0,0,0,38,32a1.12,1.12,0,0,0,.72.57c.1,0,.21.06.23-.1s-.09-.43.25-.42h.63c.12,0,.14.11.13.2,0,.46.21.33.44.21A1.07,1.07,0,0,0,41,31.8C41.35,30.66,40.71,29.82,39.45,29.83Z"/><path class="cls-7" d="M23.1,31.15c.61.3.81.6.73,1.1a1.12,1.12,0,0,1-1,.93,9,9,0,0,1-2.48,0,.93.93,0,0,1-.9-1c0-.92,0-1.84,0-2.76,0-.24.12-.27.31-.27.94,0,1.87,0,2.81,0,.66,0,1.05.27,1.18.72S23.65,30.75,23.1,31.15Zm-1.66.29h0a3.38,3.38,0,0,0-.45,0c-.18,0-.47-.14-.49.26,0,.57.08.86.44.9a8.15,8.15,0,0,0,1.21,0,.52.52,0,0,0,.54-.63c0-.4-.29-.49-.62-.51S21.65,31.44,21.44,31.44Zm0-.62h0a6.57,6.57,0,0,0,.77,0,.47.47,0,0,0,.48-.5c0-.32-.21-.45-.5-.47s-.78,0-1.17,0-.51.09-.51.5.11.58.53.51A2.67,2.67,0,0,1,21.42,30.82Z"/><path class="cls-6" d="M34.54,31.7c0-.79,0-1.47,0-2.15,0-.34.16-.36.41-.35s.48-.06.47.34c0,1,0,2,0,3a.62.62,0,0,1-.3.66.64.64,0,0,1-.71-.13l-2.51-2a1.77,1.77,0,0,0-.59-.38c0,.71,0,1.4,0,2.08,0,.35-.09.46-.45.46s-.39-.18-.39-.47c0-.93,0-1.87,0-2.8,0-.29,0-.61.29-.76a.78.78,0,0,1,.85.14c.7.54,1.39,1.1,2.09,1.66Z"/><path class="cls-5" d="M43.4,30.64c0-.35,0-.69,0-1s.11-.4.42-.4c.89,0,.73-.1.74.74,0,.58,0,1.15,0,1.72s.22.87.85.95c1,.12,1.37-.21,1.38-1.21,0-.6,0-1.2,0-1.81,0-.29.08-.4.39-.39.9,0,.72-.09.74.75,0,.56,0,1.11,0,1.67a1.49,1.49,0,0,1-1.21,1.54,4.73,4.73,0,0,1-2.15,0,1.3,1.3,0,0,1-1.13-1.33c0-.4,0-.81,0-1.22Z"/><path class="cls-6" d="M28.84,33.25a.71.71,0,0,1-.84-.56c-.09-.3-.28-.38-.58-.37a8.83,8.83,0,0,1-1.26,0,.51.51,0,0,0-.59.41c-.06.19-.06.46-.31.5s-.54.12-.7,0,.08-.35.15-.52c.46-1.07.93-2.12,1.38-3.19a.51.51,0,0,1,.5-.35,1.29,1.29,0,0,1,1.52.94c.33.88.77,1.73,1.17,2.59C29.55,33.25,29.55,33.25,28.84,33.25Zm-2.11-3.42-.67,1.67c-.07.17,0,.22.17.22h1.08c.19,0,.25,0,.16-.24Z"/><path class="cls-5" d="M51.15,29.2c.47,0,.94,0,1.4,0,.15,0,.39-.12.41.12a.42.42,0,0,1-.39.48,4.87,4.87,0,0,1-.54,0H51c-.58,0-.78.27-.61.83.06.19.19.16.32.16.42,0,.85,0,1.27,0,.23,0,.35,0,.36.32s-.16.3-.38.3c-.41,0-.81,0-1.22,0s-.36.1-.36.37c0,.72.06.8.79.8h1.45c.27,0,.33.11.33.35s-.08.32-.32.31a23,23,0,0,1-2.35,0,1,1,0,0,1-1-1.13c0-.85,0-1.69,0-2.53,0-.26.08-.35.33-.34C50.13,29.21,50.64,29.2,51.15,29.2Z"/><path class="cls-5" d="M41.35,35.41a1.58,1.58,0,0,1-.88,1.09c-.53.3-1.17.43-1.55,1a.13.13,0,0,1-.2,0,.19.19,0,0,1-.07-.2,5,5,0,0,1,.3-1.13.78.78,0,0,1,.64-.45A10.81,10.81,0,0,0,41.35,35.41Z"/><path class="cls-8" d="M49,40.71a2.77,2.77,0,0,1,1.25-2.07.83.83,0,0,1,1-.09.87.87,0,0,1,.31,1,2.8,2.8,0,0,1-1.35,2.08C49.47,42,49,41.66,49,40.71Z"/><path class="cls-8" d="M27.42,41.8c-.41,0-.6-.16-.59-.52a2.76,2.76,0,0,1,.06-.4,3.57,3.57,0,0,1,3.27-2.28c.16,0,.36,0,.23.26a5.41,5.41,0,0,1-2.26,2.73A1.35,1.35,0,0,1,27.42,41.8Z"/><path class="cls-8" d="M39.45,29.83c1.26,0,1.9.83,1.51,2a1.07,1.07,0,0,1-.55.63c-.23.12-.47.25-.44-.21,0-.09,0-.19-.13-.2h-.63c-.34,0-.22.25-.25.42s-.13.13-.23.1A1.12,1.12,0,0,1,38,32a1.39,1.39,0,0,1,1.12-2.13Z"/><path class="cls-9" d="M21.44,31.44c.21,0,.42,0,.63,0s.6.11.62.51a.52.52,0,0,1-.54.63,8.15,8.15,0,0,1-1.21,0c-.36,0-.47-.33-.44-.9,0-.4.31-.23.49-.26a3.38,3.38,0,0,1,.45,0Z"/><path class="cls-10" d="M21.42,30.82a2.67,2.67,0,0,0-.4,0c-.42.07-.53-.1-.53-.51s.12-.53.51-.5.78,0,1.17,0,.5.15.5.47a.47.47,0,0,1-.48.5,6.57,6.57,0,0,1-.77,0Z"/><path class="cls-11" d="M26.73,29.83l.74,1.65c.09.19,0,.24-.16.24H26.23c-.16,0-.24,0-.17-.22Z"/></g></g></g></g></g></svg>