<?xml version="1.0" encoding="UTF-8"?>
<svg width="13px" height="13px" viewBox="0 0 13 13" version="1.1" xmlns="http://www.w3.org/2000/svg" xmlns:xlink="http://www.w3.org/1999/xlink">
    <!-- Generator: Sketch 48.2 (47327) - http://www.bohemiancoding.com/sketch -->
    <title>share</title>
    <desc>Created with Sketch.</desc>
    <defs>
        <polygon id="path-1" points="0 0 13 0 13 13 0 13"></polygon>
    </defs>
    <g id="Group-7" stroke="none" stroke-width="1" fill="none" fill-rule="evenodd" transform="translate(-700.000000, -10.000000)">
        <g id="share" transform="translate(700.000000, 10.000000)">
            <mask id="mask-2" fill="white">
                <use xlink:href="#path-1"></use>
            </mask>
            <g id="Clip-2"></g>
            <path d="M10.5316755,8.35172251 C9.73850148,8.35172251 9.0313024,8.70796639 8.57887825,9.25862942 L4.79054182,7.26392685 C4.87930859,7.02365287 4.92798714,6.76451733 4.92798714,6.49725006 C4.92798714,6.2273172 4.87930859,5.97094848 4.78774997,5.72804265 L8.57315136,3.73583696 C9.02264048,4.28926679 9.73291777,4.64831123 10.5288836,4.64831123 C11.8860845,4.64831123 12.9942731,3.60626919 12.9942731,2.32408813 C12.9942731,1.04190708 11.8890195,0 10.5288836,0 C9.16874771,0 8.06349412,1.04190708 8.06349412,2.32408813 C8.06349412,2.59402099 8.11217267,2.85315653 8.20373129,3.09343051 L4.42115755,5.08550123 C3.97163263,4.52940581 3.26149852,4.17316193 2.4653895,4.17316193 C1.10818862,4.17316193 0,5.215069 0,6.49725006 C0,7.77943112 1.10818862,8.82143942 2.46832453,8.82143942 C3.26429038,8.82143942 3.97442449,8.46242872 4.42688444,7.9063333 L8.21239321,9.90117083 C8.12069141,10.1441104 8.06922101,10.405844 8.06922101,10.6757769 C8.06922101,11.9553261 9.1744746,13 10.5346105,13 C11.8947464,13 13,11.957958 13,10.6757769 C13,9.39359584 11.8918114,8.35172251 10.5316755,8.35172251 Z M10.5316755,0.731518035 C11.4652298,0.731518035 12.2240425,1.44680636 12.2240425,2.32685494 C12.2240425,3.20676857 11.4652298,3.92205689 10.5316755,3.92205689 C9.59826431,3.92205689 8.83948744,3.20676857 8.83948744,2.32685494 C8.83948744,1.44680636 9.60105617,0.731518035 10.5316755,0.731518035 Z M2.46832453,8.09258697 C1.53477019,8.09258697 0.775993326,7.37729865 0.775993326,6.49725006 C0.775993326,5.6173027 1.53477019,4.90201437 2.46832453,4.90201437 C3.40173569,4.90201437 4.16051256,5.6173027 4.16051256,6.49725006 C4.16051256,7.37729865 3.39894383,8.09258697 2.46832453,8.09258697 Z M10.5316755,12.2685157 C9.59826431,12.2685157 8.83948744,11.5530587 8.83948744,10.6731451 C8.83948744,9.79309647 9.59826431,9.07780815 10.5316755,9.07780815 C11.4652298,9.07780815 12.2240425,9.79309647 12.2240425,10.6731451 C12.2240425,11.5530587 11.4652298,12.2685157 10.5316755,12.2685157 Z" id="Fill-1" fill="#000000" mask="url(#mask-2)"></path>
        </g>
    </g>
</svg>