<?xml version="1.0" standalone="no"?>
<!DOCTYPE svg PUBLIC "-//W3C//DTD SVG 20010904//EN"
 "http://www.w3.org/TR/2001/REC-SVG-20010904/DTD/svg10.dtd">
<svg version="1.0" xmlns="http://www.w3.org/2000/svg"
 width="16.000000pt" height="16.000000pt" viewBox="0 0 16.000000 16.000000"
 preserveAspectRatio="xMidYMid meet">
<metadata>
Created by potrace 1.11, written by Peter Selinger 2001-2013
</metadata>
<g transform="translate(0.000000,16.000000) scale(0.001563,-0.001563)"
fill="#000000" stroke="none">
<path d="M4935 9054 c-447 -36 -818 -136 -1200 -325 -800 -394 -1399 -1103
-1660 -1964 -45 -148 -90 -369 -110 -540 -18 -153 -21 -497 -6 -635 78 -686
422 -1342 1011 -1930 186 -186 360 -333 614 -518 251 -182 402 -310 572 -483
327 -334 554 -692 731 -1149 58 -149 87 -202 139 -250 57 -52 100 -60 161 -28
65 33 109 103 178 278 269 684 645 1158 1282 1617 186 133 210 156 223 203 22
81 43 57 -714 801 -387 381 -715 698 -728 705 -27 15 -77 18 -110 5 -13 -5
-115 -101 -228 -213 -219 -218 -266 -253 -405 -294 -82 -25 -258 -25 -340 0
-144 43 -178 69 -522 403 -413 402 -445 437 -493 537 -51 108 -65 172 -64 291
2 116 31 220 92 320 25 42 203 230 592 625 959 977 1073 1090 1129 1127 31 20
94 50 141 66 167 58 330 46 493 -36 75 -37 105 -63 362 -312 432 -420 487
-479 533 -577 51 -107 66 -172 65 -283 -1 -176 -57 -306 -193 -450 -46 -49
-137 -144 -201 -210 -127 -130 -142 -159 -120 -228 9 -26 189 -209 708 -718
382 -376 707 -690 721 -698 37 -19 95 -17 134 6 59 34 256 372 354 608 85 207
156 459 189 675 22 144 31 495 16 656 -71 772 -387 1452 -925 1989 -269 267
-524 448 -871 616 -324 157 -672 257 -1040 299 -98 11 -430 20 -510 14z"/>
</g>
</svg>
